%FSLAX45Y45*%
G04 Gerber Fmt 4.5, Leading zero omitted, Abs format (unit mm)*
G04 Created by KiCad (PCBNEW (6.0.0)) date 2022-01-26 20:38:06*
%MOMM*%
%LPD*%
G01*
G04 APERTURE LIST*
%TA.AperFunction,Profile*%
%ADD10C,0.050000*%
%TD*%
%ADD11C,0.200000*%
%ADD12C,0.030000*%
G04 APERTURE END LIST*
D10*
X12852400Y-11963400D02*
G75*
G03*
X12776597Y-11884715I-78740J0D01*
G01*
X24765000Y-11884660D02*
X23434152Y-11884660D01*
X18445480Y-12009120D02*
G75*
G03*
X18267680Y-12009120I-88900J0D01*
G01*
X23434152Y-11884660D02*
G75*
G03*
X23350220Y-11963400I-5031J-78740D01*
G01*
X23350220Y-12613640D02*
X23350220Y-11963400D01*
X12776597Y-11884715D02*
X11430000Y-11884715D01*
X11430000Y-9271000D02*
X24765000Y-9271000D01*
X23350220Y-12613640D02*
X18445480Y-12613640D01*
X18267680Y-12009120D02*
X18267680Y-12613640D01*
X12852400Y-12613640D02*
X12852400Y-11963400D01*
X18267680Y-12613640D02*
X12852400Y-12613640D01*
X18445480Y-12613640D02*
X18445480Y-12009120D01*
X11430000Y-11884715D02*
X11430000Y-9271000D01*
X24765000Y-9271000D02*
X24765000Y-11884660D01*
D11*
D12*
X11854420Y-10018000D02*
X11884420Y-10048000D01*
X11884420Y-10018000D02*
X11854420Y-10048000D01*
X12013678Y-10842230D02*
X12043678Y-10872230D01*
X12043678Y-10842230D02*
X12013678Y-10872230D01*
X12024600Y-10399000D02*
X12054600Y-10429000D01*
X12054600Y-10399000D02*
X12024600Y-10429000D01*
X12024600Y-10526000D02*
X12054600Y-10556000D01*
X12054600Y-10526000D02*
X12024600Y-10556000D01*
X12115532Y-10843754D02*
X12145532Y-10873754D01*
X12145532Y-10843754D02*
X12115532Y-10873754D01*
X12634200Y-10399000D02*
X12664200Y-10429000D01*
X12664200Y-10399000D02*
X12634200Y-10429000D01*
X12634200Y-10526000D02*
X12664200Y-10556000D01*
X12664200Y-10526000D02*
X12634200Y-10556000D01*
X12812000Y-10018000D02*
X12842000Y-10048000D01*
X12842000Y-10018000D02*
X12812000Y-10048000D01*
X12939000Y-11973800D02*
X12969000Y-12003800D01*
X12969000Y-11973800D02*
X12939000Y-12003800D01*
X13066000Y-11973800D02*
X13096000Y-12003800D01*
X13096000Y-11973800D02*
X13066000Y-12003800D01*
X13066381Y-11585561D02*
X13096381Y-11615561D01*
X13096381Y-11585561D02*
X13066381Y-11615561D01*
X13193000Y-11973800D02*
X13223000Y-12003800D01*
X13223000Y-11973800D02*
X13193000Y-12003800D01*
X13251420Y-10907000D02*
X13281420Y-10937000D01*
X13281420Y-10907000D02*
X13251420Y-10937000D01*
X13320000Y-11973800D02*
X13350000Y-12003800D01*
X13350000Y-11973800D02*
X13320000Y-12003800D01*
X13421600Y-10424400D02*
X13451600Y-10454400D01*
X13451600Y-10424400D02*
X13421600Y-10454400D01*
X13421600Y-10526000D02*
X13451600Y-10556000D01*
X13451600Y-10526000D02*
X13421600Y-10556000D01*
X13447000Y-11973800D02*
X13477000Y-12003800D01*
X13477000Y-11973800D02*
X13447000Y-12003800D01*
X13574000Y-11973800D02*
X13604000Y-12003800D01*
X13604000Y-11973800D02*
X13574000Y-12003800D01*
X13701000Y-11973800D02*
X13731000Y-12003800D01*
X13731000Y-11973800D02*
X13701000Y-12003800D01*
X13828000Y-11973800D02*
X13858000Y-12003800D01*
X13858000Y-11973800D02*
X13828000Y-12003800D01*
X13955000Y-11973800D02*
X13985000Y-12003800D01*
X13985000Y-11973800D02*
X13955000Y-12003800D01*
X14002498Y-11428970D02*
X14032498Y-11458970D01*
X14032498Y-11428970D02*
X14002498Y-11458970D01*
X14004784Y-9994886D02*
X14034784Y-10024886D01*
X14034784Y-9994886D02*
X14004784Y-10024886D01*
X14031200Y-10399000D02*
X14061200Y-10429000D01*
X14061200Y-10399000D02*
X14031200Y-10429000D01*
X14031200Y-10526000D02*
X14061200Y-10556000D01*
X14061200Y-10526000D02*
X14031200Y-10556000D01*
X14082000Y-11973800D02*
X14112000Y-12003800D01*
X14112000Y-11973800D02*
X14082000Y-12003800D01*
X14209000Y-11973800D02*
X14239000Y-12003800D01*
X14239000Y-11973800D02*
X14209000Y-12003800D01*
X14336000Y-11973800D02*
X14366000Y-12003800D01*
X14366000Y-11973800D02*
X14336000Y-12003800D01*
X14377402Y-10147557D02*
X14407402Y-10177557D01*
X14407402Y-10147557D02*
X14377402Y-10177557D01*
X14420687Y-10215150D02*
X14450687Y-10245150D01*
X14450687Y-10215150D02*
X14420687Y-10245150D01*
X14463000Y-11973800D02*
X14493000Y-12003800D01*
X14493000Y-11973800D02*
X14463000Y-12003800D01*
X14487638Y-10273016D02*
X14517638Y-10303016D01*
X14517638Y-10273016D02*
X14487638Y-10303016D01*
X14590000Y-11973800D02*
X14620000Y-12003800D01*
X14620000Y-11973800D02*
X14590000Y-12003800D01*
X14648420Y-10018000D02*
X14678420Y-10048000D01*
X14678420Y-10018000D02*
X14648420Y-10048000D01*
X14717000Y-11973800D02*
X14747000Y-12003800D01*
X14747000Y-11973800D02*
X14717000Y-12003800D01*
X14818600Y-10399000D02*
X14848600Y-10429000D01*
X14848600Y-10399000D02*
X14818600Y-10429000D01*
X14818600Y-10526000D02*
X14848600Y-10556000D01*
X14848600Y-10526000D02*
X14818600Y-10556000D01*
X15269450Y-10276601D02*
X15299450Y-10306601D01*
X15299450Y-10276601D02*
X15269450Y-10306601D01*
X15453600Y-10399000D02*
X15483600Y-10429000D01*
X15483600Y-10399000D02*
X15453600Y-10429000D01*
X15453600Y-10526000D02*
X15483600Y-10556000D01*
X15483600Y-10526000D02*
X15453600Y-10556000D01*
X15606000Y-10018000D02*
X15636000Y-10048000D01*
X15636000Y-10018000D02*
X15606000Y-10048000D01*
X15860000Y-11999200D02*
X15890000Y-12029200D01*
X15890000Y-11999200D02*
X15860000Y-12029200D01*
X15882860Y-11478246D02*
X15912860Y-11508246D01*
X15912860Y-11478246D02*
X15882860Y-11508246D01*
X16045420Y-10907000D02*
X16075420Y-10937000D01*
X16075420Y-10907000D02*
X16045420Y-10937000D01*
X16092410Y-11670778D02*
X16122410Y-11700778D01*
X16122410Y-11670778D02*
X16092410Y-11700778D01*
X16190200Y-10399000D02*
X16220200Y-10429000D01*
X16220200Y-10399000D02*
X16190200Y-10429000D01*
X16190200Y-10526000D02*
X16220200Y-10556000D01*
X16220200Y-10526000D02*
X16190200Y-10556000D01*
X16243032Y-10651476D02*
X16273032Y-10681476D01*
X16273032Y-10651476D02*
X16243032Y-10681476D01*
X16349204Y-10652746D02*
X16379204Y-10682746D01*
X16379204Y-10652746D02*
X16349204Y-10682746D01*
X16468076Y-10779238D02*
X16498076Y-10809238D01*
X16498076Y-10779238D02*
X16468076Y-10809238D01*
X16578312Y-10779746D02*
X16608312Y-10809746D01*
X16608312Y-10779746D02*
X16578312Y-10809746D01*
X16787100Y-9998442D02*
X16817100Y-10028442D01*
X16817100Y-9998442D02*
X16787100Y-10028442D01*
X16850600Y-10399000D02*
X16880600Y-10429000D01*
X16880600Y-10399000D02*
X16850600Y-10429000D01*
X16850600Y-10526000D02*
X16880600Y-10556000D01*
X16880600Y-10526000D02*
X16850600Y-10556000D01*
X17003000Y-11999200D02*
X17033000Y-12029200D01*
X17033000Y-11999200D02*
X17003000Y-12029200D01*
X17171910Y-10751044D02*
X17201910Y-10781044D01*
X17201910Y-10751044D02*
X17171910Y-10781044D01*
X17211032Y-10824600D02*
X17241032Y-10854600D01*
X17241032Y-10824600D02*
X17211032Y-10854600D01*
X17278590Y-10874234D02*
X17308590Y-10904234D01*
X17308590Y-10874234D02*
X17278590Y-10904234D01*
X17442420Y-10018000D02*
X17472420Y-10048000D01*
X17472420Y-10018000D02*
X17442420Y-10048000D01*
X17587200Y-10399000D02*
X17617200Y-10429000D01*
X17617200Y-10399000D02*
X17587200Y-10429000D01*
X17587200Y-10526000D02*
X17617200Y-10556000D01*
X17617200Y-10526000D02*
X17587200Y-10556000D01*
X17703278Y-10512030D02*
X17733278Y-10542030D01*
X17733278Y-10512030D02*
X17703278Y-10542030D01*
X17726646Y-10653508D02*
X17756646Y-10683508D01*
X17756646Y-10653508D02*
X17726646Y-10683508D01*
X17831040Y-10658842D02*
X17861040Y-10688842D01*
X17861040Y-10658842D02*
X17831040Y-10688842D01*
X17877776Y-10780000D02*
X17907776Y-10810000D01*
X17907776Y-10780000D02*
X17877776Y-10810000D01*
X18171400Y-12024600D02*
X18201400Y-12054600D01*
X18201400Y-12024600D02*
X18171400Y-12054600D01*
X18222708Y-11421350D02*
X18252708Y-11451350D01*
X18252708Y-11421350D02*
X18222708Y-11451350D01*
X18247600Y-10399000D02*
X18277600Y-10429000D01*
X18277600Y-10399000D02*
X18247600Y-10429000D01*
X18247601Y-10526000D02*
X18277601Y-10556000D01*
X18277601Y-10526000D02*
X18247601Y-10556000D01*
X18400000Y-10018000D02*
X18430000Y-10048000D01*
X18430000Y-10018000D02*
X18400000Y-10048000D01*
X18400000Y-10780000D02*
X18430000Y-10810000D01*
X18430000Y-10780000D02*
X18400000Y-10810000D01*
X18984200Y-10399000D02*
X19014200Y-10429000D01*
X19014200Y-10399000D02*
X18984200Y-10429000D01*
X18984200Y-10526000D02*
X19014200Y-10556000D01*
X19014200Y-10526000D02*
X18984200Y-10556000D01*
X19543000Y-12024600D02*
X19573000Y-12054600D01*
X19573000Y-12024600D02*
X19543000Y-12054600D01*
X19644600Y-10399000D02*
X19674600Y-10429000D01*
X19674600Y-10399000D02*
X19644600Y-10429000D01*
X19644600Y-10526000D02*
X19674600Y-10556000D01*
X19674600Y-10526000D02*
X19644600Y-10556000D01*
X19670000Y-12024600D02*
X19700000Y-12054600D01*
X19700000Y-12024600D02*
X19670000Y-12054600D01*
X19797000Y-11415000D02*
X19827000Y-11445000D01*
X19827000Y-11415000D02*
X19797000Y-11445000D01*
X19962354Y-11940780D02*
X19992354Y-11970780D01*
X19992354Y-11940780D02*
X19962354Y-11970780D01*
X19977086Y-10015714D02*
X20007086Y-10045714D01*
X20007086Y-10015714D02*
X19977086Y-10045714D01*
X20014424Y-10731994D02*
X20044424Y-10761994D01*
X20044424Y-10731994D02*
X20014424Y-10761994D01*
X20017726Y-10837404D02*
X20047726Y-10867404D01*
X20047726Y-10837404D02*
X20017726Y-10867404D01*
X20019504Y-11883376D02*
X20049504Y-11913376D01*
X20049504Y-11883376D02*
X20019504Y-11913376D01*
X20057654Y-11550858D02*
X20087654Y-11580858D01*
X20087654Y-11550858D02*
X20057654Y-11580858D01*
X20074114Y-11743659D02*
X20104114Y-11773659D01*
X20104114Y-11743659D02*
X20074114Y-11773659D01*
X20139392Y-11553430D02*
X20169392Y-11583430D01*
X20169392Y-11553430D02*
X20139392Y-11583430D01*
X20236420Y-10018000D02*
X20266420Y-10048000D01*
X20266420Y-10018000D02*
X20236420Y-10048000D01*
X20236420Y-10145000D02*
X20266420Y-10175000D01*
X20266420Y-10145000D02*
X20236420Y-10175000D01*
X20236420Y-10907000D02*
X20266420Y-10937000D01*
X20266420Y-10907000D02*
X20236420Y-10937000D01*
X20267154Y-11567908D02*
X20297154Y-11597908D01*
X20297154Y-11567908D02*
X20267154Y-11597908D01*
X20381200Y-10399000D02*
X20411200Y-10429000D01*
X20411200Y-10399000D02*
X20381200Y-10429000D01*
X20381200Y-10526000D02*
X20411200Y-10556000D01*
X20411200Y-10526000D02*
X20381200Y-10556000D01*
X20400250Y-11577560D02*
X20430250Y-11607560D01*
X20430250Y-11577560D02*
X20400250Y-11607560D01*
X20423364Y-10271746D02*
X20453364Y-10301746D01*
X20453364Y-10271746D02*
X20423364Y-10301746D01*
X20480401Y-11748062D02*
X20510401Y-11778062D01*
X20510401Y-11748062D02*
X20480401Y-11778062D01*
X20489912Y-11831814D02*
X20519912Y-11861814D01*
X20519912Y-11831814D02*
X20489912Y-11861814D01*
X20527504Y-10279366D02*
X20557504Y-10309366D01*
X20557504Y-10279366D02*
X20527504Y-10309366D01*
X20566874Y-10145000D02*
X20596874Y-10175000D01*
X20596874Y-10145000D02*
X20566874Y-10175000D01*
X20608276Y-10543018D02*
X20638276Y-10573018D01*
X20638276Y-10543018D02*
X20608276Y-10573018D01*
X20620468Y-10671034D02*
X20650468Y-10701034D01*
X20650468Y-10671034D02*
X20620468Y-10701034D01*
X20675078Y-11572480D02*
X20705078Y-11602480D01*
X20705078Y-11572480D02*
X20675078Y-11602480D01*
X20677872Y-11762472D02*
X20707872Y-11792472D01*
X20707872Y-11762472D02*
X20677872Y-11792472D01*
X20681428Y-11662904D02*
X20711428Y-11692904D01*
X20711428Y-11662904D02*
X20681428Y-11692904D01*
X20686000Y-12024600D02*
X20716000Y-12054600D01*
X20716000Y-12024600D02*
X20686000Y-12054600D01*
X20802586Y-10779492D02*
X20832586Y-10809492D01*
X20832586Y-10779492D02*
X20802586Y-10809492D01*
X20821636Y-10467326D02*
X20851636Y-10497326D01*
X20851636Y-10467326D02*
X20821636Y-10497326D01*
X21041600Y-10394399D02*
X21071600Y-10424399D01*
X21071600Y-10394399D02*
X21041600Y-10424399D01*
X21041600Y-10526000D02*
X21071600Y-10556000D01*
X21071600Y-10526000D02*
X21041600Y-10556000D01*
X21194000Y-10018000D02*
X21224000Y-10048000D01*
X21224000Y-10018000D02*
X21194000Y-10048000D01*
X21194000Y-12024600D02*
X21224000Y-12054600D01*
X21224000Y-12024600D02*
X21194000Y-12054600D01*
X21473908Y-10460976D02*
X21503908Y-10490976D01*
X21503908Y-10460976D02*
X21473908Y-10490976D01*
X21575000Y-12024600D02*
X21605000Y-12054600D01*
X21605000Y-12024600D02*
X21575000Y-12054600D01*
X21633420Y-10018000D02*
X21663420Y-10048000D01*
X21663420Y-10018000D02*
X21633420Y-10048000D01*
X21727400Y-12024600D02*
X21757400Y-12054600D01*
X21757400Y-12024600D02*
X21727400Y-12054600D01*
X21736036Y-11683224D02*
X21766036Y-11713224D01*
X21766036Y-11683224D02*
X21736036Y-11713224D01*
X21778200Y-10399000D02*
X21808200Y-10429000D01*
X21808200Y-10399000D02*
X21778200Y-10429000D01*
X21778200Y-10526000D02*
X21808200Y-10556000D01*
X21808200Y-10526000D02*
X21778200Y-10556000D01*
X21841954Y-11565622D02*
X21871954Y-11595622D01*
X21871954Y-11565622D02*
X21841954Y-11595622D01*
X21843986Y-10030192D02*
X21873986Y-10060192D01*
X21873986Y-10030192D02*
X21843986Y-10060192D01*
X21956762Y-11563590D02*
X21986762Y-11593590D01*
X21986762Y-11563590D02*
X21956762Y-11593590D01*
X22210000Y-12024600D02*
X22240000Y-12054600D01*
X22240000Y-12024600D02*
X22210000Y-12054600D01*
X22253688Y-11552160D02*
X22283688Y-11582160D01*
X22283688Y-11552160D02*
X22253688Y-11582160D01*
X22336238Y-11776713D02*
X22366238Y-11806713D01*
X22366238Y-11776713D02*
X22336238Y-11806713D01*
X22337000Y-12024600D02*
X22367000Y-12054600D01*
X22367000Y-12024600D02*
X22337000Y-12054600D01*
X22378661Y-11847063D02*
X22408661Y-11877063D01*
X22408661Y-11847063D02*
X22378661Y-11877063D01*
X22419296Y-11552922D02*
X22449296Y-11582922D01*
X22449296Y-11552922D02*
X22419296Y-11582922D01*
X22438600Y-10399000D02*
X22468600Y-10429000D01*
X22468600Y-10399000D02*
X22438600Y-10429000D01*
X22438600Y-10526000D02*
X22468600Y-10556000D01*
X22468600Y-10526000D02*
X22438600Y-10556000D01*
X22442410Y-11912332D02*
X22472410Y-11942332D01*
X22472410Y-11912332D02*
X22442410Y-11942332D01*
X22456634Y-12019774D02*
X22486634Y-12049774D01*
X22486634Y-12019774D02*
X22456634Y-12049774D01*
X22512768Y-11620486D02*
X22542768Y-11650486D01*
X22542768Y-11620486D02*
X22512768Y-11650486D01*
X22666438Y-11982436D02*
X22696438Y-12012436D01*
X22696438Y-11982436D02*
X22666438Y-12012436D01*
X22780484Y-10353280D02*
X22810484Y-10383280D01*
X22810484Y-10353280D02*
X22780484Y-10383280D01*
X23029912Y-10600168D02*
X23059912Y-10630168D01*
X23059912Y-10600168D02*
X23029912Y-10630168D01*
X23048200Y-9999204D02*
X23078200Y-10029204D01*
X23078200Y-9999204D02*
X23048200Y-10029204D01*
X23124400Y-12024600D02*
X23154400Y-12054600D01*
X23154400Y-12024600D02*
X23124400Y-12054600D01*
X23152000Y-9724600D02*
X23182000Y-9754600D01*
X23182000Y-9724600D02*
X23152000Y-9754600D01*
X23152000Y-9850700D02*
X23182000Y-9880700D01*
X23182000Y-9850700D02*
X23152000Y-9880700D01*
X23152000Y-10334200D02*
X23182000Y-10364200D01*
X23182000Y-10334200D02*
X23152000Y-10364200D01*
X23202505Y-11137505D02*
X23232505Y-11167505D01*
X23232505Y-11137505D02*
X23202505Y-11167505D01*
X23251400Y-12024600D02*
X23281400Y-12054600D01*
X23281400Y-12024600D02*
X23251400Y-12054600D01*
X23264100Y-9827500D02*
X23294100Y-9857500D01*
X23294100Y-9827500D02*
X23264100Y-9857500D01*
X23293564Y-10752314D02*
X23323564Y-10782314D01*
X23323564Y-10752314D02*
X23293564Y-10782314D01*
X23480000Y-9510000D02*
X23510000Y-9540000D01*
X23510000Y-9510000D02*
X23480000Y-9540000D01*
X23480000Y-9637000D02*
X23510000Y-9667000D01*
X23510000Y-9637000D02*
X23480000Y-9667000D01*
X23480000Y-11034000D02*
X23510000Y-11064000D01*
X23510000Y-11034000D02*
X23480000Y-11064000D01*
X23632400Y-10399000D02*
X23662400Y-10429000D01*
X23662400Y-10399000D02*
X23632400Y-10429000D01*
X23632400Y-10526000D02*
X23662400Y-10556000D01*
X23662400Y-10526000D02*
X23632400Y-10556000D01*
X23688788Y-9971518D02*
X23718788Y-10001518D01*
X23718788Y-9971518D02*
X23688788Y-10001518D01*
X23761940Y-11199862D02*
X23791940Y-11229862D01*
X23791940Y-11199862D02*
X23761940Y-11229862D01*
X23904688Y-11288000D02*
X23934688Y-11318000D01*
X23934688Y-11288000D02*
X23904688Y-11318000D01*
X24013400Y-10907000D02*
X24043400Y-10937000D01*
X24043400Y-10907000D02*
X24013400Y-10937000D01*
X24100014Y-10902174D02*
X24130014Y-10932174D01*
X24130014Y-10902174D02*
X24100014Y-10932174D01*
X24235888Y-10971024D02*
X24265888Y-11001024D01*
X24265888Y-10971024D02*
X24235888Y-11001024D01*
X24247842Y-9879316D02*
X24277842Y-9909316D01*
X24277842Y-9879316D02*
X24247842Y-9909316D01*
X24249620Y-10790668D02*
X24279620Y-10820668D01*
X24279620Y-10790668D02*
X24249620Y-10820668D01*
X24251906Y-10084548D02*
X24281906Y-10114548D01*
X24281906Y-10084548D02*
X24251906Y-10114548D01*
X24260796Y-9963898D02*
X24290796Y-9993898D01*
X24290796Y-9963898D02*
X24260796Y-9993898D01*
X24267400Y-10399000D02*
X24297400Y-10429000D01*
X24297400Y-10399000D02*
X24267400Y-10429000D01*
X24267400Y-10526000D02*
X24297400Y-10556000D01*
X24297400Y-10526000D02*
X24267400Y-10556000D01*
X24437580Y-11034000D02*
X24467580Y-11064000D01*
X24467580Y-11034000D02*
X24437580Y-11064000D01*
X24437580Y-11161000D02*
X24467580Y-11191000D01*
X24467580Y-11161000D02*
X24437580Y-11191000D01*
X24437581Y-10017999D02*
X24467581Y-10047999D01*
X24467581Y-10017999D02*
X24437581Y-10047999D01*
X24445200Y-11415000D02*
X24475200Y-11445000D01*
X24475200Y-11415000D02*
X24445200Y-11445000D01*
D11*
X11685119Y-12926616D02*
X11685119Y-12726616D01*
X11732738Y-12726616D01*
X11761309Y-12736140D01*
X11780357Y-12755188D01*
X11789881Y-12774235D01*
X11799405Y-12812330D01*
X11799405Y-12840902D01*
X11789881Y-12878997D01*
X11780357Y-12898045D01*
X11761309Y-12917092D01*
X11732738Y-12926616D01*
X11685119Y-12926616D01*
X11885119Y-12926616D02*
X11885119Y-12793283D01*
X11885119Y-12831378D02*
X11894643Y-12812330D01*
X11904167Y-12802807D01*
X11923214Y-12793283D01*
X11942262Y-12793283D01*
X12008928Y-12926616D02*
X12008928Y-12793283D01*
X12008928Y-12726616D02*
X11999405Y-12736140D01*
X12008928Y-12745664D01*
X12018452Y-12736140D01*
X12008928Y-12726616D01*
X12008928Y-12745664D01*
X12132738Y-12926616D02*
X12113690Y-12917092D01*
X12104167Y-12898045D01*
X12104167Y-12726616D01*
X12237500Y-12926616D02*
X12218452Y-12917092D01*
X12208928Y-12898045D01*
X12208928Y-12726616D01*
X12466071Y-12926616D02*
X12466071Y-12726616D01*
X12532738Y-12869473D01*
X12599405Y-12726616D01*
X12599405Y-12926616D01*
X12780357Y-12926616D02*
X12780357Y-12821854D01*
X12770833Y-12802807D01*
X12751786Y-12793283D01*
X12713690Y-12793283D01*
X12694643Y-12802807D01*
X12780357Y-12917092D02*
X12761309Y-12926616D01*
X12713690Y-12926616D01*
X12694643Y-12917092D01*
X12685119Y-12898045D01*
X12685119Y-12878997D01*
X12694643Y-12859949D01*
X12713690Y-12850426D01*
X12761309Y-12850426D01*
X12780357Y-12840902D01*
X12875595Y-12793283D02*
X12875595Y-12993283D01*
X12875595Y-12802807D02*
X12894643Y-12793283D01*
X12932738Y-12793283D01*
X12951786Y-12802807D01*
X12961309Y-12812330D01*
X12970833Y-12831378D01*
X12970833Y-12888521D01*
X12961309Y-12907568D01*
X12951786Y-12917092D01*
X12932738Y-12926616D01*
X12894643Y-12926616D01*
X12875595Y-12917092D01*
X13056548Y-12907568D02*
X13066071Y-12917092D01*
X13056548Y-12926616D01*
X13047024Y-12917092D01*
X13056548Y-12907568D01*
X13056548Y-12926616D01*
X13056548Y-12802807D02*
X13066071Y-12812330D01*
X13056548Y-12821854D01*
X13047024Y-12812330D01*
X13056548Y-12802807D01*
X13056548Y-12821854D01*
D12*
X11397500Y-13241140D02*
X11427500Y-13271140D01*
X11427500Y-13241140D02*
X11397500Y-13271140D01*
D11*
X11723214Y-13146616D02*
X11742262Y-13146616D01*
X11761309Y-13156140D01*
X11770833Y-13165664D01*
X11780357Y-13184711D01*
X11789881Y-13222807D01*
X11789881Y-13270426D01*
X11780357Y-13308521D01*
X11770833Y-13327568D01*
X11761309Y-13337092D01*
X11742262Y-13346616D01*
X11723214Y-13346616D01*
X11704167Y-13337092D01*
X11694643Y-13327568D01*
X11685119Y-13308521D01*
X11675595Y-13270426D01*
X11675595Y-13222807D01*
X11685119Y-13184711D01*
X11694643Y-13165664D01*
X11704167Y-13156140D01*
X11723214Y-13146616D01*
X11875595Y-13327568D02*
X11885119Y-13337092D01*
X11875595Y-13346616D01*
X11866071Y-13337092D01*
X11875595Y-13327568D01*
X11875595Y-13346616D01*
X11951786Y-13146616D02*
X12075595Y-13146616D01*
X12008928Y-13222807D01*
X12037500Y-13222807D01*
X12056548Y-13232330D01*
X12066071Y-13241854D01*
X12075595Y-13260902D01*
X12075595Y-13308521D01*
X12066071Y-13327568D01*
X12056548Y-13337092D01*
X12037500Y-13346616D01*
X11980357Y-13346616D01*
X11961309Y-13337092D01*
X11951786Y-13327568D01*
X12199405Y-13146616D02*
X12218452Y-13146616D01*
X12237500Y-13156140D01*
X12247024Y-13165664D01*
X12256548Y-13184711D01*
X12266071Y-13222807D01*
X12266071Y-13270426D01*
X12256548Y-13308521D01*
X12247024Y-13327568D01*
X12237500Y-13337092D01*
X12218452Y-13346616D01*
X12199405Y-13346616D01*
X12180357Y-13337092D01*
X12170833Y-13327568D01*
X12161309Y-13308521D01*
X12151786Y-13270426D01*
X12151786Y-13222807D01*
X12161309Y-13184711D01*
X12170833Y-13165664D01*
X12180357Y-13156140D01*
X12199405Y-13146616D01*
X12389881Y-13146616D02*
X12408928Y-13146616D01*
X12427976Y-13156140D01*
X12437500Y-13165664D01*
X12447024Y-13184711D01*
X12456548Y-13222807D01*
X12456548Y-13270426D01*
X12447024Y-13308521D01*
X12437500Y-13327568D01*
X12427976Y-13337092D01*
X12408928Y-13346616D01*
X12389881Y-13346616D01*
X12370833Y-13337092D01*
X12361309Y-13327568D01*
X12351786Y-13308521D01*
X12342262Y-13270426D01*
X12342262Y-13222807D01*
X12351786Y-13184711D01*
X12361309Y-13165664D01*
X12370833Y-13156140D01*
X12389881Y-13146616D01*
X12542262Y-13346616D02*
X12542262Y-13213283D01*
X12542262Y-13232330D02*
X12551786Y-13222807D01*
X12570833Y-13213283D01*
X12599405Y-13213283D01*
X12618452Y-13222807D01*
X12627976Y-13241854D01*
X12627976Y-13346616D01*
X12627976Y-13241854D02*
X12637500Y-13222807D01*
X12656548Y-13213283D01*
X12685119Y-13213283D01*
X12704167Y-13222807D01*
X12713690Y-13241854D01*
X12713690Y-13346616D01*
X12808928Y-13346616D02*
X12808928Y-13213283D01*
X12808928Y-13232330D02*
X12818452Y-13222807D01*
X12837500Y-13213283D01*
X12866071Y-13213283D01*
X12885119Y-13222807D01*
X12894643Y-13241854D01*
X12894643Y-13346616D01*
X12894643Y-13241854D02*
X12904167Y-13222807D01*
X12923214Y-13213283D01*
X12951786Y-13213283D01*
X12970833Y-13222807D01*
X12980357Y-13241854D01*
X12980357Y-13346616D01*
X13370833Y-13137092D02*
X13199405Y-13394235D01*
X13627976Y-13146616D02*
X13647024Y-13146616D01*
X13666071Y-13156140D01*
X13675595Y-13165664D01*
X13685119Y-13184711D01*
X13694643Y-13222807D01*
X13694643Y-13270426D01*
X13685119Y-13308521D01*
X13675595Y-13327568D01*
X13666071Y-13337092D01*
X13647024Y-13346616D01*
X13627976Y-13346616D01*
X13608928Y-13337092D01*
X13599405Y-13327568D01*
X13589881Y-13308521D01*
X13580357Y-13270426D01*
X13580357Y-13222807D01*
X13589881Y-13184711D01*
X13599405Y-13165664D01*
X13608928Y-13156140D01*
X13627976Y-13146616D01*
X13780357Y-13327568D02*
X13789881Y-13337092D01*
X13780357Y-13346616D01*
X13770833Y-13337092D01*
X13780357Y-13327568D01*
X13780357Y-13346616D01*
X13913690Y-13146616D02*
X13932738Y-13146616D01*
X13951786Y-13156140D01*
X13961309Y-13165664D01*
X13970833Y-13184711D01*
X13980357Y-13222807D01*
X13980357Y-13270426D01*
X13970833Y-13308521D01*
X13961309Y-13327568D01*
X13951786Y-13337092D01*
X13932738Y-13346616D01*
X13913690Y-13346616D01*
X13894643Y-13337092D01*
X13885119Y-13327568D01*
X13875595Y-13308521D01*
X13866071Y-13270426D01*
X13866071Y-13222807D01*
X13875595Y-13184711D01*
X13885119Y-13165664D01*
X13894643Y-13156140D01*
X13913690Y-13146616D01*
X14170833Y-13346616D02*
X14056548Y-13346616D01*
X14113690Y-13346616D02*
X14113690Y-13146616D01*
X14094643Y-13175188D01*
X14075595Y-13194235D01*
X14056548Y-13203759D01*
X14361309Y-13346616D02*
X14247024Y-13346616D01*
X14304167Y-13346616D02*
X14304167Y-13146616D01*
X14285119Y-13175188D01*
X14266071Y-13194235D01*
X14247024Y-13203759D01*
X14475595Y-13232330D02*
X14456548Y-13222807D01*
X14447024Y-13213283D01*
X14437500Y-13194235D01*
X14437500Y-13184711D01*
X14447024Y-13165664D01*
X14456548Y-13156140D01*
X14475595Y-13146616D01*
X14513690Y-13146616D01*
X14532738Y-13156140D01*
X14542262Y-13165664D01*
X14551786Y-13184711D01*
X14551786Y-13194235D01*
X14542262Y-13213283D01*
X14532738Y-13222807D01*
X14513690Y-13232330D01*
X14475595Y-13232330D01*
X14456548Y-13241854D01*
X14447024Y-13251378D01*
X14437500Y-13270426D01*
X14437500Y-13308521D01*
X14447024Y-13327568D01*
X14456548Y-13337092D01*
X14475595Y-13346616D01*
X14513690Y-13346616D01*
X14532738Y-13337092D01*
X14542262Y-13327568D01*
X14551786Y-13308521D01*
X14551786Y-13270426D01*
X14542262Y-13251378D01*
X14532738Y-13241854D01*
X14513690Y-13232330D01*
X14627976Y-13146616D02*
X14627976Y-13184711D01*
X14704167Y-13146616D02*
X14704167Y-13184711D01*
X14999405Y-13422807D02*
X14989881Y-13413283D01*
X14970833Y-13384711D01*
X14961309Y-13365664D01*
X14951786Y-13337092D01*
X14942262Y-13289473D01*
X14942262Y-13251378D01*
X14951786Y-13203759D01*
X14961309Y-13175188D01*
X14970833Y-13156140D01*
X14989881Y-13127568D01*
X14999405Y-13118045D01*
X15180357Y-13346616D02*
X15066071Y-13346616D01*
X15123214Y-13346616D02*
X15123214Y-13146616D01*
X15104167Y-13175188D01*
X15085119Y-13194235D01*
X15066071Y-13203759D01*
X15351786Y-13146616D02*
X15313690Y-13146616D01*
X15294643Y-13156140D01*
X15285119Y-13165664D01*
X15266071Y-13194235D01*
X15256548Y-13232330D01*
X15256548Y-13308521D01*
X15266071Y-13327568D01*
X15275595Y-13337092D01*
X15294643Y-13346616D01*
X15332738Y-13346616D01*
X15351786Y-13337092D01*
X15361309Y-13327568D01*
X15370833Y-13308521D01*
X15370833Y-13260902D01*
X15361309Y-13241854D01*
X15351786Y-13232330D01*
X15332738Y-13222807D01*
X15294643Y-13222807D01*
X15275595Y-13232330D01*
X15266071Y-13241854D01*
X15256548Y-13260902D01*
X15542262Y-13213283D02*
X15542262Y-13346616D01*
X15494643Y-13137092D02*
X15447024Y-13279949D01*
X15570833Y-13279949D01*
X15799405Y-13346616D02*
X15799405Y-13146616D01*
X15885119Y-13346616D02*
X15885119Y-13241854D01*
X15875595Y-13222807D01*
X15856548Y-13213283D01*
X15827976Y-13213283D01*
X15808928Y-13222807D01*
X15799405Y-13232330D01*
X16008928Y-13346616D02*
X15989881Y-13337092D01*
X15980357Y-13327568D01*
X15970833Y-13308521D01*
X15970833Y-13251378D01*
X15980357Y-13232330D01*
X15989881Y-13222807D01*
X16008928Y-13213283D01*
X16037500Y-13213283D01*
X16056548Y-13222807D01*
X16066071Y-13232330D01*
X16075595Y-13251378D01*
X16075595Y-13308521D01*
X16066071Y-13327568D01*
X16056548Y-13337092D01*
X16037500Y-13346616D01*
X16008928Y-13346616D01*
X16189881Y-13346616D02*
X16170833Y-13337092D01*
X16161309Y-13318045D01*
X16161309Y-13146616D01*
X16342262Y-13337092D02*
X16323214Y-13346616D01*
X16285119Y-13346616D01*
X16266071Y-13337092D01*
X16256548Y-13318045D01*
X16256548Y-13241854D01*
X16266071Y-13222807D01*
X16285119Y-13213283D01*
X16323214Y-13213283D01*
X16342262Y-13222807D01*
X16351786Y-13241854D01*
X16351786Y-13260902D01*
X16256548Y-13279949D01*
X16427976Y-13337092D02*
X16447024Y-13346616D01*
X16485119Y-13346616D01*
X16504167Y-13337092D01*
X16513690Y-13318045D01*
X16513690Y-13308521D01*
X16504167Y-13289473D01*
X16485119Y-13279949D01*
X16456548Y-13279949D01*
X16437500Y-13270426D01*
X16427976Y-13251378D01*
X16427976Y-13241854D01*
X16437500Y-13222807D01*
X16456548Y-13213283D01*
X16485119Y-13213283D01*
X16504167Y-13222807D01*
X16580357Y-13422807D02*
X16589881Y-13413283D01*
X16608928Y-13384711D01*
X16618452Y-13365664D01*
X16627976Y-13337092D01*
X16637500Y-13289473D01*
X16637500Y-13251378D01*
X16627976Y-13203759D01*
X16618452Y-13175188D01*
X16608928Y-13156140D01*
X16589881Y-13127568D01*
X16580357Y-13118045D01*
M02*
