G04 #@! TF.GenerationSoftware,KiCad,Pcbnew,(6.0.0)*
G04 #@! TF.CreationDate,2022-01-26T20:37:23-08:00*
G04 #@! TF.ProjectId,M919_cache,4d393139-5f63-4616-9368-652e6b696361,rev?*
G04 #@! TF.SameCoordinates,Original*
G04 #@! TF.FileFunction,Legend,Top*
G04 #@! TF.FilePolarity,Positive*
%FSLAX46Y46*%
G04 Gerber Fmt 4.6, Leading zero omitted, Abs format (unit mm)*
G04 Created by KiCad (PCBNEW (6.0.0)) date 2022-01-26 20:37:23*
%MOMM*%
%LPD*%
G01*
G04 APERTURE LIST*
G04 Aperture macros list*
%AMRoundRect*
0 Rectangle with rounded corners*
0 $1 Rounding radius*
0 $2 $3 $4 $5 $6 $7 $8 $9 X,Y pos of 4 corners*
0 Add a 4 corners polygon primitive as box body*
4,1,4,$2,$3,$4,$5,$6,$7,$8,$9,$2,$3,0*
0 Add four circle primitives for the rounded corners*
1,1,$1+$1,$2,$3*
1,1,$1+$1,$4,$5*
1,1,$1+$1,$6,$7*
1,1,$1+$1,$8,$9*
0 Add four rect primitives between the rounded corners*
20,1,$1+$1,$2,$3,$4,$5,0*
20,1,$1+$1,$4,$5,$6,$7,0*
20,1,$1+$1,$6,$7,$8,$9,0*
20,1,$1+$1,$8,$9,$2,$3,0*%
G04 Aperture macros list end*
%ADD10C,0.150000*%
%ADD11C,0.120000*%
%ADD12C,0.100000*%
%ADD13RoundRect,0.050000X0.400000X0.250000X-0.400000X0.250000X-0.400000X-0.250000X0.400000X-0.250000X0*%
%ADD14RoundRect,0.050000X0.400000X0.200000X-0.400000X0.200000X-0.400000X-0.200000X0.400000X-0.200000X0*%
%ADD15RoundRect,0.050000X-1.079500X-0.254000X1.079500X-0.254000X1.079500X0.254000X-1.079500X0.254000X0*%
G04 APERTURE END LIST*
D10*
X230103333Y-112402380D02*
X229770000Y-111926190D01*
X229531904Y-112402380D02*
X229531904Y-111402380D01*
X229912857Y-111402380D01*
X230008095Y-111450000D01*
X230055714Y-111497619D01*
X230103333Y-111592857D01*
X230103333Y-111735714D01*
X230055714Y-111830952D01*
X230008095Y-111878571D01*
X229912857Y-111926190D01*
X229531904Y-111926190D01*
X230865238Y-111878571D02*
X231008095Y-111926190D01*
X231055714Y-111973809D01*
X231103333Y-112069047D01*
X231103333Y-112211904D01*
X231055714Y-112307142D01*
X231008095Y-112354761D01*
X230912857Y-112402380D01*
X230531904Y-112402380D01*
X230531904Y-111402380D01*
X230865238Y-111402380D01*
X230960476Y-111450000D01*
X231008095Y-111497619D01*
X231055714Y-111592857D01*
X231055714Y-111688095D01*
X231008095Y-111783333D01*
X230960476Y-111830952D01*
X230865238Y-111878571D01*
X230531904Y-111878571D01*
X231484285Y-111497619D02*
X231531904Y-111450000D01*
X231627142Y-111402380D01*
X231865238Y-111402380D01*
X231960476Y-111450000D01*
X232008095Y-111497619D01*
X232055714Y-111592857D01*
X232055714Y-111688095D01*
X232008095Y-111830952D01*
X231436666Y-112402380D01*
X232055714Y-112402380D01*
X122745595Y-92987880D02*
X122745595Y-93797404D01*
X122793214Y-93892642D01*
X122840833Y-93940261D01*
X122936071Y-93987880D01*
X123126547Y-93987880D01*
X123221785Y-93940261D01*
X123269404Y-93892642D01*
X123317023Y-93797404D01*
X123317023Y-92987880D01*
X124317023Y-93987880D02*
X123745595Y-93987880D01*
X124031309Y-93987880D02*
X124031309Y-92987880D01*
X123936071Y-93130738D01*
X123840833Y-93225976D01*
X123745595Y-93273595D01*
X136715595Y-92987880D02*
X136715595Y-93797404D01*
X136763214Y-93892642D01*
X136810833Y-93940261D01*
X136906071Y-93987880D01*
X137096547Y-93987880D01*
X137191785Y-93940261D01*
X137239404Y-93892642D01*
X137287023Y-93797404D01*
X137287023Y-92987880D01*
X137715595Y-93083119D02*
X137763214Y-93035500D01*
X137858452Y-92987880D01*
X138096547Y-92987880D01*
X138191785Y-93035500D01*
X138239404Y-93083119D01*
X138287023Y-93178357D01*
X138287023Y-93273595D01*
X138239404Y-93416452D01*
X137667976Y-93987880D01*
X138287023Y-93987880D01*
X150685595Y-92987880D02*
X150685595Y-93797404D01*
X150733214Y-93892642D01*
X150780833Y-93940261D01*
X150876071Y-93987880D01*
X151066547Y-93987880D01*
X151161785Y-93940261D01*
X151209404Y-93892642D01*
X151257023Y-93797404D01*
X151257023Y-92987880D01*
X151637976Y-92987880D02*
X152257023Y-92987880D01*
X151923690Y-93368833D01*
X152066547Y-93368833D01*
X152161785Y-93416452D01*
X152209404Y-93464071D01*
X152257023Y-93559309D01*
X152257023Y-93797404D01*
X152209404Y-93892642D01*
X152161785Y-93940261D01*
X152066547Y-93987880D01*
X151780833Y-93987880D01*
X151685595Y-93940261D01*
X151637976Y-93892642D01*
X164655595Y-92987880D02*
X164655595Y-93797404D01*
X164703214Y-93892642D01*
X164750833Y-93940261D01*
X164846071Y-93987880D01*
X165036547Y-93987880D01*
X165131785Y-93940261D01*
X165179404Y-93892642D01*
X165227023Y-93797404D01*
X165227023Y-92987880D01*
X166131785Y-93321214D02*
X166131785Y-93987880D01*
X165893690Y-92940261D02*
X165655595Y-93654547D01*
X166274642Y-93654547D01*
X178625595Y-92987880D02*
X178625595Y-93797404D01*
X178673214Y-93892642D01*
X178720833Y-93940261D01*
X178816071Y-93987880D01*
X179006547Y-93987880D01*
X179101785Y-93940261D01*
X179149404Y-93892642D01*
X179197023Y-93797404D01*
X179197023Y-92987880D01*
X180149404Y-92987880D02*
X179673214Y-92987880D01*
X179625595Y-93464071D01*
X179673214Y-93416452D01*
X179768452Y-93368833D01*
X180006547Y-93368833D01*
X180101785Y-93416452D01*
X180149404Y-93464071D01*
X180197023Y-93559309D01*
X180197023Y-93797404D01*
X180149404Y-93892642D01*
X180101785Y-93940261D01*
X180006547Y-93987880D01*
X179768452Y-93987880D01*
X179673214Y-93940261D01*
X179625595Y-93892642D01*
X206565595Y-92987880D02*
X206565595Y-93797404D01*
X206613214Y-93892642D01*
X206660833Y-93940261D01*
X206756071Y-93987880D01*
X206946547Y-93987880D01*
X207041785Y-93940261D01*
X207089404Y-93892642D01*
X207137023Y-93797404D01*
X207137023Y-92987880D01*
X207517976Y-92987880D02*
X208184642Y-92987880D01*
X207756071Y-93987880D01*
X220535595Y-92987880D02*
X220535595Y-93797404D01*
X220583214Y-93892642D01*
X220630833Y-93940261D01*
X220726071Y-93987880D01*
X220916547Y-93987880D01*
X221011785Y-93940261D01*
X221059404Y-93892642D01*
X221107023Y-93797404D01*
X221107023Y-92987880D01*
X221726071Y-93416452D02*
X221630833Y-93368833D01*
X221583214Y-93321214D01*
X221535595Y-93225976D01*
X221535595Y-93178357D01*
X221583214Y-93083119D01*
X221630833Y-93035500D01*
X221726071Y-92987880D01*
X221916547Y-92987880D01*
X222011785Y-93035500D01*
X222059404Y-93083119D01*
X222107023Y-93178357D01*
X222107023Y-93225976D01*
X222059404Y-93321214D01*
X222011785Y-93368833D01*
X221916547Y-93416452D01*
X221726071Y-93416452D01*
X221630833Y-93464071D01*
X221583214Y-93511690D01*
X221535595Y-93606928D01*
X221535595Y-93797404D01*
X221583214Y-93892642D01*
X221630833Y-93940261D01*
X221726071Y-93987880D01*
X221916547Y-93987880D01*
X222011785Y-93940261D01*
X222059404Y-93892642D01*
X222107023Y-93797404D01*
X222107023Y-93606928D01*
X222059404Y-93511690D01*
X222011785Y-93464071D01*
X221916547Y-93416452D01*
X239001395Y-92987880D02*
X239001395Y-93797404D01*
X239049014Y-93892642D01*
X239096633Y-93940261D01*
X239191871Y-93987880D01*
X239382347Y-93987880D01*
X239477585Y-93940261D01*
X239525204Y-93892642D01*
X239572823Y-93797404D01*
X239572823Y-92987880D01*
X240096633Y-93987880D02*
X240287109Y-93987880D01*
X240382347Y-93940261D01*
X240429966Y-93892642D01*
X240525204Y-93749785D01*
X240572823Y-93559309D01*
X240572823Y-93178357D01*
X240525204Y-93083119D01*
X240477585Y-93035500D01*
X240382347Y-92987880D01*
X240191871Y-92987880D01*
X240096633Y-93035500D01*
X240049014Y-93083119D01*
X240001395Y-93178357D01*
X240001395Y-93416452D01*
X240049014Y-93511690D01*
X240096633Y-93559309D01*
X240191871Y-93606928D01*
X240382347Y-93606928D01*
X240477585Y-93559309D01*
X240525204Y-93511690D01*
X240572823Y-93416452D01*
X192595595Y-92987880D02*
X192595595Y-93797404D01*
X192643214Y-93892642D01*
X192690833Y-93940261D01*
X192786071Y-93987880D01*
X192976547Y-93987880D01*
X193071785Y-93940261D01*
X193119404Y-93892642D01*
X193167023Y-93797404D01*
X193167023Y-92987880D01*
X194071785Y-92987880D02*
X193881309Y-92987880D01*
X193786071Y-93035500D01*
X193738452Y-93083119D01*
X193643214Y-93225976D01*
X193595595Y-93416452D01*
X193595595Y-93797404D01*
X193643214Y-93892642D01*
X193690833Y-93940261D01*
X193786071Y-93987880D01*
X193976547Y-93987880D01*
X194071785Y-93940261D01*
X194119404Y-93892642D01*
X194167023Y-93797404D01*
X194167023Y-93559309D01*
X194119404Y-93464071D01*
X194071785Y-93416452D01*
X193976547Y-93368833D01*
X193786071Y-93368833D01*
X193690833Y-93416452D01*
X193643214Y-93464071D01*
X193595595Y-93559309D01*
X230103333Y-105544380D02*
X229770000Y-105068190D01*
X229531904Y-105544380D02*
X229531904Y-104544380D01*
X229912857Y-104544380D01*
X230008095Y-104592000D01*
X230055714Y-104639619D01*
X230103333Y-104734857D01*
X230103333Y-104877714D01*
X230055714Y-104972952D01*
X230008095Y-105020571D01*
X229912857Y-105068190D01*
X229531904Y-105068190D01*
X230865238Y-105020571D02*
X231008095Y-105068190D01*
X231055714Y-105115809D01*
X231103333Y-105211047D01*
X231103333Y-105353904D01*
X231055714Y-105449142D01*
X231008095Y-105496761D01*
X230912857Y-105544380D01*
X230531904Y-105544380D01*
X230531904Y-104544380D01*
X230865238Y-104544380D01*
X230960476Y-104592000D01*
X231008095Y-104639619D01*
X231055714Y-104734857D01*
X231055714Y-104830095D01*
X231008095Y-104925333D01*
X230960476Y-104972952D01*
X230865238Y-105020571D01*
X230531904Y-105020571D01*
X231436666Y-104544380D02*
X232055714Y-104544380D01*
X231722380Y-104925333D01*
X231865238Y-104925333D01*
X231960476Y-104972952D01*
X232008095Y-105020571D01*
X232055714Y-105115809D01*
X232055714Y-105353904D01*
X232008095Y-105449142D01*
X231960476Y-105496761D01*
X231865238Y-105544380D01*
X231579523Y-105544380D01*
X231484285Y-105496761D01*
X231436666Y-105449142D01*
X230103333Y-117952380D02*
X229770000Y-117476190D01*
X229531904Y-117952380D02*
X229531904Y-116952380D01*
X229912857Y-116952380D01*
X230008095Y-117000000D01*
X230055714Y-117047619D01*
X230103333Y-117142857D01*
X230103333Y-117285714D01*
X230055714Y-117380952D01*
X230008095Y-117428571D01*
X229912857Y-117476190D01*
X229531904Y-117476190D01*
X230865238Y-117428571D02*
X231008095Y-117476190D01*
X231055714Y-117523809D01*
X231103333Y-117619047D01*
X231103333Y-117761904D01*
X231055714Y-117857142D01*
X231008095Y-117904761D01*
X230912857Y-117952380D01*
X230531904Y-117952380D01*
X230531904Y-116952380D01*
X230865238Y-116952380D01*
X230960476Y-117000000D01*
X231008095Y-117047619D01*
X231055714Y-117142857D01*
X231055714Y-117238095D01*
X231008095Y-117333333D01*
X230960476Y-117380952D01*
X230865238Y-117428571D01*
X230531904Y-117428571D01*
X231960476Y-117285714D02*
X231960476Y-117952380D01*
X231722380Y-116904761D02*
X231484285Y-117619047D01*
X232103333Y-117619047D01*
X230103333Y-99448380D02*
X229770000Y-98972190D01*
X229531904Y-99448380D02*
X229531904Y-98448380D01*
X229912857Y-98448380D01*
X230008095Y-98496000D01*
X230055714Y-98543619D01*
X230103333Y-98638857D01*
X230103333Y-98781714D01*
X230055714Y-98876952D01*
X230008095Y-98924571D01*
X229912857Y-98972190D01*
X229531904Y-98972190D01*
X230865238Y-98924571D02*
X231008095Y-98972190D01*
X231055714Y-99019809D01*
X231103333Y-99115047D01*
X231103333Y-99257904D01*
X231055714Y-99353142D01*
X231008095Y-99400761D01*
X230912857Y-99448380D01*
X230531904Y-99448380D01*
X230531904Y-98448380D01*
X230865238Y-98448380D01*
X230960476Y-98496000D01*
X231008095Y-98543619D01*
X231055714Y-98638857D01*
X231055714Y-98734095D01*
X231008095Y-98829333D01*
X230960476Y-98876952D01*
X230865238Y-98924571D01*
X230531904Y-98924571D01*
X232055714Y-99448380D02*
X231484285Y-99448380D01*
X231770000Y-99448380D02*
X231770000Y-98448380D01*
X231674761Y-98591238D01*
X231579523Y-98686476D01*
X231484285Y-98734095D01*
D11*
X230270000Y-107470000D02*
X231270000Y-107470000D01*
X230270000Y-110830000D02*
X231270000Y-110830000D01*
X118427500Y-115252500D02*
X118427500Y-114935000D01*
X128587500Y-115252500D02*
X128587500Y-114935000D01*
X118427500Y-94297500D02*
X118427500Y-94615000D01*
X118427500Y-115252500D02*
X128587500Y-115252500D01*
X128587500Y-94297500D02*
X128587500Y-94615000D01*
X118427500Y-94297500D02*
X128587500Y-94297500D01*
X122555000Y-94297500D02*
G75*
G03*
X124460000Y-94297500I952500J0D01*
G01*
X132397500Y-115252500D02*
X142557500Y-115252500D01*
X142557500Y-94297500D02*
X142557500Y-94615000D01*
X132397500Y-94297500D02*
X142557500Y-94297500D01*
X132397500Y-94297500D02*
X132397500Y-94615000D01*
X132397500Y-115252500D02*
X132397500Y-114935000D01*
X142557500Y-115252500D02*
X142557500Y-114935000D01*
X136525000Y-94297500D02*
G75*
G03*
X138430000Y-94297500I952500J0D01*
G01*
X156527500Y-115252500D02*
X156527500Y-114935000D01*
X146367500Y-94297500D02*
X156527500Y-94297500D01*
X146367500Y-115252500D02*
X156527500Y-115252500D01*
X146367500Y-94297500D02*
X146367500Y-94615000D01*
X156527500Y-94297500D02*
X156527500Y-94615000D01*
X146367500Y-115252500D02*
X146367500Y-114935000D01*
X150495000Y-94297500D02*
G75*
G03*
X152400000Y-94297500I952500J0D01*
G01*
X160337500Y-94297500D02*
X160337500Y-94615000D01*
X170497500Y-115252500D02*
X170497500Y-114935000D01*
X160337500Y-94297500D02*
X170497500Y-94297500D01*
X170497500Y-94297500D02*
X170497500Y-94615000D01*
X160337500Y-115252500D02*
X160337500Y-114935000D01*
X160337500Y-115252500D02*
X170497500Y-115252500D01*
X164465000Y-94297500D02*
G75*
G03*
X166370000Y-94297500I952500J0D01*
G01*
X184467500Y-94297500D02*
X184467500Y-94615000D01*
X184467500Y-115252500D02*
X184467500Y-114935000D01*
X174307500Y-115252500D02*
X184467500Y-115252500D01*
X174307500Y-94297500D02*
X184467500Y-94297500D01*
X174307500Y-94297500D02*
X174307500Y-94615000D01*
X174307500Y-115252500D02*
X174307500Y-114935000D01*
X178435000Y-94297500D02*
G75*
G03*
X180340000Y-94297500I952500J0D01*
G01*
X212407500Y-94297500D02*
X212407500Y-94615000D01*
X212407500Y-115252500D02*
X212407500Y-114935000D01*
X202247500Y-115252500D02*
X212407500Y-115252500D01*
X202247500Y-94297500D02*
X202247500Y-94615000D01*
X202247500Y-115252500D02*
X202247500Y-114935000D01*
X202247500Y-94297500D02*
X212407500Y-94297500D01*
X206375000Y-94297500D02*
G75*
G03*
X208280000Y-94297500I952500J0D01*
G01*
X216217500Y-94297500D02*
X216217500Y-94615000D01*
X226377500Y-115252500D02*
X226377500Y-114935000D01*
X216217500Y-94297500D02*
X226377500Y-94297500D01*
X216217500Y-115252500D02*
X226377500Y-115252500D01*
X226377500Y-94297500D02*
X226377500Y-94615000D01*
X216217500Y-115252500D02*
X216217500Y-114935000D01*
X220345000Y-94297500D02*
G75*
G03*
X222250000Y-94297500I952500J0D01*
G01*
X234683300Y-115252500D02*
X234683300Y-114935000D01*
X234683300Y-94297500D02*
X244843300Y-94297500D01*
X244843300Y-94297500D02*
X244843300Y-94615000D01*
X234683300Y-94297500D02*
X234683300Y-94615000D01*
X244843300Y-115252500D02*
X244843300Y-114935000D01*
X234683300Y-115252500D02*
X244843300Y-115252500D01*
X238810800Y-94297500D02*
G75*
G03*
X240715800Y-94297500I952500J0D01*
G01*
X188277500Y-115252500D02*
X188277500Y-114935000D01*
X188277500Y-94297500D02*
X198437500Y-94297500D01*
X188277500Y-115252500D02*
X198437500Y-115252500D01*
X198437500Y-94297500D02*
X198437500Y-94615000D01*
X198437500Y-115252500D02*
X198437500Y-114935000D01*
X188277500Y-94297500D02*
X188277500Y-94615000D01*
X192405000Y-94297500D02*
G75*
G03*
X194310000Y-94297500I952500J0D01*
G01*
X230270000Y-100612000D02*
X231270000Y-100612000D01*
X230270000Y-103972000D02*
X231270000Y-103972000D01*
X230270000Y-113020000D02*
X231270000Y-113020000D01*
X230270000Y-116380000D02*
X231270000Y-116380000D01*
X230270000Y-94516000D02*
X231270000Y-94516000D01*
X230270000Y-97876000D02*
X231270000Y-97876000D01*
%LPC*%
D12*
X233521000Y-126140000D02*
X128521000Y-126140000D01*
X128521000Y-126140000D02*
X128521000Y-121060000D01*
X128521000Y-121060000D02*
X233521000Y-121060000D01*
X233521000Y-121060000D02*
X233521000Y-126140000D01*
G36*
X233521000Y-126140000D02*
G01*
X128521000Y-126140000D01*
X128521000Y-121060000D01*
X233521000Y-121060000D01*
X233521000Y-126140000D01*
G37*
X233521000Y-126140000D02*
X128521000Y-126140000D01*
X128521000Y-121060000D01*
X233521000Y-121060000D01*
X233521000Y-126140000D01*
D13*
X231670000Y-110350000D03*
D14*
X231670000Y-109550000D03*
X231670000Y-108750000D03*
D13*
X231670000Y-107950000D03*
X229870000Y-107950000D03*
D14*
X229870000Y-108750000D03*
X229870000Y-109550000D03*
D13*
X229870000Y-110350000D03*
D15*
X118694200Y-95250000D03*
X118694200Y-96520000D03*
X118694200Y-97790000D03*
X118694200Y-99060000D03*
X118694200Y-100330000D03*
X118694200Y-101600000D03*
X118694200Y-102870000D03*
X118694200Y-104140000D03*
X118694200Y-105410000D03*
X118694200Y-106680000D03*
X118694200Y-107950000D03*
X118694200Y-109220000D03*
X118694200Y-110490000D03*
X118694200Y-111760000D03*
X118694200Y-113030000D03*
X118694200Y-114300000D03*
X128270000Y-114300000D03*
X128270000Y-113030000D03*
X128270000Y-111760000D03*
X128270000Y-110490000D03*
X128270000Y-109220000D03*
X128270000Y-107950000D03*
X128270000Y-106680000D03*
X128270000Y-105410000D03*
X128270000Y-104140000D03*
X128270000Y-102870000D03*
X128270000Y-101600000D03*
X128270000Y-100330000D03*
X128270000Y-99060000D03*
X128270000Y-97790000D03*
X128270000Y-96520000D03*
X128270000Y-95250000D03*
X132664200Y-95250000D03*
X132664200Y-96520000D03*
X132664200Y-97790000D03*
X132664200Y-99060000D03*
X132664200Y-100330000D03*
X132664200Y-101600000D03*
X132664200Y-102870000D03*
X132664200Y-104140000D03*
X132664200Y-105410000D03*
X132664200Y-106680000D03*
X132664200Y-107950000D03*
X132664200Y-109220000D03*
X132664200Y-110490000D03*
X132664200Y-111760000D03*
X132664200Y-113030000D03*
X132664200Y-114300000D03*
X142240000Y-114300000D03*
X142240000Y-113030000D03*
X142240000Y-111760000D03*
X142240000Y-110490000D03*
X142240000Y-109220000D03*
X142240000Y-107950000D03*
X142240000Y-106680000D03*
X142240000Y-105410000D03*
X142240000Y-104140000D03*
X142240000Y-102870000D03*
X142240000Y-101600000D03*
X142240000Y-100330000D03*
X142240000Y-99060000D03*
X142240000Y-97790000D03*
X142240000Y-96520000D03*
X142240000Y-95250000D03*
X146634200Y-95250000D03*
X146634200Y-96520000D03*
X146634200Y-97790000D03*
X146634200Y-99060000D03*
X146634200Y-100330000D03*
X146634200Y-101600000D03*
X146634200Y-102870000D03*
X146634200Y-104140000D03*
X146634200Y-105410000D03*
X146634200Y-106680000D03*
X146634200Y-107950000D03*
X146634200Y-109220000D03*
X146634200Y-110490000D03*
X146634200Y-111760000D03*
X146634200Y-113030000D03*
X146634200Y-114300000D03*
X156210000Y-114300000D03*
X156210000Y-113030000D03*
X156210000Y-111760000D03*
X156210000Y-110490000D03*
X156210000Y-109220000D03*
X156210000Y-107950000D03*
X156210000Y-106680000D03*
X156210000Y-105410000D03*
X156210000Y-104140000D03*
X156210000Y-102870000D03*
X156210000Y-101600000D03*
X156210000Y-100330000D03*
X156210000Y-99060000D03*
X156210000Y-97790000D03*
X156210000Y-96520000D03*
X156210000Y-95250000D03*
X160604200Y-95250000D03*
X160604200Y-96520000D03*
X160604200Y-97790000D03*
X160604200Y-99060000D03*
X160604200Y-100330000D03*
X160604200Y-101600000D03*
X160604200Y-102870000D03*
X160604200Y-104140000D03*
X160604200Y-105410000D03*
X160604200Y-106680000D03*
X160604200Y-107950000D03*
X160604200Y-109220000D03*
X160604200Y-110490000D03*
X160604200Y-111760000D03*
X160604200Y-113030000D03*
X160604200Y-114300000D03*
X170180000Y-114300000D03*
X170180000Y-113030000D03*
X170180000Y-111760000D03*
X170180000Y-110490000D03*
X170180000Y-109220000D03*
X170180000Y-107950000D03*
X170180000Y-106680000D03*
X170180000Y-105410000D03*
X170180000Y-104140000D03*
X170180000Y-102870000D03*
X170180000Y-101600000D03*
X170180000Y-100330000D03*
X170180000Y-99060000D03*
X170180000Y-97790000D03*
X170180000Y-96520000D03*
X170180000Y-95250000D03*
X174574200Y-95250000D03*
X174574200Y-96520000D03*
X174574200Y-97790000D03*
X174574200Y-99060000D03*
X174574200Y-100330000D03*
X174574200Y-101600000D03*
X174574200Y-102870000D03*
X174574200Y-104140000D03*
X174574200Y-105410000D03*
X174574200Y-106680000D03*
X174574200Y-107950000D03*
X174574200Y-109220000D03*
X174574200Y-110490000D03*
X174574200Y-111760000D03*
X174574200Y-113030000D03*
X174574200Y-114300000D03*
X184150000Y-114300000D03*
X184150000Y-113030000D03*
X184150000Y-111760000D03*
X184150000Y-110490000D03*
X184150000Y-109220000D03*
X184150000Y-107950000D03*
X184150000Y-106680000D03*
X184150000Y-105410000D03*
X184150000Y-104140000D03*
X184150000Y-102870000D03*
X184150000Y-101600000D03*
X184150000Y-100330000D03*
X184150000Y-99060000D03*
X184150000Y-97790000D03*
X184150000Y-96520000D03*
X184150000Y-95250000D03*
X202514200Y-95250000D03*
X202514200Y-96520000D03*
X202514200Y-97790000D03*
X202514200Y-99060000D03*
X202514200Y-100330000D03*
X202514200Y-101600000D03*
X202514200Y-102870000D03*
X202514200Y-104140000D03*
X202514200Y-105410000D03*
X202514200Y-106680000D03*
X202514200Y-107950000D03*
X202514200Y-109220000D03*
X202514200Y-110490000D03*
X202514200Y-111760000D03*
X202514200Y-113030000D03*
X202514200Y-114300000D03*
X212090000Y-114300000D03*
X212090000Y-113030000D03*
X212090000Y-111760000D03*
X212090000Y-110490000D03*
X212090000Y-109220000D03*
X212090000Y-107950000D03*
X212090000Y-106680000D03*
X212090000Y-105410000D03*
X212090000Y-104140000D03*
X212090000Y-102870000D03*
X212090000Y-101600000D03*
X212090000Y-100330000D03*
X212090000Y-99060000D03*
X212090000Y-97790000D03*
X212090000Y-96520000D03*
X212090000Y-95250000D03*
X216484200Y-95250000D03*
X216484200Y-96520000D03*
X216484200Y-97790000D03*
X216484200Y-99060000D03*
X216484200Y-100330000D03*
X216484200Y-101600000D03*
X216484200Y-102870000D03*
X216484200Y-104140000D03*
X216484200Y-105410000D03*
X216484200Y-106680000D03*
X216484200Y-107950000D03*
X216484200Y-109220000D03*
X216484200Y-110490000D03*
X216484200Y-111760000D03*
X216484200Y-113030000D03*
X216484200Y-114300000D03*
X226060000Y-114300000D03*
X226060000Y-113030000D03*
X226060000Y-111760000D03*
X226060000Y-110490000D03*
X226060000Y-109220000D03*
X226060000Y-107950000D03*
X226060000Y-106680000D03*
X226060000Y-105410000D03*
X226060000Y-104140000D03*
X226060000Y-102870000D03*
X226060000Y-101600000D03*
X226060000Y-100330000D03*
X226060000Y-99060000D03*
X226060000Y-97790000D03*
X226060000Y-96520000D03*
X226060000Y-95250000D03*
X234950000Y-95250000D03*
X234950000Y-96520000D03*
X234950000Y-97790000D03*
X234950000Y-99060000D03*
X234950000Y-100330000D03*
X234950000Y-101600000D03*
X234950000Y-102870000D03*
X234950000Y-104140000D03*
X234950000Y-105410000D03*
X234950000Y-106680000D03*
X234950000Y-107950000D03*
X234950000Y-109220000D03*
X234950000Y-110490000D03*
X234950000Y-111760000D03*
X234950000Y-113030000D03*
X234950000Y-114300000D03*
X244525800Y-114300000D03*
X244525800Y-113030000D03*
X244525800Y-111760000D03*
X244525800Y-110490000D03*
X244525800Y-109220000D03*
X244525800Y-107950000D03*
X244525800Y-106680000D03*
X244525800Y-105410000D03*
X244525800Y-104140000D03*
X244525800Y-102870000D03*
X244525800Y-101600000D03*
X244525800Y-100330000D03*
X244525800Y-99060000D03*
X244525800Y-97790000D03*
X244525800Y-96520000D03*
X244525800Y-95250000D03*
X188544200Y-95250000D03*
X188544200Y-96520000D03*
X188544200Y-97790000D03*
X188544200Y-99060000D03*
X188544200Y-100330000D03*
X188544200Y-101600000D03*
X188544200Y-102870000D03*
X188544200Y-104140000D03*
X188544200Y-105410000D03*
X188544200Y-106680000D03*
X188544200Y-107950000D03*
X188544200Y-109220000D03*
X188544200Y-110490000D03*
X188544200Y-111760000D03*
X188544200Y-113030000D03*
X188544200Y-114300000D03*
X198120000Y-114300000D03*
X198120000Y-113030000D03*
X198120000Y-111760000D03*
X198120000Y-110490000D03*
X198120000Y-109220000D03*
X198120000Y-107950000D03*
X198120000Y-106680000D03*
X198120000Y-105410000D03*
X198120000Y-104140000D03*
X198120000Y-102870000D03*
X198120000Y-101600000D03*
X198120000Y-100330000D03*
X198120000Y-99060000D03*
X198120000Y-97790000D03*
X198120000Y-96520000D03*
X198120000Y-95250000D03*
D13*
X231670000Y-103492000D03*
D14*
X231670000Y-102692000D03*
X231670000Y-101892000D03*
D13*
X231670000Y-101092000D03*
X229870000Y-101092000D03*
D14*
X229870000Y-101892000D03*
X229870000Y-102692000D03*
D13*
X229870000Y-103492000D03*
X231670000Y-115900000D03*
D14*
X231670000Y-115100000D03*
X231670000Y-114300000D03*
D13*
X231670000Y-113500000D03*
X229870000Y-113500000D03*
D14*
X229870000Y-114300000D03*
X229870000Y-115100000D03*
D13*
X229870000Y-115900000D03*
X231670000Y-97396000D03*
D14*
X231670000Y-96596000D03*
X231670000Y-95796000D03*
D13*
X231670000Y-94996000D03*
X229870000Y-94996000D03*
D14*
X229870000Y-95796000D03*
X229870000Y-96596000D03*
D13*
X229870000Y-97396000D03*
M02*
