G04 #@! TF.GenerationSoftware,KiCad,Pcbnew,(6.0.0)*
G04 #@! TF.CreationDate,2022-01-26T20:37:23-08:00*
G04 #@! TF.ProjectId,M919_cache,4d393139-5f63-4616-9368-652e6b696361,rev?*
G04 #@! TF.SameCoordinates,Original*
G04 #@! TF.FileFunction,Legend,Bot*
G04 #@! TF.FilePolarity,Positive*
%FSLAX46Y46*%
G04 Gerber Fmt 4.6, Leading zero omitted, Abs format (unit mm)*
G04 Created by KiCad (PCBNEW (6.0.0)) date 2022-01-26 20:37:23*
%MOMM*%
%LPD*%
G01*
G04 APERTURE LIST*
G04 Aperture macros list*
%AMRoundRect*
0 Rectangle with rounded corners*
0 $1 Rounding radius*
0 $2 $3 $4 $5 $6 $7 $8 $9 X,Y pos of 4 corners*
0 Add a 4 corners polygon primitive as box body*
4,1,4,$2,$3,$4,$5,$6,$7,$8,$9,$2,$3,0*
0 Add four circle primitives for the rounded corners*
1,1,$1+$1,$2,$3*
1,1,$1+$1,$4,$5*
1,1,$1+$1,$6,$7*
1,1,$1+$1,$8,$9*
0 Add four rect primitives between the rounded corners*
20,1,$1+$1,$2,$3,$4,$5,0*
20,1,$1+$1,$4,$5,$6,$7,0*
20,1,$1+$1,$6,$7,$8,$9,0*
20,1,$1+$1,$8,$9,$2,$3,0*%
G04 Aperture macros list end*
%ADD10C,0.150000*%
%ADD11C,0.120000*%
%ADD12C,0.100000*%
%ADD13RoundRect,0.268750X-0.256250X0.218750X-0.256250X-0.218750X0.256250X-0.218750X0.256250X0.218750X0*%
%ADD14RoundRect,0.268750X0.256250X-0.218750X0.256250X0.218750X-0.256250X0.218750X-0.256250X-0.218750X0*%
G04 APERTURE END LIST*
D10*
X119229142Y-102195333D02*
X119276761Y-102147714D01*
X119324380Y-102004857D01*
X119324380Y-101909619D01*
X119276761Y-101766761D01*
X119181523Y-101671523D01*
X119086285Y-101623904D01*
X118895809Y-101576285D01*
X118752952Y-101576285D01*
X118562476Y-101623904D01*
X118467238Y-101671523D01*
X118372000Y-101766761D01*
X118324380Y-101909619D01*
X118324380Y-102004857D01*
X118372000Y-102147714D01*
X118419619Y-102195333D01*
X119324380Y-103147714D02*
X119324380Y-102576285D01*
X119324380Y-102862000D02*
X118324380Y-102862000D01*
X118467238Y-102766761D01*
X118562476Y-102671523D01*
X118610095Y-102576285D01*
X128627142Y-102195333D02*
X128674761Y-102147714D01*
X128722380Y-102004857D01*
X128722380Y-101909619D01*
X128674761Y-101766761D01*
X128579523Y-101671523D01*
X128484285Y-101623904D01*
X128293809Y-101576285D01*
X128150952Y-101576285D01*
X127960476Y-101623904D01*
X127865238Y-101671523D01*
X127770000Y-101766761D01*
X127722380Y-101909619D01*
X127722380Y-102004857D01*
X127770000Y-102147714D01*
X127817619Y-102195333D01*
X127817619Y-102576285D02*
X127770000Y-102623904D01*
X127722380Y-102719142D01*
X127722380Y-102957238D01*
X127770000Y-103052476D01*
X127817619Y-103100095D01*
X127912857Y-103147714D01*
X128008095Y-103147714D01*
X128150952Y-103100095D01*
X128722380Y-102528666D01*
X128722380Y-103147714D01*
X133199142Y-102195333D02*
X133246761Y-102147714D01*
X133294380Y-102004857D01*
X133294380Y-101909619D01*
X133246761Y-101766761D01*
X133151523Y-101671523D01*
X133056285Y-101623904D01*
X132865809Y-101576285D01*
X132722952Y-101576285D01*
X132532476Y-101623904D01*
X132437238Y-101671523D01*
X132342000Y-101766761D01*
X132294380Y-101909619D01*
X132294380Y-102004857D01*
X132342000Y-102147714D01*
X132389619Y-102195333D01*
X132294380Y-102528666D02*
X132294380Y-103147714D01*
X132675333Y-102814380D01*
X132675333Y-102957238D01*
X132722952Y-103052476D01*
X132770571Y-103100095D01*
X132865809Y-103147714D01*
X133103904Y-103147714D01*
X133199142Y-103100095D01*
X133246761Y-103052476D01*
X133294380Y-102957238D01*
X133294380Y-102671523D01*
X133246761Y-102576285D01*
X133199142Y-102528666D01*
X142597142Y-102195333D02*
X142644761Y-102147714D01*
X142692380Y-102004857D01*
X142692380Y-101909619D01*
X142644761Y-101766761D01*
X142549523Y-101671523D01*
X142454285Y-101623904D01*
X142263809Y-101576285D01*
X142120952Y-101576285D01*
X141930476Y-101623904D01*
X141835238Y-101671523D01*
X141740000Y-101766761D01*
X141692380Y-101909619D01*
X141692380Y-102004857D01*
X141740000Y-102147714D01*
X141787619Y-102195333D01*
X142025714Y-103052476D02*
X142692380Y-103052476D01*
X141644761Y-102814380D02*
X142359047Y-102576285D01*
X142359047Y-103195333D01*
X146915142Y-102195333D02*
X146962761Y-102147714D01*
X147010380Y-102004857D01*
X147010380Y-101909619D01*
X146962761Y-101766761D01*
X146867523Y-101671523D01*
X146772285Y-101623904D01*
X146581809Y-101576285D01*
X146438952Y-101576285D01*
X146248476Y-101623904D01*
X146153238Y-101671523D01*
X146058000Y-101766761D01*
X146010380Y-101909619D01*
X146010380Y-102004857D01*
X146058000Y-102147714D01*
X146105619Y-102195333D01*
X146010380Y-103100095D02*
X146010380Y-102623904D01*
X146486571Y-102576285D01*
X146438952Y-102623904D01*
X146391333Y-102719142D01*
X146391333Y-102957238D01*
X146438952Y-103052476D01*
X146486571Y-103100095D01*
X146581809Y-103147714D01*
X146819904Y-103147714D01*
X146915142Y-103100095D01*
X146962761Y-103052476D01*
X147010380Y-102957238D01*
X147010380Y-102719142D01*
X146962761Y-102623904D01*
X146915142Y-102576285D01*
X156567142Y-101941333D02*
X156614761Y-101893714D01*
X156662380Y-101750857D01*
X156662380Y-101655619D01*
X156614761Y-101512761D01*
X156519523Y-101417523D01*
X156424285Y-101369904D01*
X156233809Y-101322285D01*
X156090952Y-101322285D01*
X155900476Y-101369904D01*
X155805238Y-101417523D01*
X155710000Y-101512761D01*
X155662380Y-101655619D01*
X155662380Y-101750857D01*
X155710000Y-101893714D01*
X155757619Y-101941333D01*
X155662380Y-102798476D02*
X155662380Y-102608000D01*
X155710000Y-102512761D01*
X155757619Y-102465142D01*
X155900476Y-102369904D01*
X156090952Y-102322285D01*
X156471904Y-102322285D01*
X156567142Y-102369904D01*
X156614761Y-102417523D01*
X156662380Y-102512761D01*
X156662380Y-102703238D01*
X156614761Y-102798476D01*
X156567142Y-102846095D01*
X156471904Y-102893714D01*
X156233809Y-102893714D01*
X156138571Y-102846095D01*
X156090952Y-102798476D01*
X156043333Y-102703238D01*
X156043333Y-102512761D01*
X156090952Y-102417523D01*
X156138571Y-102369904D01*
X156233809Y-102322285D01*
X161139142Y-101941333D02*
X161186761Y-101893714D01*
X161234380Y-101750857D01*
X161234380Y-101655619D01*
X161186761Y-101512761D01*
X161091523Y-101417523D01*
X160996285Y-101369904D01*
X160805809Y-101322285D01*
X160662952Y-101322285D01*
X160472476Y-101369904D01*
X160377238Y-101417523D01*
X160282000Y-101512761D01*
X160234380Y-101655619D01*
X160234380Y-101750857D01*
X160282000Y-101893714D01*
X160329619Y-101941333D01*
X160234380Y-102274666D02*
X160234380Y-102941333D01*
X161234380Y-102512761D01*
X170537142Y-102195333D02*
X170584761Y-102147714D01*
X170632380Y-102004857D01*
X170632380Y-101909619D01*
X170584761Y-101766761D01*
X170489523Y-101671523D01*
X170394285Y-101623904D01*
X170203809Y-101576285D01*
X170060952Y-101576285D01*
X169870476Y-101623904D01*
X169775238Y-101671523D01*
X169680000Y-101766761D01*
X169632380Y-101909619D01*
X169632380Y-102004857D01*
X169680000Y-102147714D01*
X169727619Y-102195333D01*
X170060952Y-102766761D02*
X170013333Y-102671523D01*
X169965714Y-102623904D01*
X169870476Y-102576285D01*
X169822857Y-102576285D01*
X169727619Y-102623904D01*
X169680000Y-102671523D01*
X169632380Y-102766761D01*
X169632380Y-102957238D01*
X169680000Y-103052476D01*
X169727619Y-103100095D01*
X169822857Y-103147714D01*
X169870476Y-103147714D01*
X169965714Y-103100095D01*
X170013333Y-103052476D01*
X170060952Y-102957238D01*
X170060952Y-102766761D01*
X170108571Y-102671523D01*
X170156190Y-102623904D01*
X170251428Y-102576285D01*
X170441904Y-102576285D01*
X170537142Y-102623904D01*
X170584761Y-102671523D01*
X170632380Y-102766761D01*
X170632380Y-102957238D01*
X170584761Y-103052476D01*
X170537142Y-103100095D01*
X170441904Y-103147714D01*
X170251428Y-103147714D01*
X170156190Y-103100095D01*
X170108571Y-103052476D01*
X170060952Y-102957238D01*
X175109142Y-102195333D02*
X175156761Y-102147714D01*
X175204380Y-102004857D01*
X175204380Y-101909619D01*
X175156761Y-101766761D01*
X175061523Y-101671523D01*
X174966285Y-101623904D01*
X174775809Y-101576285D01*
X174632952Y-101576285D01*
X174442476Y-101623904D01*
X174347238Y-101671523D01*
X174252000Y-101766761D01*
X174204380Y-101909619D01*
X174204380Y-102004857D01*
X174252000Y-102147714D01*
X174299619Y-102195333D01*
X175204380Y-102671523D02*
X175204380Y-102862000D01*
X175156761Y-102957238D01*
X175109142Y-103004857D01*
X174966285Y-103100095D01*
X174775809Y-103147714D01*
X174394857Y-103147714D01*
X174299619Y-103100095D01*
X174252000Y-103052476D01*
X174204380Y-102957238D01*
X174204380Y-102766761D01*
X174252000Y-102671523D01*
X174299619Y-102623904D01*
X174394857Y-102576285D01*
X174632952Y-102576285D01*
X174728190Y-102623904D01*
X174775809Y-102671523D01*
X174823428Y-102766761D01*
X174823428Y-102957238D01*
X174775809Y-103052476D01*
X174728190Y-103100095D01*
X174632952Y-103147714D01*
X184507142Y-101211142D02*
X184554761Y-101163523D01*
X184602380Y-101020666D01*
X184602380Y-100925428D01*
X184554761Y-100782571D01*
X184459523Y-100687333D01*
X184364285Y-100639714D01*
X184173809Y-100592095D01*
X184030952Y-100592095D01*
X183840476Y-100639714D01*
X183745238Y-100687333D01*
X183650000Y-100782571D01*
X183602380Y-100925428D01*
X183602380Y-101020666D01*
X183650000Y-101163523D01*
X183697619Y-101211142D01*
X184602380Y-102163523D02*
X184602380Y-101592095D01*
X184602380Y-101877809D02*
X183602380Y-101877809D01*
X183745238Y-101782571D01*
X183840476Y-101687333D01*
X183888095Y-101592095D01*
X183602380Y-102782571D02*
X183602380Y-102877809D01*
X183650000Y-102973047D01*
X183697619Y-103020666D01*
X183792857Y-103068285D01*
X183983333Y-103115904D01*
X184221428Y-103115904D01*
X184411904Y-103068285D01*
X184507142Y-103020666D01*
X184554761Y-102973047D01*
X184602380Y-102877809D01*
X184602380Y-102782571D01*
X184554761Y-102687333D01*
X184507142Y-102639714D01*
X184411904Y-102592095D01*
X184221428Y-102544476D01*
X183983333Y-102544476D01*
X183792857Y-102592095D01*
X183697619Y-102639714D01*
X183650000Y-102687333D01*
X183602380Y-102782571D01*
X188825142Y-101211142D02*
X188872761Y-101163523D01*
X188920380Y-101020666D01*
X188920380Y-100925428D01*
X188872761Y-100782571D01*
X188777523Y-100687333D01*
X188682285Y-100639714D01*
X188491809Y-100592095D01*
X188348952Y-100592095D01*
X188158476Y-100639714D01*
X188063238Y-100687333D01*
X187968000Y-100782571D01*
X187920380Y-100925428D01*
X187920380Y-101020666D01*
X187968000Y-101163523D01*
X188015619Y-101211142D01*
X188920380Y-102163523D02*
X188920380Y-101592095D01*
X188920380Y-101877809D02*
X187920380Y-101877809D01*
X188063238Y-101782571D01*
X188158476Y-101687333D01*
X188206095Y-101592095D01*
X188920380Y-103115904D02*
X188920380Y-102544476D01*
X188920380Y-102830190D02*
X187920380Y-102830190D01*
X188063238Y-102734952D01*
X188158476Y-102639714D01*
X188206095Y-102544476D01*
X202795142Y-101211142D02*
X202842761Y-101163523D01*
X202890380Y-101020666D01*
X202890380Y-100925428D01*
X202842761Y-100782571D01*
X202747523Y-100687333D01*
X202652285Y-100639714D01*
X202461809Y-100592095D01*
X202318952Y-100592095D01*
X202128476Y-100639714D01*
X202033238Y-100687333D01*
X201938000Y-100782571D01*
X201890380Y-100925428D01*
X201890380Y-101020666D01*
X201938000Y-101163523D01*
X201985619Y-101211142D01*
X202890380Y-102163523D02*
X202890380Y-101592095D01*
X202890380Y-101877809D02*
X201890380Y-101877809D01*
X202033238Y-101782571D01*
X202128476Y-101687333D01*
X202176095Y-101592095D01*
X201890380Y-102496857D02*
X201890380Y-103115904D01*
X202271333Y-102782571D01*
X202271333Y-102925428D01*
X202318952Y-103020666D01*
X202366571Y-103068285D01*
X202461809Y-103115904D01*
X202699904Y-103115904D01*
X202795142Y-103068285D01*
X202842761Y-103020666D01*
X202890380Y-102925428D01*
X202890380Y-102639714D01*
X202842761Y-102544476D01*
X202795142Y-102496857D01*
X212447142Y-101211142D02*
X212494761Y-101163523D01*
X212542380Y-101020666D01*
X212542380Y-100925428D01*
X212494761Y-100782571D01*
X212399523Y-100687333D01*
X212304285Y-100639714D01*
X212113809Y-100592095D01*
X211970952Y-100592095D01*
X211780476Y-100639714D01*
X211685238Y-100687333D01*
X211590000Y-100782571D01*
X211542380Y-100925428D01*
X211542380Y-101020666D01*
X211590000Y-101163523D01*
X211637619Y-101211142D01*
X212542380Y-102163523D02*
X212542380Y-101592095D01*
X212542380Y-101877809D02*
X211542380Y-101877809D01*
X211685238Y-101782571D01*
X211780476Y-101687333D01*
X211828095Y-101592095D01*
X211875714Y-103020666D02*
X212542380Y-103020666D01*
X211494761Y-102782571D02*
X212209047Y-102544476D01*
X212209047Y-103163523D01*
X216765142Y-101211142D02*
X216812761Y-101163523D01*
X216860380Y-101020666D01*
X216860380Y-100925428D01*
X216812761Y-100782571D01*
X216717523Y-100687333D01*
X216622285Y-100639714D01*
X216431809Y-100592095D01*
X216288952Y-100592095D01*
X216098476Y-100639714D01*
X216003238Y-100687333D01*
X215908000Y-100782571D01*
X215860380Y-100925428D01*
X215860380Y-101020666D01*
X215908000Y-101163523D01*
X215955619Y-101211142D01*
X216860380Y-102163523D02*
X216860380Y-101592095D01*
X216860380Y-101877809D02*
X215860380Y-101877809D01*
X216003238Y-101782571D01*
X216098476Y-101687333D01*
X216146095Y-101592095D01*
X215860380Y-103068285D02*
X215860380Y-102592095D01*
X216336571Y-102544476D01*
X216288952Y-102592095D01*
X216241333Y-102687333D01*
X216241333Y-102925428D01*
X216288952Y-103020666D01*
X216336571Y-103068285D01*
X216431809Y-103115904D01*
X216669904Y-103115904D01*
X216765142Y-103068285D01*
X216812761Y-103020666D01*
X216860380Y-102925428D01*
X216860380Y-102687333D01*
X216812761Y-102592095D01*
X216765142Y-102544476D01*
X226417142Y-101211142D02*
X226464761Y-101163523D01*
X226512380Y-101020666D01*
X226512380Y-100925428D01*
X226464761Y-100782571D01*
X226369523Y-100687333D01*
X226274285Y-100639714D01*
X226083809Y-100592095D01*
X225940952Y-100592095D01*
X225750476Y-100639714D01*
X225655238Y-100687333D01*
X225560000Y-100782571D01*
X225512380Y-100925428D01*
X225512380Y-101020666D01*
X225560000Y-101163523D01*
X225607619Y-101211142D01*
X226512380Y-102163523D02*
X226512380Y-101592095D01*
X226512380Y-101877809D02*
X225512380Y-101877809D01*
X225655238Y-101782571D01*
X225750476Y-101687333D01*
X225798095Y-101592095D01*
X225512380Y-103020666D02*
X225512380Y-102830190D01*
X225560000Y-102734952D01*
X225607619Y-102687333D01*
X225750476Y-102592095D01*
X225940952Y-102544476D01*
X226321904Y-102544476D01*
X226417142Y-102592095D01*
X226464761Y-102639714D01*
X226512380Y-102734952D01*
X226512380Y-102925428D01*
X226464761Y-103020666D01*
X226417142Y-103068285D01*
X226321904Y-103115904D01*
X226083809Y-103115904D01*
X225988571Y-103068285D01*
X225940952Y-103020666D01*
X225893333Y-102925428D01*
X225893333Y-102734952D01*
X225940952Y-102639714D01*
X225988571Y-102592095D01*
X226083809Y-102544476D01*
X235307142Y-100957142D02*
X235354761Y-100909523D01*
X235402380Y-100766666D01*
X235402380Y-100671428D01*
X235354761Y-100528571D01*
X235259523Y-100433333D01*
X235164285Y-100385714D01*
X234973809Y-100338095D01*
X234830952Y-100338095D01*
X234640476Y-100385714D01*
X234545238Y-100433333D01*
X234450000Y-100528571D01*
X234402380Y-100671428D01*
X234402380Y-100766666D01*
X234450000Y-100909523D01*
X234497619Y-100957142D01*
X235402380Y-101909523D02*
X235402380Y-101338095D01*
X235402380Y-101623809D02*
X234402380Y-101623809D01*
X234545238Y-101528571D01*
X234640476Y-101433333D01*
X234688095Y-101338095D01*
X234402380Y-102242857D02*
X234402380Y-102909523D01*
X235402380Y-102480952D01*
X244705142Y-101211142D02*
X244752761Y-101163523D01*
X244800380Y-101020666D01*
X244800380Y-100925428D01*
X244752761Y-100782571D01*
X244657523Y-100687333D01*
X244562285Y-100639714D01*
X244371809Y-100592095D01*
X244228952Y-100592095D01*
X244038476Y-100639714D01*
X243943238Y-100687333D01*
X243848000Y-100782571D01*
X243800380Y-100925428D01*
X243800380Y-101020666D01*
X243848000Y-101163523D01*
X243895619Y-101211142D01*
X244800380Y-102163523D02*
X244800380Y-101592095D01*
X244800380Y-101877809D02*
X243800380Y-101877809D01*
X243943238Y-101782571D01*
X244038476Y-101687333D01*
X244086095Y-101592095D01*
X244228952Y-102734952D02*
X244181333Y-102639714D01*
X244133714Y-102592095D01*
X244038476Y-102544476D01*
X243990857Y-102544476D01*
X243895619Y-102592095D01*
X243848000Y-102639714D01*
X243800380Y-102734952D01*
X243800380Y-102925428D01*
X243848000Y-103020666D01*
X243895619Y-103068285D01*
X243990857Y-103115904D01*
X244038476Y-103115904D01*
X244133714Y-103068285D01*
X244181333Y-103020666D01*
X244228952Y-102925428D01*
X244228952Y-102734952D01*
X244276571Y-102639714D01*
X244324190Y-102592095D01*
X244419428Y-102544476D01*
X244609904Y-102544476D01*
X244705142Y-102592095D01*
X244752761Y-102639714D01*
X244800380Y-102734952D01*
X244800380Y-102925428D01*
X244752761Y-103020666D01*
X244705142Y-103068285D01*
X244609904Y-103115904D01*
X244419428Y-103115904D01*
X244324190Y-103068285D01*
X244276571Y-103020666D01*
X244228952Y-102925428D01*
X198477142Y-101211142D02*
X198524761Y-101163523D01*
X198572380Y-101020666D01*
X198572380Y-100925428D01*
X198524761Y-100782571D01*
X198429523Y-100687333D01*
X198334285Y-100639714D01*
X198143809Y-100592095D01*
X198000952Y-100592095D01*
X197810476Y-100639714D01*
X197715238Y-100687333D01*
X197620000Y-100782571D01*
X197572380Y-100925428D01*
X197572380Y-101020666D01*
X197620000Y-101163523D01*
X197667619Y-101211142D01*
X198572380Y-102163523D02*
X198572380Y-101592095D01*
X198572380Y-101877809D02*
X197572380Y-101877809D01*
X197715238Y-101782571D01*
X197810476Y-101687333D01*
X197858095Y-101592095D01*
X197667619Y-102544476D02*
X197620000Y-102592095D01*
X197572380Y-102687333D01*
X197572380Y-102925428D01*
X197620000Y-103020666D01*
X197667619Y-103068285D01*
X197762857Y-103115904D01*
X197858095Y-103115904D01*
X198000952Y-103068285D01*
X198572380Y-102496857D01*
X198572380Y-103115904D01*
G36*
X171785214Y-110499672D02*
G01*
X173108623Y-110500506D01*
X173802983Y-111892253D01*
X174497342Y-113284000D01*
X173355000Y-113281918D01*
X172893548Y-112384796D01*
X172726131Y-112067451D01*
X172523251Y-111718192D01*
X172367664Y-111505958D01*
X172249974Y-111418689D01*
X172160787Y-111444325D01*
X172173733Y-111517292D01*
X172250074Y-111713108D01*
X172378534Y-111998733D01*
X172545438Y-112342246D01*
X172697937Y-112649276D01*
X172841064Y-112944607D01*
X172938206Y-113153621D01*
X172974000Y-113243997D01*
X172899439Y-113264437D01*
X172699208Y-113272761D01*
X172417352Y-113266702D01*
X171860703Y-113241667D01*
X170461805Y-110498839D01*
X171785214Y-110499672D01*
G37*
G36*
X190818362Y-111887000D02*
G01*
X191515342Y-113284000D01*
X189517743Y-113284000D01*
X189331538Y-112900735D01*
X189265869Y-112762980D01*
X189179254Y-112570206D01*
X189145334Y-112477402D01*
X189162747Y-112465450D01*
X189299024Y-112445299D01*
X189526334Y-112437333D01*
X189640025Y-112434900D01*
X189831607Y-112415873D01*
X189907334Y-112384139D01*
X189877949Y-112308299D01*
X189783718Y-112122859D01*
X189647120Y-111876139D01*
X189645982Y-111874150D01*
X189494638Y-111623621D01*
X189376128Y-111487940D01*
X189245019Y-111432160D01*
X189055880Y-111421333D01*
X188899152Y-111415639D01*
X188757447Y-111370779D01*
X188646540Y-111248204D01*
X188516210Y-111009596D01*
X188307567Y-110597859D01*
X188823537Y-110543929D01*
X189043372Y-110523893D01*
X189418326Y-110499515D01*
X189730444Y-110490000D01*
X190121381Y-110490000D01*
X190818362Y-111887000D01*
G37*
G36*
X176657031Y-111428959D02*
G01*
X176834219Y-111803790D01*
X176995857Y-112173241D01*
X177115263Y-112476606D01*
X177174833Y-112671636D01*
X177196681Y-112842567D01*
X177155806Y-113010457D01*
X177003184Y-113172010D01*
X176833511Y-113287539D01*
X176613538Y-113351122D01*
X176292446Y-113367839D01*
X176102460Y-113359900D01*
X175527276Y-113231021D01*
X175015367Y-112946963D01*
X174571410Y-112510951D01*
X174200083Y-111926208D01*
X173987148Y-111506000D01*
X175165993Y-111506000D01*
X175445830Y-112030138D01*
X175493044Y-112116573D01*
X175669483Y-112400256D01*
X175810317Y-112563657D01*
X175903586Y-112595700D01*
X175937334Y-112485312D01*
X175937318Y-112484172D01*
X175899468Y-112356489D01*
X175799075Y-112113593D01*
X175651213Y-111789924D01*
X175470960Y-111419923D01*
X175004586Y-110490000D01*
X176196206Y-110490000D01*
X176657031Y-111428959D01*
G37*
G36*
X189509283Y-109262333D02*
G01*
X189650594Y-109558667D01*
X187710349Y-109558667D01*
X187581175Y-109308871D01*
X187572763Y-109292506D01*
X187487195Y-109112442D01*
X187452000Y-109012538D01*
X187517658Y-108995649D01*
X187721314Y-108980268D01*
X188029989Y-108969840D01*
X188409986Y-108966000D01*
X189367971Y-108966000D01*
X189509283Y-109262333D01*
G37*
G36*
X182499031Y-111428959D02*
G01*
X182676219Y-111803790D01*
X182837857Y-112173241D01*
X182957263Y-112476606D01*
X183016833Y-112671636D01*
X183038681Y-112842567D01*
X182997806Y-113010457D01*
X182845184Y-113172010D01*
X182675511Y-113287539D01*
X182455538Y-113351122D01*
X182134446Y-113367839D01*
X181944460Y-113359900D01*
X181369276Y-113231021D01*
X180857367Y-112946963D01*
X180413410Y-112510951D01*
X180042083Y-111926208D01*
X179829148Y-111506000D01*
X181007993Y-111506000D01*
X181287830Y-112030138D01*
X181335044Y-112116573D01*
X181511483Y-112400256D01*
X181652317Y-112563657D01*
X181745586Y-112595700D01*
X181779334Y-112485312D01*
X181779318Y-112484172D01*
X181741468Y-112356489D01*
X181641075Y-112113593D01*
X181493213Y-111789924D01*
X181312960Y-111419923D01*
X180846586Y-110490000D01*
X182038206Y-110490000D01*
X182499031Y-111428959D01*
G37*
G36*
X177472377Y-109831060D02*
G01*
X177605308Y-109834583D01*
X177978413Y-109848527D01*
X178225089Y-109869878D01*
X178378786Y-109905350D01*
X178472952Y-109961653D01*
X178541038Y-110045500D01*
X178667321Y-110236000D01*
X177650053Y-110236000D01*
X177251234Y-110233420D01*
X176936270Y-110222240D01*
X176738163Y-110198944D01*
X176629131Y-110160049D01*
X176581392Y-110102075D01*
X176554630Y-110024439D01*
X176547349Y-109924647D01*
X176610909Y-109862888D01*
X176769884Y-109831687D01*
X177048849Y-109823569D01*
X177472377Y-109831060D01*
G37*
G36*
X172252977Y-109812732D02*
G01*
X172542324Y-109819770D01*
X172712891Y-109848179D01*
X172808740Y-109911765D01*
X172873928Y-110024333D01*
X172970370Y-110236000D01*
X172382498Y-110236000D01*
X172138914Y-110232553D01*
X171910968Y-110211054D01*
X171780861Y-110160977D01*
X171706979Y-110072233D01*
X171654892Y-109965467D01*
X171619334Y-109860566D01*
X171619461Y-109859557D01*
X171702601Y-109835896D01*
X171910028Y-109819071D01*
X172198410Y-109812667D01*
X172252977Y-109812732D01*
G37*
G36*
X191415595Y-109815417D02*
G01*
X191657455Y-109829372D01*
X191805881Y-109863118D01*
X191898735Y-109925243D01*
X191973881Y-110024333D01*
X192112571Y-110236000D01*
X191266931Y-110236000D01*
X190950256Y-110234066D01*
X190666276Y-110222735D01*
X190491431Y-110195948D01*
X190391846Y-110147762D01*
X190333646Y-110072233D01*
X190281559Y-109965467D01*
X190246000Y-109860566D01*
X190271433Y-109848561D01*
X190428534Y-109830106D01*
X190697254Y-109817398D01*
X191040596Y-109812667D01*
X191042438Y-109812667D01*
X191415595Y-109815417D01*
G37*
G36*
X162150745Y-116176259D02*
G01*
X162429603Y-116289108D01*
X162592015Y-116522099D01*
X162644667Y-116882333D01*
X162644632Y-116894538D01*
X162603419Y-117217427D01*
X162475334Y-117432667D01*
X162310210Y-117542131D01*
X161967334Y-117602000D01*
X161783923Y-117588407D01*
X161505065Y-117475558D01*
X161342652Y-117242568D01*
X161290000Y-116882333D01*
X161302794Y-116687459D01*
X161409005Y-116391172D01*
X161628290Y-116218609D01*
X161967334Y-116162667D01*
X162150745Y-116176259D01*
G37*
G36*
X174213909Y-108902324D02*
G01*
X174637922Y-108983666D01*
X175042437Y-109134140D01*
X175387000Y-109349690D01*
X175641000Y-109557825D01*
X174349834Y-109558246D01*
X173891100Y-109556540D01*
X173493209Y-109546008D01*
X173232491Y-109520062D01*
X173091575Y-109472179D01*
X173053091Y-109395837D01*
X173099668Y-109284511D01*
X173213935Y-109131678D01*
X173229409Y-109113680D01*
X173469199Y-108963272D01*
X173810850Y-108894173D01*
X174213909Y-108902324D01*
G37*
G36*
X170930421Y-109816114D02*
G01*
X171158367Y-109837612D01*
X171288473Y-109887689D01*
X171362355Y-109976434D01*
X171414442Y-110083199D01*
X171450000Y-110188100D01*
X171449873Y-110189109D01*
X171366733Y-110212770D01*
X171159306Y-110229595D01*
X170870924Y-110236000D01*
X170816357Y-110235934D01*
X170527011Y-110228896D01*
X170356443Y-110200487D01*
X170260595Y-110136901D01*
X170195406Y-110024333D01*
X170098964Y-109812667D01*
X170686837Y-109812667D01*
X170930421Y-109816114D01*
G37*
G36*
X185688425Y-112076894D02*
G01*
X185933613Y-112461448D01*
X186138155Y-112783992D01*
X186285066Y-113017721D01*
X186357363Y-113135833D01*
X186367906Y-113155077D01*
X186384601Y-113224635D01*
X186323134Y-113263462D01*
X186153133Y-113280327D01*
X185844228Y-113284000D01*
X185246498Y-113284000D01*
X185016366Y-112903000D01*
X184932983Y-112777287D01*
X184769095Y-112592332D01*
X184637450Y-112522000D01*
X184558024Y-112529271D01*
X184499589Y-112584918D01*
X184520173Y-112724274D01*
X184618376Y-112981091D01*
X184748085Y-113291528D01*
X184139338Y-113266597D01*
X183530590Y-113241667D01*
X183383911Y-112818333D01*
X183314886Y-112621269D01*
X183192566Y-112276009D01*
X183046287Y-111865933D01*
X182894574Y-111443108D01*
X182621011Y-110683163D01*
X183667384Y-110683163D01*
X183721925Y-110881102D01*
X183850072Y-111208677D01*
X183886183Y-111292178D01*
X184023938Y-111569792D01*
X184140033Y-111716876D01*
X184253931Y-111760000D01*
X184341321Y-111755137D01*
X184376721Y-111707351D01*
X184300746Y-111569500D01*
X184241888Y-111475550D01*
X184099565Y-111240262D01*
X183942055Y-110973009D01*
X183919252Y-110934137D01*
X183768662Y-110702982D01*
X183683835Y-110621557D01*
X183667384Y-110683163D01*
X182621011Y-110683163D01*
X182551915Y-110491217D01*
X183625144Y-110511775D01*
X184698374Y-110532333D01*
X185451812Y-111707351D01*
X185485571Y-111760000D01*
X185688425Y-112076894D01*
G37*
G36*
X175301741Y-109812989D02*
G01*
X175608834Y-109828857D01*
X175795987Y-109875133D01*
X175904141Y-109960833D01*
X175971073Y-110060650D01*
X176019308Y-110172500D01*
X176019228Y-110173897D01*
X175937252Y-110205236D01*
X175730799Y-110227518D01*
X175442924Y-110236000D01*
X175388357Y-110235934D01*
X175099011Y-110228896D01*
X174928443Y-110200487D01*
X174832595Y-110136901D01*
X174767406Y-110024333D01*
X174670964Y-109812667D01*
X175231315Y-109812667D01*
X175301741Y-109812989D01*
G37*
G36*
X174097687Y-110490033D02*
G01*
X174385671Y-110495355D01*
X174589796Y-110507993D01*
X174667334Y-110525408D01*
X174673897Y-110559774D01*
X174718726Y-110694742D01*
X174728327Y-110752385D01*
X174673444Y-110800328D01*
X174512395Y-110822973D01*
X174213704Y-110828667D01*
X174002957Y-110825889D01*
X173773782Y-110804727D01*
X173642881Y-110753011D01*
X173566667Y-110659333D01*
X173545938Y-110618623D01*
X173531201Y-110546859D01*
X173593380Y-110508386D01*
X173763276Y-110492875D01*
X174071688Y-110490000D01*
X174097687Y-110490033D01*
G37*
G36*
X202454570Y-111215010D02*
G01*
X202623508Y-111261143D01*
X202699002Y-111364400D01*
X202706436Y-111384116D01*
X202847793Y-111543678D01*
X203082328Y-111666663D01*
X203342064Y-111715916D01*
X203413467Y-111724964D01*
X203488022Y-111807350D01*
X203507413Y-112012249D01*
X203505063Y-112144119D01*
X203471372Y-112259383D01*
X203360517Y-112302256D01*
X203126413Y-112308583D01*
X202745413Y-112308583D01*
X202745413Y-114086583D01*
X203126413Y-114086583D01*
X203295960Y-114088410D01*
X203444157Y-114114615D01*
X203499280Y-114200836D01*
X203507413Y-114382916D01*
X203507413Y-114679249D01*
X201136747Y-114679249D01*
X201136747Y-114382916D01*
X201139097Y-114251046D01*
X201172789Y-114135782D01*
X201283644Y-114092909D01*
X201517747Y-114086583D01*
X201898747Y-114086583D01*
X201898747Y-111207916D01*
X202274041Y-111207916D01*
X202454570Y-111215010D01*
G37*
G36*
X178042782Y-109262333D02*
G01*
X178217623Y-109558667D01*
X176377232Y-109558667D01*
X176284283Y-109292032D01*
X176277158Y-109271507D01*
X176216311Y-109087553D01*
X176191334Y-108995699D01*
X176226083Y-108987252D01*
X176396270Y-108976296D01*
X176676128Y-108968787D01*
X177029637Y-108966000D01*
X177867941Y-108966000D01*
X178042782Y-109262333D01*
G37*
G36*
X169443283Y-109262333D02*
G01*
X169584594Y-109558667D01*
X167644349Y-109558667D01*
X167515175Y-109308871D01*
X167506763Y-109292506D01*
X167421195Y-109112442D01*
X167386000Y-109012538D01*
X167451658Y-108995649D01*
X167655314Y-108980268D01*
X167963989Y-108969840D01*
X168343986Y-108966000D01*
X169301971Y-108966000D01*
X169443283Y-109262333D01*
G37*
G36*
X185528329Y-109812728D02*
G01*
X185815899Y-109824327D01*
X186019839Y-109852093D01*
X186097334Y-109890408D01*
X186103040Y-109940772D01*
X186148726Y-110102075D01*
X186158327Y-110159719D01*
X186103444Y-110207661D01*
X185942395Y-110230306D01*
X185643704Y-110236000D01*
X185451140Y-110233680D01*
X185212793Y-110213437D01*
X185076582Y-110163254D01*
X184999646Y-110072233D01*
X184947559Y-109965467D01*
X184912000Y-109860566D01*
X184912465Y-109858664D01*
X185000854Y-109835418D01*
X185212533Y-109818931D01*
X185504667Y-109812667D01*
X185528329Y-109812728D01*
G37*
G36*
X186985741Y-109812989D02*
G01*
X187292834Y-109828857D01*
X187479987Y-109875133D01*
X187588141Y-109960833D01*
X187655073Y-110060650D01*
X187703308Y-110172500D01*
X187703228Y-110173897D01*
X187621252Y-110205236D01*
X187414799Y-110227518D01*
X187126924Y-110236000D01*
X187072357Y-110235934D01*
X186783011Y-110228896D01*
X186612443Y-110200487D01*
X186516595Y-110136901D01*
X186451406Y-110024333D01*
X186354964Y-109812667D01*
X186915315Y-109812667D01*
X186985741Y-109812989D01*
G37*
G36*
X179589885Y-109830127D02*
G01*
X179611475Y-109831027D01*
X179923531Y-109850254D01*
X180109215Y-109883739D01*
X180209251Y-109944486D01*
X180264364Y-110045500D01*
X180281053Y-110093002D01*
X180289819Y-110174033D01*
X180227409Y-110216668D01*
X180061108Y-110233219D01*
X179758196Y-110236000D01*
X179700039Y-110235926D01*
X179413252Y-110228795D01*
X179244486Y-110199970D01*
X179149416Y-110135299D01*
X179083717Y-110020627D01*
X178985586Y-109805253D01*
X179589885Y-109830127D01*
G37*
G36*
X160528000Y-113209069D02*
G01*
X160168167Y-113183035D01*
X160043489Y-113172874D01*
X159881327Y-113137139D01*
X159818702Y-113047189D01*
X159808334Y-112860667D01*
X159809717Y-112757890D01*
X159838864Y-112622236D01*
X159942587Y-112563158D01*
X160168167Y-112538298D01*
X160528000Y-112512264D01*
X160528000Y-113209069D01*
G37*
G36*
X183314377Y-109831060D02*
G01*
X183447308Y-109834583D01*
X183820413Y-109848527D01*
X184067089Y-109869878D01*
X184220786Y-109905350D01*
X184314952Y-109961653D01*
X184383038Y-110045500D01*
X184509321Y-110236000D01*
X183492053Y-110236000D01*
X183093234Y-110233420D01*
X182778270Y-110222240D01*
X182580163Y-110198944D01*
X182471131Y-110160049D01*
X182423392Y-110102075D01*
X182396630Y-110024439D01*
X182389349Y-109924647D01*
X182452909Y-109862888D01*
X182611884Y-109831687D01*
X182890849Y-109823569D01*
X183314377Y-109831060D01*
G37*
G36*
X186029362Y-108903965D02*
G01*
X186580062Y-109045328D01*
X187071000Y-109343776D01*
X187325000Y-109552577D01*
X186076167Y-109555622D01*
X185682775Y-109555184D01*
X185275986Y-109546320D01*
X185008430Y-109521760D01*
X184862710Y-109474760D01*
X184821429Y-109398576D01*
X184867192Y-109286463D01*
X184982602Y-109131678D01*
X185095134Y-109027814D01*
X185299130Y-108945226D01*
X185619792Y-108899966D01*
X186029362Y-108903965D01*
G37*
G36*
X170362917Y-108966066D02*
G01*
X170639643Y-108973471D01*
X170802978Y-109005717D01*
X170901093Y-109080570D01*
X170982160Y-109215795D01*
X170990572Y-109232161D01*
X171076140Y-109412225D01*
X171111334Y-109512129D01*
X171111206Y-109513109D01*
X171028068Y-109536097D01*
X170820641Y-109552444D01*
X170532257Y-109558667D01*
X170468471Y-109558578D01*
X170183030Y-109551316D01*
X170015088Y-109522349D01*
X169920451Y-109457606D01*
X169854924Y-109343016D01*
X169817823Y-109258533D01*
X169772934Y-109099298D01*
X169822563Y-109011354D01*
X169991573Y-108973866D01*
X170304826Y-108966000D01*
X170362917Y-108966066D01*
G37*
G36*
X181143741Y-109812989D02*
G01*
X181450834Y-109828857D01*
X181637987Y-109875133D01*
X181746141Y-109960833D01*
X181813073Y-110060650D01*
X181861308Y-110172500D01*
X181861228Y-110173897D01*
X181779252Y-110205236D01*
X181572799Y-110227518D01*
X181284924Y-110236000D01*
X181230357Y-110235934D01*
X180941011Y-110228896D01*
X180770443Y-110200487D01*
X180674595Y-110136901D01*
X180609406Y-110024333D01*
X180512964Y-109812667D01*
X181073315Y-109812667D01*
X181143741Y-109812989D01*
G37*
G36*
X191504782Y-109262333D02*
G01*
X191679623Y-109558667D01*
X190081016Y-109558667D01*
X189951841Y-109308871D01*
X189943429Y-109292506D01*
X189857861Y-109112442D01*
X189822667Y-109012538D01*
X189840461Y-109002494D01*
X189984803Y-108983783D01*
X190242746Y-108970837D01*
X190576304Y-108966000D01*
X191329941Y-108966000D01*
X191504782Y-109262333D01*
G37*
G36*
X188385613Y-111517569D02*
G01*
X188564805Y-111891080D01*
X188746672Y-112313007D01*
X188848560Y-112630974D01*
X188875235Y-112868802D01*
X188831460Y-113050314D01*
X188722000Y-113199333D01*
X188579161Y-113293672D01*
X188282424Y-113363772D01*
X187941210Y-113346459D01*
X187617129Y-113239492D01*
X187593915Y-113227818D01*
X187431371Y-113170790D01*
X187367334Y-113197159D01*
X187349990Y-113223031D01*
X187213943Y-113266727D01*
X186986940Y-113284000D01*
X186606545Y-113284000D01*
X186055606Y-112184542D01*
X185972214Y-112017622D01*
X185787862Y-111644705D01*
X185639509Y-111339094D01*
X185540622Y-111128727D01*
X185504667Y-111041542D01*
X185509781Y-111036135D01*
X185623432Y-111016727D01*
X185855792Y-111003126D01*
X186166319Y-110998000D01*
X186827971Y-110998000D01*
X186978180Y-111312991D01*
X186998164Y-111356169D01*
X187067804Y-111566507D01*
X187038033Y-111658100D01*
X187016353Y-111690250D01*
X187044362Y-111843396D01*
X187153578Y-112094544D01*
X187201148Y-112184226D01*
X187374720Y-112442079D01*
X187530203Y-112568574D01*
X187651113Y-112548665D01*
X187653240Y-112540701D01*
X187618643Y-112422100D01*
X187521930Y-112188978D01*
X187375829Y-111870584D01*
X187193071Y-111496166D01*
X186688695Y-110490000D01*
X187879893Y-110490000D01*
X188385613Y-111517569D01*
G37*
G36*
X179939687Y-110490033D02*
G01*
X180227671Y-110495355D01*
X180431796Y-110507993D01*
X180509334Y-110525408D01*
X180515897Y-110559774D01*
X180560726Y-110694742D01*
X180570327Y-110752385D01*
X180515444Y-110800328D01*
X180354395Y-110822973D01*
X180055704Y-110828667D01*
X179844957Y-110825889D01*
X179615782Y-110804727D01*
X179484881Y-110753011D01*
X179408667Y-110659333D01*
X179387938Y-110618623D01*
X179373201Y-110546859D01*
X179435380Y-110508386D01*
X179605276Y-110492875D01*
X179913688Y-110490000D01*
X179939687Y-110490033D01*
G37*
G36*
X193488616Y-109262333D02*
G01*
X193629928Y-109558667D01*
X192824868Y-109558667D01*
X192734136Y-109558629D01*
X192390930Y-109555326D01*
X192174693Y-109540538D01*
X192050370Y-109505687D01*
X191982904Y-109442196D01*
X191937238Y-109341488D01*
X191882512Y-109177540D01*
X191854667Y-109045155D01*
X191871236Y-109028581D01*
X192013261Y-108996512D01*
X192269232Y-108974303D01*
X192600986Y-108966000D01*
X193347305Y-108966000D01*
X193488616Y-109262333D01*
G37*
G36*
X193057426Y-109812734D02*
G01*
X193400951Y-109816404D01*
X193619198Y-109831594D01*
X193747201Y-109866404D01*
X193819994Y-109928936D01*
X193872609Y-110027290D01*
X193970398Y-110241913D01*
X193112547Y-110217790D01*
X193055762Y-110216169D01*
X192684136Y-110202363D01*
X192444453Y-110181851D01*
X192303447Y-110146943D01*
X192227854Y-110089945D01*
X192184410Y-110003167D01*
X192170589Y-109964635D01*
X192158015Y-109890843D01*
X192200564Y-109845906D01*
X192326788Y-109822669D01*
X192565239Y-109813974D01*
X192944472Y-109812667D01*
X193057426Y-109812734D01*
G37*
G36*
X170752362Y-111887000D02*
G01*
X171449342Y-113284000D01*
X169451743Y-113284000D01*
X169265538Y-112900735D01*
X169199869Y-112762980D01*
X169113254Y-112570206D01*
X169079334Y-112477402D01*
X169096747Y-112465450D01*
X169233024Y-112445299D01*
X169460334Y-112437333D01*
X169574025Y-112434900D01*
X169765607Y-112415873D01*
X169841334Y-112384139D01*
X169811949Y-112308299D01*
X169717718Y-112122859D01*
X169581120Y-111876139D01*
X169579982Y-111874150D01*
X169428638Y-111623621D01*
X169310128Y-111487940D01*
X169179019Y-111432160D01*
X168989880Y-111421333D01*
X168833152Y-111415639D01*
X168691447Y-111370779D01*
X168580540Y-111248204D01*
X168450210Y-111009596D01*
X168241567Y-110597859D01*
X168757537Y-110543929D01*
X168977372Y-110523893D01*
X169352326Y-110499515D01*
X169664444Y-110490000D01*
X170055381Y-110490000D01*
X170752362Y-111887000D01*
G37*
G36*
X152569334Y-118787333D02*
G01*
X152569334Y-115863330D01*
X155532667Y-115863330D01*
X155539689Y-115882409D01*
X155610811Y-116015837D01*
X155742232Y-116243609D01*
X155913667Y-116530219D01*
X156060482Y-116780909D01*
X156203149Y-117070362D01*
X156274929Y-117309665D01*
X156294667Y-117549222D01*
X156294838Y-117594559D01*
X156309063Y-117815328D01*
X156359288Y-117916454D01*
X156464000Y-117940667D01*
X156511595Y-117937802D01*
X156589766Y-117892800D01*
X156622285Y-117771333D01*
X157141334Y-117771333D01*
X157141499Y-117784812D01*
X157162492Y-117868516D01*
X157244102Y-117915496D01*
X157422536Y-117936098D01*
X157734000Y-117940667D01*
X158326667Y-117940667D01*
X158326667Y-116882333D01*
X158750000Y-116882333D01*
X158752703Y-117304695D01*
X158763492Y-117620399D01*
X158785297Y-117814978D01*
X158821038Y-117913407D01*
X158873632Y-117940667D01*
X158940962Y-117905231D01*
X159101266Y-117760607D01*
X159316675Y-117530281D01*
X159559768Y-117242167D01*
X159740747Y-117020803D01*
X159955630Y-116767639D01*
X160116574Y-116589531D01*
X160198136Y-116515444D01*
X160213091Y-116524156D01*
X160244272Y-116649108D01*
X160265904Y-116891270D01*
X160274000Y-117213944D01*
X160274001Y-117216713D01*
X160279411Y-117577552D01*
X160298955Y-117798887D01*
X160337772Y-117910123D01*
X160401000Y-117940667D01*
X160402122Y-117940660D01*
X160455587Y-117914714D01*
X160491852Y-117821375D01*
X160513972Y-117635176D01*
X160525003Y-117330651D01*
X160527854Y-116904244D01*
X160952153Y-116904244D01*
X160998694Y-117246942D01*
X161143547Y-117542351D01*
X161388611Y-117746574D01*
X161576826Y-117825815D01*
X161954595Y-117889095D01*
X162348334Y-117809208D01*
X162435093Y-117778649D01*
X162622398Y-117714209D01*
X162705993Y-117687941D01*
X162735424Y-117669703D01*
X162813669Y-117535869D01*
X162894498Y-117321021D01*
X162957768Y-117083671D01*
X162983334Y-116882333D01*
X162973173Y-116723769D01*
X162852280Y-116353731D01*
X162615285Y-116080373D01*
X162287880Y-115918773D01*
X161895758Y-115884005D01*
X161464610Y-115991148D01*
X161383392Y-116031370D01*
X161146402Y-116252562D01*
X161002022Y-116558152D01*
X160955310Y-116882333D01*
X160952153Y-116904244D01*
X160527854Y-116904244D01*
X160528000Y-116882333D01*
X160527578Y-116720146D01*
X160519874Y-116299412D01*
X160501015Y-116022730D01*
X160469085Y-115870956D01*
X160422167Y-115824948D01*
X160348054Y-115871802D01*
X160187205Y-116028302D01*
X159970559Y-116268661D01*
X159723667Y-116565781D01*
X159131000Y-117305667D01*
X159106538Y-116564833D01*
X159097558Y-116326804D01*
X159078945Y-116058183D01*
X159048047Y-115906461D01*
X158996524Y-115839210D01*
X158916038Y-115824000D01*
X158862389Y-115829094D01*
X158810438Y-115865887D01*
X158777533Y-115962141D01*
X158759365Y-116145324D01*
X158751623Y-116442899D01*
X158750000Y-116882333D01*
X158326667Y-116882333D01*
X158325806Y-116523442D01*
X158319888Y-116198288D01*
X158304483Y-115993275D01*
X158275190Y-115880895D01*
X158227607Y-115833639D01*
X158157334Y-115824000D01*
X158136121Y-115824440D01*
X158067591Y-115843145D01*
X158048815Y-115872698D01*
X158024216Y-115911416D01*
X158000295Y-116059190D01*
X157990124Y-116316405D01*
X157988000Y-116713000D01*
X157988000Y-117602000D01*
X157564667Y-117602000D01*
X157466751Y-117602724D01*
X157258225Y-117619111D01*
X157163622Y-117669766D01*
X157141334Y-117771333D01*
X156622285Y-117771333D01*
X156625076Y-117760908D01*
X156633334Y-117501091D01*
X156638786Y-117337263D01*
X156682202Y-117088055D01*
X156786401Y-116826605D01*
X156972000Y-116491456D01*
X157011033Y-116425430D01*
X157163410Y-116160684D01*
X157270331Y-115963572D01*
X157310667Y-115872698D01*
X157284373Y-115845844D01*
X157153130Y-115824000D01*
X157081895Y-115845989D01*
X156921610Y-116008438D01*
X156724832Y-116332000D01*
X156721905Y-116337488D01*
X156581796Y-116590835D01*
X156472666Y-116771252D01*
X156417921Y-116840000D01*
X156417866Y-116839999D01*
X156364419Y-116770142D01*
X156259343Y-116587674D01*
X156125334Y-116332000D01*
X155975956Y-116062638D01*
X155830217Y-115880352D01*
X155700782Y-115824000D01*
X155603840Y-115831246D01*
X155532667Y-115863330D01*
X152569334Y-115863330D01*
X152569334Y-113637560D01*
X155705102Y-113637560D01*
X155742269Y-113882485D01*
X155850167Y-114063839D01*
X155988525Y-114158453D01*
X156328882Y-114246851D01*
X156718000Y-114187349D01*
X156758074Y-114173313D01*
X156936264Y-114079347D01*
X156956877Y-113999643D01*
X156830120Y-113950325D01*
X156566197Y-113947515D01*
X156561074Y-113947908D01*
X156240761Y-113930332D01*
X156031150Y-113829857D01*
X155956000Y-113657763D01*
X156014921Y-113575245D01*
X156190832Y-113446941D01*
X156442834Y-113308297D01*
X156514638Y-113272918D01*
X156769617Y-113127360D01*
X156905026Y-112997854D01*
X156955050Y-112854086D01*
X156956795Y-112733467D01*
X156910604Y-112613476D01*
X157312100Y-112613476D01*
X157323661Y-112985878D01*
X157336077Y-113274511D01*
X157359532Y-113562093D01*
X157398921Y-113750528D01*
X157464035Y-113880765D01*
X157564667Y-113993752D01*
X157573136Y-113999643D01*
X157821257Y-114172232D01*
X158181538Y-114254956D01*
X158552834Y-114177591D01*
X158735088Y-114077416D01*
X158870991Y-113932638D01*
X158952998Y-113718684D01*
X158993278Y-113402467D01*
X159004000Y-112950899D01*
X159003560Y-112871837D01*
X159427334Y-112871837D01*
X159433842Y-112950899D01*
X159438859Y-113011856D01*
X159551779Y-113257034D01*
X159796302Y-113420699D01*
X160186108Y-113514438D01*
X160329806Y-113535560D01*
X160468765Y-113585459D01*
X160520405Y-113699448D01*
X160528000Y-113930148D01*
X160528006Y-113937881D01*
X160540474Y-114168033D01*
X160590284Y-114274252D01*
X160697334Y-114300000D01*
X160756692Y-114294068D01*
X160807831Y-114255751D01*
X160840068Y-114157554D01*
X160857732Y-113972117D01*
X160865155Y-113672078D01*
X160866667Y-113230075D01*
X160866667Y-112455220D01*
X161246584Y-112455220D01*
X161270845Y-112527885D01*
X161433070Y-112561720D01*
X161718496Y-112547939D01*
X161780853Y-112540900D01*
X162030685Y-112530291D01*
X162197700Y-112575986D01*
X162351137Y-112693966D01*
X162500767Y-112919696D01*
X162567676Y-113230252D01*
X162531775Y-113543212D01*
X162390667Y-113792000D01*
X162323772Y-113842948D01*
X162109368Y-113926912D01*
X161857863Y-113964617D01*
X161633786Y-113949917D01*
X161501667Y-113876667D01*
X161484338Y-113853544D01*
X161369670Y-113792000D01*
X161368095Y-113792013D01*
X161297263Y-113853401D01*
X161308536Y-113984247D01*
X161395834Y-114110523D01*
X161515425Y-114183487D01*
X161827830Y-114253101D01*
X162175448Y-114216993D01*
X162501605Y-114085308D01*
X162749626Y-113868191D01*
X162852527Y-113654682D01*
X162909563Y-113311002D01*
X162884117Y-112955624D01*
X162774595Y-112665351D01*
X162721582Y-112595416D01*
X162447497Y-112387257D01*
X162094164Y-112267817D01*
X161719883Y-112250381D01*
X161382952Y-112348232D01*
X161375048Y-112352510D01*
X161246584Y-112455220D01*
X160866667Y-112455220D01*
X160866667Y-112160150D01*
X160312244Y-112204653D01*
X160240096Y-112210997D01*
X159850357Y-112277384D01*
X159600164Y-112398207D01*
X159466746Y-112590636D01*
X159427334Y-112871837D01*
X159003560Y-112871837D01*
X159002283Y-112642701D01*
X158991604Y-112393550D01*
X158964833Y-112255351D01*
X158914882Y-112195985D01*
X158834667Y-112183333D01*
X158762497Y-112192651D01*
X158709752Y-112244272D01*
X158680526Y-112370005D01*
X158667995Y-112601581D01*
X158665334Y-112970733D01*
X158665067Y-113069095D01*
X158652647Y-113463865D01*
X158611990Y-113722887D01*
X158529789Y-113873748D01*
X158392739Y-113944035D01*
X158187535Y-113961333D01*
X158027260Y-113946032D01*
X157845789Y-113854403D01*
X157729479Y-113661228D01*
X157667578Y-113344987D01*
X157649334Y-112884161D01*
X157648274Y-112644319D01*
X157638611Y-112392090D01*
X157611673Y-112253648D01*
X157558923Y-112195296D01*
X157471828Y-112183333D01*
X157462125Y-112183378D01*
X157383511Y-112195172D01*
X157336191Y-112249721D01*
X157314332Y-112378624D01*
X157312100Y-112613476D01*
X156910604Y-112613476D01*
X156858598Y-112478380D01*
X156634823Y-112307360D01*
X156311358Y-112244909D01*
X156069726Y-112270738D01*
X155864923Y-112337376D01*
X155744319Y-112424780D01*
X155749928Y-112512898D01*
X155784047Y-112528406D01*
X155951330Y-112554159D01*
X156196474Y-112564333D01*
X156310080Y-112565307D01*
X156495795Y-112583802D01*
X156574611Y-112643560D01*
X156591000Y-112767480D01*
X156578220Y-112865354D01*
X156483379Y-112984653D01*
X156261231Y-113084795D01*
X156199779Y-113106984D01*
X155968132Y-113206093D01*
X155816731Y-113294182D01*
X155742063Y-113407258D01*
X155705102Y-113637560D01*
X152569334Y-113637560D01*
X152569334Y-108560602D01*
X156335724Y-108560602D01*
X156356609Y-108674007D01*
X156431558Y-108907541D01*
X156549920Y-109230245D01*
X156701044Y-109611161D01*
X156797204Y-109840986D01*
X156985400Y-110251335D01*
X157138093Y-110513611D01*
X157263794Y-110637807D01*
X157371014Y-110633915D01*
X157468264Y-110511930D01*
X157517675Y-110412800D01*
X157631475Y-110156049D01*
X157714445Y-109953178D01*
X158432774Y-109953178D01*
X158447313Y-110138831D01*
X158601834Y-110355091D01*
X158724025Y-110465825D01*
X159007762Y-110596018D01*
X159304559Y-110606866D01*
X159511408Y-110523788D01*
X160216673Y-110523788D01*
X160254591Y-110591269D01*
X160358667Y-110659333D01*
X160463642Y-110592706D01*
X160513433Y-110448693D01*
X160475035Y-110318501D01*
X160451640Y-110299662D01*
X160326813Y-110292750D01*
X160226978Y-110384552D01*
X160216673Y-110523788D01*
X159511408Y-110523788D01*
X159567260Y-110501356D01*
X159748709Y-110282473D01*
X159784660Y-110162850D01*
X159748536Y-110043814D01*
X159628619Y-110036054D01*
X159464500Y-110157043D01*
X159256636Y-110291836D01*
X159025532Y-110307050D01*
X158838043Y-110197734D01*
X158832888Y-110191409D01*
X158756251Y-109994551D01*
X158774010Y-109953178D01*
X160803441Y-109953178D01*
X160817980Y-110138831D01*
X160835142Y-110162850D01*
X160972500Y-110355091D01*
X161075787Y-110448693D01*
X161094692Y-110465825D01*
X161378429Y-110596018D01*
X161675226Y-110606866D01*
X161937927Y-110501356D01*
X162119376Y-110282473D01*
X162155327Y-110162850D01*
X162119203Y-110043814D01*
X161999286Y-110036054D01*
X161835166Y-110157043D01*
X161627303Y-110291836D01*
X161396198Y-110307050D01*
X161208709Y-110197734D01*
X161203555Y-110191409D01*
X161126918Y-109994551D01*
X161197926Y-109829124D01*
X161396558Y-109743543D01*
X161408281Y-109741996D01*
X161566768Y-109670283D01*
X161637413Y-109550901D01*
X161608846Y-109438900D01*
X161469701Y-109389333D01*
X161303999Y-109344140D01*
X161176276Y-109202238D01*
X161170598Y-109019065D01*
X161262957Y-108922037D01*
X161451397Y-108882431D01*
X161659462Y-108924363D01*
X161818420Y-109045073D01*
X161910541Y-109138328D01*
X162049359Y-109136965D01*
X162077407Y-109113349D01*
X162098251Y-108986436D01*
X162014008Y-108829942D01*
X161856933Y-108687907D01*
X161659281Y-108604371D01*
X161631372Y-108599718D01*
X161358196Y-108607777D01*
X161100167Y-108689870D01*
X160933187Y-108823130D01*
X160878223Y-108970750D01*
X160887600Y-109206657D01*
X160992451Y-109388324D01*
X161054085Y-109451985D01*
X161056732Y-109548811D01*
X160950118Y-109706442D01*
X160926763Y-109736649D01*
X160803441Y-109953178D01*
X158774010Y-109953178D01*
X158827260Y-109829124D01*
X159025891Y-109743543D01*
X159037614Y-109741996D01*
X159196102Y-109670283D01*
X159266746Y-109550901D01*
X159238180Y-109438900D01*
X159099034Y-109389333D01*
X158933333Y-109344140D01*
X158805609Y-109202238D01*
X158799931Y-109019065D01*
X158892290Y-108922037D01*
X159080730Y-108882431D01*
X159288795Y-108924363D01*
X159447753Y-109045073D01*
X159539874Y-109138328D01*
X159678693Y-109136965D01*
X159706740Y-109113349D01*
X159727585Y-108986436D01*
X159643341Y-108829942D01*
X159486266Y-108687907D01*
X159288614Y-108604371D01*
X159260705Y-108599718D01*
X158987529Y-108607777D01*
X158729500Y-108689870D01*
X158562520Y-108823130D01*
X158507557Y-108970750D01*
X158516933Y-109206657D01*
X158621785Y-109388324D01*
X158683418Y-109451985D01*
X158686065Y-109548811D01*
X158579451Y-109706442D01*
X158556096Y-109736649D01*
X158432774Y-109953178D01*
X157714445Y-109953178D01*
X157762676Y-109835246D01*
X157897546Y-109487128D01*
X158022357Y-109148433D01*
X158123380Y-108855897D01*
X158186885Y-108646258D01*
X158199142Y-108556252D01*
X158194905Y-108552203D01*
X158081042Y-108544855D01*
X157937954Y-108698453D01*
X157769026Y-109008026D01*
X157577647Y-109468601D01*
X157280009Y-110258091D01*
X156975412Y-109471576D01*
X156957937Y-109426803D01*
X156765351Y-108983869D01*
X156594766Y-108686664D01*
X156450771Y-108541784D01*
X156337956Y-108555822D01*
X156335724Y-108560602D01*
X152569334Y-108560602D01*
X152569334Y-106764667D01*
X165692667Y-106764667D01*
X165692667Y-118787333D01*
X152569334Y-118787333D01*
G37*
G36*
X207179334Y-112776000D02*
G01*
X207007220Y-113129082D01*
X206727518Y-113365483D01*
X206559801Y-113429776D01*
X206222789Y-113485873D01*
X205879906Y-113477627D01*
X205611263Y-113402389D01*
X205564525Y-113378768D01*
X205426106Y-113346005D01*
X205401610Y-113434733D01*
X205489365Y-113648329D01*
X205548939Y-113742053D01*
X205807459Y-113950655D01*
X206169363Y-114056194D01*
X206604096Y-114047723D01*
X206978747Y-113991540D01*
X206978747Y-114321284D01*
X206977768Y-114379951D01*
X206956201Y-114595941D01*
X206915247Y-114716257D01*
X206904570Y-114723071D01*
X206765203Y-114746394D01*
X206512559Y-114754022D01*
X206192418Y-114744186D01*
X205895130Y-114721886D01*
X205616189Y-114675697D01*
X205399270Y-114594150D01*
X205183959Y-114460234D01*
X204885790Y-114201781D01*
X204652862Y-113855583D01*
X204514314Y-113419016D01*
X204455051Y-112858916D01*
X204448235Y-112532301D01*
X205334799Y-112532301D01*
X205350833Y-112693365D01*
X205433698Y-112795416D01*
X205548363Y-112860669D01*
X205826386Y-112889140D01*
X206113241Y-112769448D01*
X206189812Y-112698879D01*
X206291673Y-112479039D01*
X206298492Y-112220563D01*
X206222041Y-111973710D01*
X206074095Y-111788741D01*
X205866429Y-111715916D01*
X205664891Y-111774923D01*
X205481030Y-111980175D01*
X205366766Y-112313600D01*
X205334799Y-112532301D01*
X204448235Y-112532301D01*
X204448227Y-112531903D01*
X204466291Y-112253993D01*
X204521716Y-112032431D01*
X204624208Y-111806847D01*
X204673384Y-111719311D01*
X204962706Y-111385186D01*
X205347117Y-111188013D01*
X205834426Y-111123381D01*
X206174268Y-111155264D01*
X206606925Y-111309285D01*
X206941081Y-111574721D01*
X207156450Y-111933523D01*
X207206898Y-112220563D01*
X207232747Y-112367641D01*
X207179334Y-112776000D01*
G37*
G36*
X186120389Y-110513560D02*
G01*
X186147864Y-110517461D01*
X186170428Y-110532653D01*
X186048159Y-110543154D01*
X185801000Y-110546884D01*
X185728665Y-110546531D01*
X185520144Y-110540486D01*
X185447606Y-110528576D01*
X185527722Y-110512877D01*
X185539037Y-110511734D01*
X185840406Y-110499345D01*
X186120389Y-110513560D01*
G37*
G36*
X171948278Y-108966452D02*
G01*
X172185485Y-108977278D01*
X172323954Y-109017370D01*
X172410337Y-109105973D01*
X172491283Y-109262333D01*
X172632594Y-109558667D01*
X172043472Y-109558667D01*
X171910017Y-109558323D01*
X171649571Y-109549018D01*
X171495737Y-109514932D01*
X171402833Y-109440179D01*
X171325175Y-109308871D01*
X171316763Y-109292506D01*
X171231195Y-109112442D01*
X171196000Y-109012538D01*
X171196095Y-109011694D01*
X171278416Y-108988643D01*
X171485184Y-108972244D01*
X171772986Y-108966000D01*
X171948278Y-108966452D01*
G37*
G36*
X169204977Y-109812732D02*
G01*
X169494324Y-109819770D01*
X169664891Y-109848179D01*
X169760740Y-109911765D01*
X169825928Y-110024333D01*
X169922370Y-110236000D01*
X169334498Y-110236000D01*
X169090914Y-110232553D01*
X168862968Y-110211054D01*
X168732861Y-110160977D01*
X168658979Y-110072233D01*
X168606892Y-109965467D01*
X168571334Y-109860566D01*
X168571461Y-109859557D01*
X168654601Y-109835896D01*
X168862028Y-109819071D01*
X169150410Y-109812667D01*
X169204977Y-109812732D01*
G37*
G36*
X180055909Y-108902324D02*
G01*
X180479922Y-108983666D01*
X180884437Y-109134140D01*
X181229000Y-109349690D01*
X181483000Y-109557825D01*
X180191834Y-109558246D01*
X179733100Y-109556540D01*
X179335209Y-109546008D01*
X179074491Y-109520062D01*
X178933575Y-109472179D01*
X178895091Y-109395837D01*
X178941668Y-109284511D01*
X179055935Y-109131678D01*
X179071409Y-109113680D01*
X179311199Y-108963272D01*
X179652850Y-108894173D01*
X180055909Y-108902324D01*
G37*
G36*
X173747885Y-109830127D02*
G01*
X173769475Y-109831027D01*
X174081531Y-109850254D01*
X174267215Y-109883739D01*
X174367251Y-109944486D01*
X174422364Y-110045500D01*
X174439053Y-110093002D01*
X174447819Y-110174033D01*
X174385409Y-110216668D01*
X174219108Y-110233219D01*
X173916196Y-110236000D01*
X173858039Y-110235926D01*
X173571252Y-110228795D01*
X173402486Y-110199970D01*
X173307416Y-110135299D01*
X173241717Y-110020627D01*
X173143586Y-109805253D01*
X173747885Y-109830127D01*
G37*
G36*
X200406000Y-112776000D02*
G01*
X200233886Y-113129082D01*
X199954185Y-113365483D01*
X199786468Y-113429776D01*
X199449455Y-113485873D01*
X199106572Y-113477627D01*
X198837929Y-113402389D01*
X198791192Y-113378768D01*
X198652772Y-113346005D01*
X198628276Y-113434733D01*
X198716031Y-113648329D01*
X198775605Y-113742053D01*
X199034126Y-113950655D01*
X199396030Y-114056194D01*
X199830762Y-114047723D01*
X200205413Y-113991540D01*
X200205413Y-114321284D01*
X200204435Y-114379951D01*
X200182868Y-114595941D01*
X200141913Y-114716257D01*
X200131236Y-114723071D01*
X199991869Y-114746394D01*
X199739226Y-114754022D01*
X199419085Y-114744186D01*
X199121796Y-114721886D01*
X198842856Y-114675697D01*
X198625937Y-114594150D01*
X198410625Y-114460234D01*
X198112457Y-114201781D01*
X197879528Y-113855583D01*
X197740981Y-113419016D01*
X197681718Y-112858916D01*
X197674902Y-112532301D01*
X198561465Y-112532301D01*
X198577500Y-112693365D01*
X198660364Y-112795416D01*
X198775029Y-112860669D01*
X199053052Y-112889140D01*
X199339908Y-112769448D01*
X199416478Y-112698879D01*
X199518340Y-112479039D01*
X199525158Y-112220563D01*
X199448707Y-111973710D01*
X199300762Y-111788741D01*
X199093096Y-111715916D01*
X198891558Y-111774923D01*
X198707696Y-111980175D01*
X198593433Y-112313600D01*
X198561465Y-112532301D01*
X197674902Y-112532301D01*
X197674894Y-112531903D01*
X197692958Y-112253993D01*
X197748382Y-112032431D01*
X197850874Y-111806847D01*
X197900051Y-111719311D01*
X198189373Y-111385186D01*
X198573783Y-111188013D01*
X199061093Y-111123381D01*
X199400935Y-111155264D01*
X199833592Y-111309285D01*
X200167748Y-111574721D01*
X200383116Y-111933523D01*
X200433564Y-112220563D01*
X200459413Y-112367641D01*
X200406000Y-112776000D01*
G37*
G36*
X183884782Y-109262333D02*
G01*
X184059623Y-109558667D01*
X182219232Y-109558667D01*
X182126283Y-109292032D01*
X182119158Y-109271507D01*
X182058311Y-109087553D01*
X182033334Y-108995699D01*
X182068083Y-108987252D01*
X182238270Y-108976296D01*
X182518128Y-108968787D01*
X182871637Y-108966000D01*
X183709941Y-108966000D01*
X183884782Y-109262333D01*
G37*
G36*
X179846425Y-112076894D02*
G01*
X180091613Y-112461448D01*
X180296155Y-112783992D01*
X180443066Y-113017721D01*
X180515363Y-113135833D01*
X180525906Y-113155077D01*
X180542601Y-113224635D01*
X180481134Y-113263462D01*
X180311133Y-113280327D01*
X180002228Y-113284000D01*
X179404498Y-113284000D01*
X179174366Y-112903000D01*
X179090983Y-112777287D01*
X178927095Y-112592332D01*
X178795450Y-112522000D01*
X178716024Y-112529271D01*
X178657589Y-112584918D01*
X178678173Y-112724274D01*
X178776376Y-112981091D01*
X178906085Y-113291528D01*
X178297338Y-113266597D01*
X177688590Y-113241667D01*
X177541911Y-112818333D01*
X177472886Y-112621269D01*
X177350566Y-112276009D01*
X177204287Y-111865933D01*
X177052574Y-111443108D01*
X176779011Y-110683163D01*
X177825384Y-110683163D01*
X177879925Y-110881102D01*
X178008072Y-111208677D01*
X178044183Y-111292178D01*
X178181938Y-111569792D01*
X178298033Y-111716876D01*
X178411931Y-111760000D01*
X178499321Y-111755137D01*
X178534721Y-111707351D01*
X178458746Y-111569500D01*
X178399888Y-111475550D01*
X178257565Y-111240262D01*
X178100055Y-110973009D01*
X178077252Y-110934137D01*
X177926662Y-110702982D01*
X177841835Y-110621557D01*
X177825384Y-110683163D01*
X176779011Y-110683163D01*
X176709915Y-110491217D01*
X177783144Y-110511775D01*
X178856374Y-110532333D01*
X179609812Y-111707351D01*
X179643571Y-111760000D01*
X179846425Y-112076894D01*
G37*
G36*
X189270977Y-109812732D02*
G01*
X189560324Y-109819770D01*
X189730891Y-109848179D01*
X189826740Y-109911765D01*
X189891928Y-110024333D01*
X189988370Y-110236000D01*
X189400498Y-110236000D01*
X189156914Y-110232553D01*
X188928968Y-110211054D01*
X188798861Y-110160977D01*
X188724979Y-110072233D01*
X188672892Y-109965467D01*
X188637334Y-109860566D01*
X188637461Y-109859557D01*
X188720601Y-109835896D01*
X188928028Y-109819071D01*
X189216410Y-109812667D01*
X189270977Y-109812732D01*
G37*
G36*
X209346017Y-112056419D02*
G01*
X209719456Y-112904923D01*
X209983006Y-112331586D01*
X209983243Y-112331071D01*
X210131269Y-112004730D01*
X210266106Y-111700105D01*
X210358590Y-111483083D01*
X210379248Y-111433030D01*
X210447605Y-111304796D01*
X210544300Y-111237753D01*
X210716328Y-111212070D01*
X211010685Y-111207916D01*
X211550747Y-111207916D01*
X211550747Y-114679249D01*
X210708995Y-114679249D01*
X210661747Y-112435583D01*
X210077231Y-113840649D01*
X209739902Y-113815449D01*
X209591846Y-113800663D01*
X209469023Y-113759854D01*
X209373604Y-113662160D01*
X209275134Y-113474277D01*
X209143159Y-113162905D01*
X208883747Y-112535561D01*
X208860051Y-113607405D01*
X208836354Y-114679249D01*
X207910080Y-114679249D01*
X207910080Y-111207916D01*
X208972579Y-111207916D01*
X209346017Y-112056419D01*
G37*
G36*
X194798571Y-111888756D02*
G01*
X195494676Y-113284000D01*
X194480639Y-113284000D01*
X193966840Y-112259035D01*
X193911540Y-112149299D01*
X193727911Y-111793660D01*
X193574909Y-111510512D01*
X193467178Y-111326371D01*
X193419362Y-111267750D01*
X193431244Y-111347807D01*
X193491906Y-111556009D01*
X193591867Y-111859199D01*
X193720841Y-112224732D01*
X193844411Y-112569960D01*
X193954223Y-112886962D01*
X194028622Y-113113757D01*
X194056000Y-113216017D01*
X194043255Y-113233809D01*
X193915940Y-113268508D01*
X193696167Y-113280802D01*
X193336334Y-113277605D01*
X192759090Y-112357797D01*
X192659677Y-112199683D01*
X192386885Y-111770809D01*
X192198411Y-111485325D01*
X192092066Y-111341864D01*
X192065660Y-111339057D01*
X192117006Y-111475534D01*
X192243914Y-111749926D01*
X192444195Y-112160865D01*
X192497848Y-112269838D01*
X192677396Y-112638304D01*
X192822650Y-112942218D01*
X192919874Y-113152574D01*
X192955334Y-113240365D01*
X192906405Y-113259352D01*
X192729269Y-113277134D01*
X192467310Y-113284000D01*
X191979286Y-113284000D01*
X191283308Y-111889009D01*
X190587330Y-110494019D01*
X192344898Y-110493765D01*
X194102467Y-110493511D01*
X194798571Y-111888756D01*
G37*
D11*
X118235000Y-104612221D02*
X118235000Y-104937779D01*
X119255000Y-104612221D02*
X119255000Y-104937779D01*
X127760000Y-104937779D02*
X127760000Y-104612221D01*
X128780000Y-104937779D02*
X128780000Y-104612221D01*
X133161500Y-104612221D02*
X133161500Y-104937779D01*
X132141500Y-104612221D02*
X132141500Y-104937779D01*
X141730000Y-104937779D02*
X141730000Y-104612221D01*
X142750000Y-104937779D02*
X142750000Y-104612221D01*
X147131500Y-104612221D02*
X147131500Y-104937779D01*
X146111500Y-104612221D02*
X146111500Y-104937779D01*
X156720000Y-104937779D02*
X156720000Y-104612221D01*
X155700000Y-104937779D02*
X155700000Y-104612221D01*
X160145000Y-104586721D02*
X160145000Y-104912279D01*
X161165000Y-104586721D02*
X161165000Y-104912279D01*
X169670000Y-104937779D02*
X169670000Y-104612221D01*
X170690000Y-104937779D02*
X170690000Y-104612221D01*
X174115000Y-104586721D02*
X174115000Y-104912279D01*
X175135000Y-104586721D02*
X175135000Y-104912279D01*
X184723500Y-104548721D02*
X184723500Y-104874279D01*
X183703500Y-104548721D02*
X183703500Y-104874279D01*
X189041500Y-104937779D02*
X189041500Y-104612221D01*
X188021500Y-104937779D02*
X188021500Y-104612221D01*
X201991500Y-104899779D02*
X201991500Y-104574221D01*
X203011500Y-104899779D02*
X203011500Y-104574221D01*
X211580000Y-104612221D02*
X211580000Y-104937779D01*
X212600000Y-104612221D02*
X212600000Y-104937779D01*
X216981500Y-104937779D02*
X216981500Y-104612221D01*
X215961500Y-104937779D02*
X215961500Y-104612221D01*
X225550000Y-104586721D02*
X225550000Y-104912279D01*
X226570000Y-104586721D02*
X226570000Y-104912279D01*
X235460000Y-104899779D02*
X235460000Y-104574221D01*
X234440000Y-104899779D02*
X234440000Y-104574221D01*
X244985000Y-104574221D02*
X244985000Y-104899779D01*
X243965000Y-104574221D02*
X243965000Y-104899779D01*
X198630000Y-104586721D02*
X198630000Y-104912279D01*
X197610000Y-104586721D02*
X197610000Y-104912279D01*
%LPC*%
D12*
X233521000Y-126140000D02*
X128521000Y-126140000D01*
X128521000Y-126140000D02*
X128521000Y-121060000D01*
X128521000Y-121060000D02*
X233521000Y-121060000D01*
X233521000Y-121060000D02*
X233521000Y-126140000D01*
G36*
X233521000Y-126140000D02*
G01*
X128521000Y-126140000D01*
X128521000Y-121060000D01*
X233521000Y-121060000D01*
X233521000Y-126140000D01*
G37*
X233521000Y-126140000D02*
X128521000Y-126140000D01*
X128521000Y-121060000D01*
X233521000Y-121060000D01*
X233521000Y-126140000D01*
D13*
X118745000Y-103987500D03*
X118745000Y-105562500D03*
D14*
X128270000Y-105562500D03*
X128270000Y-103987500D03*
D13*
X132651500Y-103987500D03*
X132651500Y-105562500D03*
D14*
X142240000Y-105562500D03*
X142240000Y-103987500D03*
D13*
X146621500Y-103987500D03*
X146621500Y-105562500D03*
D14*
X156210000Y-105562500D03*
X156210000Y-103987500D03*
D13*
X160655000Y-103962000D03*
X160655000Y-105537000D03*
D14*
X170180000Y-105562500D03*
X170180000Y-103987500D03*
D13*
X174625000Y-103962000D03*
X174625000Y-105537000D03*
X184213500Y-103924000D03*
X184213500Y-105499000D03*
D14*
X188531500Y-105562500D03*
X188531500Y-103987500D03*
X202501500Y-105524500D03*
X202501500Y-103949500D03*
D13*
X212090000Y-103987500D03*
X212090000Y-105562500D03*
D14*
X216471500Y-105562500D03*
X216471500Y-103987500D03*
D13*
X226060000Y-103962000D03*
X226060000Y-105537000D03*
D14*
X234950000Y-105524500D03*
X234950000Y-103949500D03*
D13*
X244475000Y-103949500D03*
X244475000Y-105524500D03*
X198120000Y-103962000D03*
X198120000Y-105537000D03*
M02*
