M48
; DRILL file {KiCad (6.0.0)} date Wed Jan 26 20:37:46 2022
; FORMAT={-:-/ absolute / metric / decimal}
; #@! TF.CreationDate,2022-01-26T20:37:46-08:00
; #@! TF.GenerationSoftware,Kicad,Pcbnew,(6.0.0)
; #@! TF.FileFunction,Plated,1,4,PTH
FMAT,2
METRIC
; #@! TA.AperFunction,Plated,PTH,ViaDrill
T1C0.300
%
G90
G05
T1
X118.694Y-100.33
X120.287Y-108.572
X120.396Y-104.14
X120.396Y-105.41
X121.305Y-108.588
X126.492Y-104.14
X126.492Y-105.41
X128.27Y-100.33
X129.54Y-119.888
X130.81Y-119.888
X130.814Y-116.006
X132.08Y-119.888
X132.664Y-109.22
X133.35Y-119.888
X134.366Y-104.394
X134.366Y-105.41
X134.62Y-119.888
X135.89Y-119.888
X137.16Y-119.888
X138.43Y-119.888
X139.7Y-119.888
X140.175Y-114.44
X140.198Y-100.099
X140.462Y-104.14
X140.462Y-105.41
X140.97Y-119.888
X142.24Y-119.888
X143.51Y-119.888
X143.924Y-101.626
X144.357Y-102.301
X144.78Y-119.888
X145.026Y-102.88
X146.05Y-119.888
X146.634Y-100.33
X147.32Y-119.888
X148.336Y-104.14
X148.336Y-105.41
X152.844Y-102.916
X154.686Y-104.14
X154.686Y-105.41
X156.21Y-100.33
X158.75Y-120.142
X158.979Y-114.932
X160.604Y-109.22
X161.074Y-116.858
X162.052Y-104.14
X162.052Y-105.41
X162.58Y-106.665
X163.642Y-106.677
X164.831Y-107.942
X165.933Y-107.947
X168.021Y-100.134
X168.656Y-104.14
X168.656Y-105.41
X170.18Y-120.142
X171.869Y-107.66
X172.26Y-108.396
X172.936Y-108.892
X174.574Y-100.33
X176.022Y-104.14
X176.022Y-105.41
X177.183Y-105.27
X177.416Y-106.685
X178.46Y-106.738
X178.928Y-107.95
X181.864Y-120.396
X182.377Y-114.363
X182.626Y-104.14
X182.626Y-105.41
X184.15Y-100.33
X184.15Y-107.95
X189.992Y-104.14
X189.992Y-105.41
X195.58Y-120.396
X196.596Y-104.14
X196.596Y-105.41
X196.85Y-120.396
X198.12Y-114.3
X199.774Y-119.558
X199.921Y-100.307
X200.294Y-107.47
X200.327Y-108.524
X200.345Y-118.984
X200.727Y-115.659
X200.891Y-117.587
X201.544Y-115.684
X202.514Y-100.33
X202.514Y-101.6
X202.514Y-109.22
X202.822Y-115.829
X203.962Y-104.14
X203.962Y-105.41
X204.153Y-115.926
X204.384Y-102.867
X204.954Y-117.631
X205.049Y-118.468
X205.425Y-102.944
X205.819Y-101.6
X206.233Y-105.58
X206.355Y-106.86
X206.901Y-115.875
X206.929Y-117.775
X206.964Y-116.779
X207.01Y-120.396
X208.176Y-107.945
X208.366Y-104.823
X210.566Y-104.094
X210.566Y-105.41
X212.09Y-100.33
X212.09Y-120.396
X214.889Y-104.76
X215.9Y-120.396
X216.484Y-100.33
X217.424Y-120.396
X217.51Y-116.982
X217.932Y-104.14
X217.932Y-105.41
X218.57Y-115.806
X218.59Y-100.452
X219.718Y-115.786
X222.25Y-120.396
X222.687Y-115.672
X223.512Y-117.917
X223.52Y-120.396
X223.937Y-118.621
X224.343Y-115.679
X224.536Y-104.14
X224.536Y-105.41
X224.574Y-119.273
X224.716Y-120.348
X225.278Y-116.355
X226.814Y-119.974
X227.955Y-103.683
X230.449Y-106.152
X230.632Y-100.142
X231.394Y-120.396
X231.67Y-97.396
X231.67Y-98.657
X231.67Y-103.492
X232.175Y-111.525
X232.664Y-120.396
X232.791Y-98.425
X233.086Y-107.673
X234.95Y-95.25
X234.95Y-96.52
X234.95Y-110.49
X236.474Y-104.14
X236.474Y-105.41
X237.038Y-99.865
X237.769Y-112.149
X239.197Y-113.03
X240.284Y-109.22
X241.15Y-109.172
X242.509Y-109.86
X242.628Y-98.943
X242.646Y-108.057
X242.669Y-100.995
X242.758Y-99.789
X242.824Y-104.14
X242.824Y-105.41
X244.526Y-110.49
X244.526Y-111.76
X244.526Y-100.33
X244.602Y-114.3
T0
M30
