G04 #@! TF.GenerationSoftware,KiCad,Pcbnew,(6.0.0)*
G04 #@! TF.CreationDate,2022-01-26T20:37:23-08:00*
G04 #@! TF.ProjectId,M919_cache,4d393139-5f63-4616-9368-652e6b696361,rev?*
G04 #@! TF.SameCoordinates,Original*
G04 #@! TF.FileFunction,Copper,L1,Top*
G04 #@! TF.FilePolarity,Positive*
%FSLAX46Y46*%
G04 Gerber Fmt 4.6, Leading zero omitted, Abs format (unit mm)*
G04 Created by KiCad (PCBNEW (6.0.0)) date 2022-01-26 20:37:23*
%MOMM*%
%LPD*%
G01*
G04 APERTURE LIST*
G04 #@! TA.AperFunction,ConnectorPad*
%ADD10R,0.914000X4.978000*%
G04 #@! TD*
G04 #@! TA.AperFunction,SMDPad,CuDef*
%ADD11R,0.800000X0.500000*%
G04 #@! TD*
G04 #@! TA.AperFunction,SMDPad,CuDef*
%ADD12R,0.800000X0.400000*%
G04 #@! TD*
G04 #@! TA.AperFunction,SMDPad,CuDef*
%ADD13R,2.159000X0.508000*%
G04 #@! TD*
G04 #@! TA.AperFunction,ViaPad*
%ADD14C,0.600000*%
G04 #@! TD*
G04 #@! TA.AperFunction,Conductor*
%ADD15C,0.750000*%
G04 #@! TD*
G04 #@! TA.AperFunction,Conductor*
%ADD16C,0.500000*%
G04 #@! TD*
G04 #@! TA.AperFunction,Conductor*
%ADD17C,0.250000*%
G04 #@! TD*
G04 APERTURE END LIST*
D10*
X129581000Y-123600000D03*
X130851000Y-123600000D03*
X132121000Y-123600000D03*
X133391000Y-123600000D03*
X134661000Y-123600000D03*
X135931000Y-123600000D03*
X137201000Y-123600000D03*
X138471000Y-123600000D03*
X139741000Y-123600000D03*
X141011000Y-123600000D03*
X142281000Y-123600000D03*
X143551000Y-123600000D03*
X144821000Y-123600000D03*
X146091000Y-123600000D03*
X147361000Y-123600000D03*
X148631000Y-123600000D03*
X149901000Y-123600000D03*
X151171000Y-123600000D03*
X152441000Y-123600000D03*
X153711000Y-123600000D03*
X154981000Y-123600000D03*
X156251000Y-123600000D03*
X157521000Y-123600000D03*
X158791000Y-123600000D03*
X160061000Y-123600000D03*
X161331000Y-123600000D03*
X162601000Y-123600000D03*
X163871000Y-123600000D03*
X165141000Y-123600000D03*
X166411000Y-123600000D03*
X167681000Y-123600000D03*
X168951000Y-123600000D03*
X170221000Y-123600000D03*
X171491000Y-123600000D03*
X172761000Y-123600000D03*
X174031000Y-123600000D03*
X175301000Y-123600000D03*
X176571000Y-123600000D03*
X177841000Y-123600000D03*
X179111000Y-123600000D03*
X180381000Y-123600000D03*
X181651000Y-123600000D03*
X185461000Y-123600000D03*
X186731000Y-123600000D03*
X188001000Y-123600000D03*
X189271000Y-123600000D03*
X190541000Y-123600000D03*
X191811000Y-123600000D03*
X193081000Y-123600000D03*
X194351000Y-123600000D03*
X195621000Y-123600000D03*
X196891000Y-123600000D03*
X198161000Y-123600000D03*
X199431000Y-123600000D03*
X200701000Y-123600000D03*
X201971000Y-123600000D03*
X203241000Y-123600000D03*
X204511000Y-123600000D03*
X205781000Y-123600000D03*
X207051000Y-123600000D03*
X208321000Y-123600000D03*
X209591000Y-123600000D03*
X210861000Y-123600000D03*
X212131000Y-123600000D03*
X213401000Y-123600000D03*
X214671000Y-123600000D03*
X215941000Y-123600000D03*
X217211000Y-123600000D03*
X218481000Y-123600000D03*
X219751000Y-123600000D03*
X221021000Y-123600000D03*
X222291000Y-123600000D03*
X223561000Y-123600000D03*
X224831000Y-123600000D03*
X226101000Y-123600000D03*
X227371000Y-123600000D03*
X228641000Y-123600000D03*
X229911000Y-123600000D03*
X231181000Y-123600000D03*
X232451000Y-123600000D03*
D11*
X231670000Y-110350000D03*
D12*
X231670000Y-109550000D03*
X231670000Y-108750000D03*
D11*
X231670000Y-107950000D03*
X229870000Y-107950000D03*
D12*
X229870000Y-108750000D03*
X229870000Y-109550000D03*
D11*
X229870000Y-110350000D03*
D13*
X118694200Y-95250000D03*
X118694200Y-96520000D03*
X118694200Y-97790000D03*
X118694200Y-99060000D03*
X118694200Y-100330000D03*
X118694200Y-101600000D03*
X118694200Y-102870000D03*
X118694200Y-104140000D03*
X118694200Y-105410000D03*
X118694200Y-106680000D03*
X118694200Y-107950000D03*
X118694200Y-109220000D03*
X118694200Y-110490000D03*
X118694200Y-111760000D03*
X118694200Y-113030000D03*
X118694200Y-114300000D03*
X128270000Y-114300000D03*
X128270000Y-113030000D03*
X128270000Y-111760000D03*
X128270000Y-110490000D03*
X128270000Y-109220000D03*
X128270000Y-107950000D03*
X128270000Y-106680000D03*
X128270000Y-105410000D03*
X128270000Y-104140000D03*
X128270000Y-102870000D03*
X128270000Y-101600000D03*
X128270000Y-100330000D03*
X128270000Y-99060000D03*
X128270000Y-97790000D03*
X128270000Y-96520000D03*
X128270000Y-95250000D03*
X132664200Y-95250000D03*
X132664200Y-96520000D03*
X132664200Y-97790000D03*
X132664200Y-99060000D03*
X132664200Y-100330000D03*
X132664200Y-101600000D03*
X132664200Y-102870000D03*
X132664200Y-104140000D03*
X132664200Y-105410000D03*
X132664200Y-106680000D03*
X132664200Y-107950000D03*
X132664200Y-109220000D03*
X132664200Y-110490000D03*
X132664200Y-111760000D03*
X132664200Y-113030000D03*
X132664200Y-114300000D03*
X142240000Y-114300000D03*
X142240000Y-113030000D03*
X142240000Y-111760000D03*
X142240000Y-110490000D03*
X142240000Y-109220000D03*
X142240000Y-107950000D03*
X142240000Y-106680000D03*
X142240000Y-105410000D03*
X142240000Y-104140000D03*
X142240000Y-102870000D03*
X142240000Y-101600000D03*
X142240000Y-100330000D03*
X142240000Y-99060000D03*
X142240000Y-97790000D03*
X142240000Y-96520000D03*
X142240000Y-95250000D03*
X146634200Y-95250000D03*
X146634200Y-96520000D03*
X146634200Y-97790000D03*
X146634200Y-99060000D03*
X146634200Y-100330000D03*
X146634200Y-101600000D03*
X146634200Y-102870000D03*
X146634200Y-104140000D03*
X146634200Y-105410000D03*
X146634200Y-106680000D03*
X146634200Y-107950000D03*
X146634200Y-109220000D03*
X146634200Y-110490000D03*
X146634200Y-111760000D03*
X146634200Y-113030000D03*
X146634200Y-114300000D03*
X156210000Y-114300000D03*
X156210000Y-113030000D03*
X156210000Y-111760000D03*
X156210000Y-110490000D03*
X156210000Y-109220000D03*
X156210000Y-107950000D03*
X156210000Y-106680000D03*
X156210000Y-105410000D03*
X156210000Y-104140000D03*
X156210000Y-102870000D03*
X156210000Y-101600000D03*
X156210000Y-100330000D03*
X156210000Y-99060000D03*
X156210000Y-97790000D03*
X156210000Y-96520000D03*
X156210000Y-95250000D03*
X160604200Y-95250000D03*
X160604200Y-96520000D03*
X160604200Y-97790000D03*
X160604200Y-99060000D03*
X160604200Y-100330000D03*
X160604200Y-101600000D03*
X160604200Y-102870000D03*
X160604200Y-104140000D03*
X160604200Y-105410000D03*
X160604200Y-106680000D03*
X160604200Y-107950000D03*
X160604200Y-109220000D03*
X160604200Y-110490000D03*
X160604200Y-111760000D03*
X160604200Y-113030000D03*
X160604200Y-114300000D03*
X170180000Y-114300000D03*
X170180000Y-113030000D03*
X170180000Y-111760000D03*
X170180000Y-110490000D03*
X170180000Y-109220000D03*
X170180000Y-107950000D03*
X170180000Y-106680000D03*
X170180000Y-105410000D03*
X170180000Y-104140000D03*
X170180000Y-102870000D03*
X170180000Y-101600000D03*
X170180000Y-100330000D03*
X170180000Y-99060000D03*
X170180000Y-97790000D03*
X170180000Y-96520000D03*
X170180000Y-95250000D03*
X174574200Y-95250000D03*
X174574200Y-96520000D03*
X174574200Y-97790000D03*
X174574200Y-99060000D03*
X174574200Y-100330000D03*
X174574200Y-101600000D03*
X174574200Y-102870000D03*
X174574200Y-104140000D03*
X174574200Y-105410000D03*
X174574200Y-106680000D03*
X174574200Y-107950000D03*
X174574200Y-109220000D03*
X174574200Y-110490000D03*
X174574200Y-111760000D03*
X174574200Y-113030000D03*
X174574200Y-114300000D03*
X184150000Y-114300000D03*
X184150000Y-113030000D03*
X184150000Y-111760000D03*
X184150000Y-110490000D03*
X184150000Y-109220000D03*
X184150000Y-107950000D03*
X184150000Y-106680000D03*
X184150000Y-105410000D03*
X184150000Y-104140000D03*
X184150000Y-102870000D03*
X184150000Y-101600000D03*
X184150000Y-100330000D03*
X184150000Y-99060000D03*
X184150000Y-97790000D03*
X184150000Y-96520000D03*
X184150000Y-95250000D03*
X202514200Y-95250000D03*
X202514200Y-96520000D03*
X202514200Y-97790000D03*
X202514200Y-99060000D03*
X202514200Y-100330000D03*
X202514200Y-101600000D03*
X202514200Y-102870000D03*
X202514200Y-104140000D03*
X202514200Y-105410000D03*
X202514200Y-106680000D03*
X202514200Y-107950000D03*
X202514200Y-109220000D03*
X202514200Y-110490000D03*
X202514200Y-111760000D03*
X202514200Y-113030000D03*
X202514200Y-114300000D03*
X212090000Y-114300000D03*
X212090000Y-113030000D03*
X212090000Y-111760000D03*
X212090000Y-110490000D03*
X212090000Y-109220000D03*
X212090000Y-107950000D03*
X212090000Y-106680000D03*
X212090000Y-105410000D03*
X212090000Y-104140000D03*
X212090000Y-102870000D03*
X212090000Y-101600000D03*
X212090000Y-100330000D03*
X212090000Y-99060000D03*
X212090000Y-97790000D03*
X212090000Y-96520000D03*
X212090000Y-95250000D03*
X216484200Y-95250000D03*
X216484200Y-96520000D03*
X216484200Y-97790000D03*
X216484200Y-99060000D03*
X216484200Y-100330000D03*
X216484200Y-101600000D03*
X216484200Y-102870000D03*
X216484200Y-104140000D03*
X216484200Y-105410000D03*
X216484200Y-106680000D03*
X216484200Y-107950000D03*
X216484200Y-109220000D03*
X216484200Y-110490000D03*
X216484200Y-111760000D03*
X216484200Y-113030000D03*
X216484200Y-114300000D03*
X226060000Y-114300000D03*
X226060000Y-113030000D03*
X226060000Y-111760000D03*
X226060000Y-110490000D03*
X226060000Y-109220000D03*
X226060000Y-107950000D03*
X226060000Y-106680000D03*
X226060000Y-105410000D03*
X226060000Y-104140000D03*
X226060000Y-102870000D03*
X226060000Y-101600000D03*
X226060000Y-100330000D03*
X226060000Y-99060000D03*
X226060000Y-97790000D03*
X226060000Y-96520000D03*
X226060000Y-95250000D03*
X234950000Y-95250000D03*
X234950000Y-96520000D03*
X234950000Y-97790000D03*
X234950000Y-99060000D03*
X234950000Y-100330000D03*
X234950000Y-101600000D03*
X234950000Y-102870000D03*
X234950000Y-104140000D03*
X234950000Y-105410000D03*
X234950000Y-106680000D03*
X234950000Y-107950000D03*
X234950000Y-109220000D03*
X234950000Y-110490000D03*
X234950000Y-111760000D03*
X234950000Y-113030000D03*
X234950000Y-114300000D03*
X244525800Y-114300000D03*
X244525800Y-113030000D03*
X244525800Y-111760000D03*
X244525800Y-110490000D03*
X244525800Y-109220000D03*
X244525800Y-107950000D03*
X244525800Y-106680000D03*
X244525800Y-105410000D03*
X244525800Y-104140000D03*
X244525800Y-102870000D03*
X244525800Y-101600000D03*
X244525800Y-100330000D03*
X244525800Y-99060000D03*
X244525800Y-97790000D03*
X244525800Y-96520000D03*
X244525800Y-95250000D03*
X188544200Y-95250000D03*
X188544200Y-96520000D03*
X188544200Y-97790000D03*
X188544200Y-99060000D03*
X188544200Y-100330000D03*
X188544200Y-101600000D03*
X188544200Y-102870000D03*
X188544200Y-104140000D03*
X188544200Y-105410000D03*
X188544200Y-106680000D03*
X188544200Y-107950000D03*
X188544200Y-109220000D03*
X188544200Y-110490000D03*
X188544200Y-111760000D03*
X188544200Y-113030000D03*
X188544200Y-114300000D03*
X198120000Y-114300000D03*
X198120000Y-113030000D03*
X198120000Y-111760000D03*
X198120000Y-110490000D03*
X198120000Y-109220000D03*
X198120000Y-107950000D03*
X198120000Y-106680000D03*
X198120000Y-105410000D03*
X198120000Y-104140000D03*
X198120000Y-102870000D03*
X198120000Y-101600000D03*
X198120000Y-100330000D03*
X198120000Y-99060000D03*
X198120000Y-97790000D03*
X198120000Y-96520000D03*
X198120000Y-95250000D03*
D11*
X231670000Y-103492000D03*
D12*
X231670000Y-102692000D03*
X231670000Y-101892000D03*
D11*
X231670000Y-101092000D03*
X229870000Y-101092000D03*
D12*
X229870000Y-101892000D03*
X229870000Y-102692000D03*
D11*
X229870000Y-103492000D03*
X231670000Y-115900000D03*
D12*
X231670000Y-115100000D03*
X231670000Y-114300000D03*
D11*
X231670000Y-113500000D03*
X229870000Y-113500000D03*
D12*
X229870000Y-114300000D03*
X229870000Y-115100000D03*
D11*
X229870000Y-115900000D03*
X231670000Y-97396000D03*
D12*
X231670000Y-96596000D03*
X231670000Y-95796000D03*
D11*
X231670000Y-94996000D03*
X229870000Y-94996000D03*
D12*
X229870000Y-95796000D03*
X229870000Y-96596000D03*
D11*
X229870000Y-97396000D03*
D14*
X142240000Y-119888000D03*
X144780000Y-119888000D03*
X182626000Y-104140000D03*
X168656000Y-104140000D03*
X231394000Y-120396000D03*
X207010000Y-120396000D03*
X132080000Y-119888000D03*
X222250000Y-120396000D03*
X236474000Y-105410000D03*
X237037880Y-99865180D03*
X126492000Y-104140000D03*
X139700000Y-119888000D03*
X244525807Y-100329993D03*
X189992000Y-105410000D03*
X129540000Y-119888000D03*
X162052000Y-105410000D03*
X176022000Y-105410000D03*
X217932000Y-105410000D03*
X210566000Y-104093991D03*
X148336000Y-105410000D03*
X134366000Y-105410000D03*
X196596000Y-104140000D03*
X215900000Y-120396000D03*
X143510000Y-119888000D03*
X133350000Y-119888000D03*
X170180000Y-120142000D03*
X195580000Y-120396000D03*
X140970000Y-119888000D03*
X130810000Y-119888000D03*
X120396000Y-105410000D03*
X242824000Y-104140000D03*
X203962000Y-105410000D03*
X224536000Y-104140000D03*
X140462000Y-104140000D03*
X154686000Y-104140000D03*
X217424000Y-120396000D03*
X138430000Y-119888000D03*
X147320000Y-119888000D03*
X146050000Y-119888000D03*
X182626014Y-105410000D03*
X176022000Y-104140000D03*
X217932000Y-104140000D03*
X203962000Y-104140000D03*
X148336000Y-104140000D03*
X196596000Y-105410000D03*
X126492000Y-105410000D03*
X196850000Y-120396000D03*
X168656000Y-105410000D03*
X223520000Y-120396000D03*
X162052000Y-104140000D03*
X236474000Y-104140000D03*
X158750000Y-120142000D03*
X242824000Y-105410000D03*
X137160000Y-119888000D03*
X244602000Y-114300000D03*
X135890000Y-119888000D03*
X134620000Y-119888000D03*
X120396000Y-104140000D03*
X134366000Y-104394000D03*
X154686000Y-105410000D03*
X232664000Y-120396000D03*
X181864000Y-120396000D03*
X210566000Y-105410000D03*
X224536000Y-105410000D03*
X189992000Y-104140000D03*
X212090000Y-120396000D03*
X140462000Y-105410000D03*
X242628420Y-98943160D03*
X242757960Y-99788980D03*
X242669060Y-100995480D03*
X241150140Y-109171740D03*
X240283998Y-109220000D03*
X230632000Y-100142040D03*
X231670000Y-97396000D03*
X232791000Y-98425000D03*
X231670000Y-103492000D03*
X230449120Y-106151680D03*
X227954840Y-103682800D03*
X242508879Y-109860241D03*
X244525800Y-110490000D03*
X244525800Y-111760000D03*
X214889080Y-104759760D03*
X208366360Y-104823260D03*
X128270000Y-100330000D03*
X202821540Y-115829080D03*
X212090000Y-100330000D03*
X184150000Y-100330000D03*
X156210000Y-100330000D03*
X146634200Y-100330000D03*
X202514200Y-100330000D03*
X174574200Y-100330000D03*
X204152500Y-115925600D03*
X118694200Y-100330000D03*
X132664200Y-109220000D03*
X130813810Y-116005610D03*
X200345040Y-118983760D03*
X161074100Y-116857780D03*
X199773540Y-119557798D03*
X160604200Y-109220000D03*
X202514200Y-109220000D03*
X200726542Y-115658576D03*
X200891140Y-117586590D03*
X208175860Y-107944920D03*
X200294240Y-107469940D03*
X206354682Y-106860340D03*
X206232760Y-105580180D03*
X205425040Y-102943660D03*
X204383640Y-102867460D03*
X205818740Y-101600000D03*
X202514200Y-101600000D03*
X184150000Y-107950000D03*
X178927760Y-107950000D03*
X178460400Y-106738420D03*
X177416460Y-106685080D03*
X177182780Y-105270300D03*
X172935900Y-108892340D03*
X172260324Y-108395999D03*
X171869100Y-107660442D03*
X165933120Y-107947460D03*
X164830760Y-107942380D03*
X163642040Y-106677460D03*
X162580320Y-106664760D03*
X152844500Y-102916009D03*
X145026380Y-102880160D03*
X144356875Y-102301500D03*
X143924020Y-101625570D03*
X121305320Y-108587540D03*
X120286780Y-108572300D03*
X226814380Y-119974360D03*
X242646200Y-108056680D03*
X224716340Y-120347740D03*
X234950000Y-95250000D03*
X234950000Y-96520000D03*
X224574100Y-119273320D03*
X223936614Y-118620626D03*
X231670000Y-98657000D03*
X223512380Y-117917130D03*
X233085640Y-107673140D03*
X234950000Y-110490000D03*
X225277680Y-116354860D03*
X222686880Y-115671600D03*
X232175050Y-111525050D03*
X237769400Y-112148620D03*
X219717620Y-115785900D03*
X224342960Y-115679220D03*
X217510360Y-116982240D03*
X239196880Y-113030000D03*
X218569540Y-115806220D03*
X204954006Y-117630622D03*
X140197840Y-100098860D03*
X218589860Y-100451920D03*
X206964280Y-116779040D03*
X199920860Y-100307140D03*
X168021000Y-100134420D03*
X206928720Y-117774720D03*
X205049120Y-118468142D03*
X216484200Y-100330000D03*
X140174980Y-114439700D03*
X158978600Y-114932460D03*
X206900780Y-115874800D03*
X182377080Y-114363500D03*
X198120000Y-114300000D03*
X200327260Y-108524040D03*
X201543921Y-115684300D03*
D15*
X129581000Y-119929000D02*
X129540000Y-119888000D01*
X142240000Y-123559000D02*
X142281000Y-123600000D01*
X141011000Y-119929000D02*
X140970000Y-119888000D01*
X130851000Y-123600000D02*
X130851000Y-119929000D01*
X170221000Y-123600000D02*
X170221000Y-120183000D01*
D16*
X168656000Y-104140000D02*
X170180000Y-104140000D01*
D15*
X195621000Y-123600000D02*
X195621000Y-120437000D01*
X132121000Y-119929000D02*
X132080000Y-119888000D01*
D16*
X212090000Y-104140000D02*
X210612009Y-104140000D01*
D15*
X144780000Y-119888000D02*
X144780000Y-123559000D01*
D16*
X236474000Y-105410000D02*
X234950000Y-105410000D01*
D15*
X195621000Y-120437000D02*
X195580000Y-120396000D01*
X132121000Y-123600000D02*
X132121000Y-119929000D01*
X139700000Y-119888000D02*
X139700000Y-123559000D01*
D16*
X217932000Y-105410000D02*
X216484200Y-105410000D01*
X203962000Y-105410000D02*
X202514200Y-105410000D01*
D15*
X207051000Y-120437000D02*
X207010000Y-120396000D01*
D17*
X244525800Y-100330000D02*
X244525807Y-100329993D01*
D15*
X215941000Y-120437000D02*
X215900000Y-120396000D01*
D16*
X148336000Y-105410000D02*
X146634200Y-105410000D01*
D15*
X207051000Y-123600000D02*
X207051000Y-120437000D01*
X144780000Y-123559000D02*
X144821000Y-123600000D01*
X141011000Y-123600000D02*
X141011000Y-119929000D01*
X139700000Y-123559000D02*
X139741000Y-123600000D01*
X133391000Y-119929000D02*
X133350000Y-119888000D01*
D17*
X236573060Y-100330000D02*
X237037880Y-99865180D01*
D15*
X143551000Y-119929000D02*
X143510000Y-119888000D01*
D16*
X210612009Y-104140000D02*
X210566000Y-104093991D01*
X126492000Y-104140000D02*
X128270000Y-104140000D01*
X196596000Y-104140000D02*
X198120000Y-104140000D01*
D15*
X133391000Y-123600000D02*
X133391000Y-119929000D01*
D16*
X176022000Y-105410000D02*
X174574200Y-105410000D01*
D15*
X222291000Y-120437000D02*
X222250000Y-120396000D01*
D16*
X189992000Y-105410000D02*
X188544200Y-105410000D01*
X162052000Y-105410000D02*
X160604200Y-105410000D01*
X242824000Y-104140000D02*
X244525800Y-104140000D01*
D15*
X231181000Y-120609000D02*
X231394000Y-120396000D01*
X222291000Y-123600000D02*
X222291000Y-120437000D01*
D16*
X120396000Y-105410000D02*
X118694200Y-105410000D01*
D15*
X170221000Y-120183000D02*
X170180000Y-120142000D01*
D16*
X140462000Y-104140000D02*
X142240000Y-104140000D01*
X134366000Y-105410000D02*
X132664200Y-105410000D01*
D17*
X234950000Y-100330000D02*
X236573060Y-100330000D01*
D15*
X143551000Y-123600000D02*
X143551000Y-119929000D01*
D16*
X182626000Y-104140000D02*
X184150000Y-104140000D01*
D15*
X130851000Y-119929000D02*
X130810000Y-119888000D01*
D16*
X224536000Y-104140000D02*
X226060000Y-104140000D01*
D15*
X142240000Y-119888000D02*
X142240000Y-123559000D01*
X215941000Y-123600000D02*
X215941000Y-120437000D01*
X129581000Y-123600000D02*
X129581000Y-119929000D01*
X231181000Y-123600000D02*
X231181000Y-120609000D01*
D16*
X154686000Y-104140000D02*
X156210000Y-104140000D01*
D15*
X223561000Y-120437000D02*
X223520000Y-120396000D01*
X135931000Y-123600000D02*
X135931000Y-119929000D01*
D16*
X134112000Y-104140000D02*
X132664200Y-104140000D01*
X196596000Y-105410000D02*
X198120000Y-105410000D01*
X203962000Y-104140000D02*
X202514200Y-104140000D01*
D15*
X181651000Y-120609000D02*
X181864000Y-120396000D01*
X212131000Y-123600000D02*
X212131000Y-120437000D01*
X196891000Y-120437000D02*
X196850000Y-120396000D01*
D17*
X244525800Y-114300000D02*
X244602000Y-114300000D01*
D16*
X176022000Y-104140000D02*
X174574200Y-104140000D01*
D15*
X147361000Y-119929000D02*
X147320000Y-119888000D01*
X181651000Y-123600000D02*
X181651000Y-120609000D01*
X138471000Y-123600000D02*
X138471000Y-119929000D01*
X223561000Y-123600000D02*
X223561000Y-120437000D01*
D16*
X189992000Y-104140000D02*
X188544200Y-104140000D01*
D15*
X134661000Y-123600000D02*
X134661000Y-119929000D01*
D16*
X126492000Y-105410000D02*
X128270000Y-105410000D01*
D15*
X217211000Y-123600000D02*
X217211000Y-120609000D01*
D16*
X148336000Y-104140000D02*
X146634200Y-104140000D01*
X236474000Y-104140000D02*
X234950000Y-104140000D01*
X120396000Y-104140000D02*
X118694200Y-104140000D01*
X210566000Y-105410000D02*
X212090000Y-105410000D01*
D15*
X146091000Y-123600000D02*
X146091000Y-119929000D01*
X158791000Y-123600000D02*
X158791000Y-120183000D01*
D16*
X184150000Y-105410000D02*
X182626014Y-105410000D01*
D15*
X217211000Y-120609000D02*
X217424000Y-120396000D01*
X138471000Y-119929000D02*
X138430000Y-119888000D01*
X158791000Y-120183000D02*
X158750000Y-120142000D01*
D16*
X162052000Y-104140000D02*
X160604200Y-104140000D01*
X168656000Y-105410000D02*
X170180000Y-105410000D01*
D15*
X135931000Y-119929000D02*
X135890000Y-119888000D01*
D16*
X224536000Y-105410000D02*
X226060000Y-105410000D01*
D15*
X134661000Y-119929000D02*
X134620000Y-119888000D01*
X146091000Y-119929000D02*
X146050000Y-119888000D01*
X232451000Y-120609000D02*
X232664000Y-120396000D01*
D16*
X154686000Y-105410000D02*
X156210000Y-105410000D01*
D15*
X232451000Y-123600000D02*
X232451000Y-120609000D01*
X212131000Y-120437000D02*
X212090000Y-120396000D01*
D16*
X242824000Y-105410000D02*
X244525800Y-105410000D01*
D15*
X147361000Y-123600000D02*
X147361000Y-119929000D01*
X137201000Y-119929000D02*
X137160000Y-119888000D01*
D16*
X134366000Y-104394000D02*
X134112000Y-104140000D01*
X217932000Y-104140000D02*
X216484200Y-104140000D01*
X140462000Y-105410000D02*
X142240000Y-105410000D01*
D15*
X137201000Y-123600000D02*
X137201000Y-119929000D01*
X196891000Y-123600000D02*
X196891000Y-120437000D01*
D17*
X241955320Y-98270060D02*
X239740440Y-98270060D01*
X239740440Y-98270060D02*
X236410500Y-101600000D01*
X236410500Y-101600000D02*
X234950000Y-101600000D01*
X242628420Y-98943160D02*
X241955320Y-98270060D01*
X242757960Y-99788980D02*
X242443000Y-99788980D01*
X240096040Y-98785680D02*
X236011720Y-102870000D01*
X236011720Y-102870000D02*
X234950000Y-102870000D01*
X242443000Y-99788980D02*
X241439700Y-98785680D01*
X241439700Y-98785680D02*
X240096040Y-98785680D01*
X240365280Y-99250500D02*
X241251740Y-99250500D01*
X234950000Y-106680000D02*
X236369860Y-106680000D01*
X236369860Y-106680000D02*
X237269020Y-105780840D01*
X241251740Y-99250500D02*
X242669060Y-100667820D01*
X237269020Y-102346760D02*
X240365280Y-99250500D01*
X242669060Y-100667820D02*
X242669060Y-100995480D01*
X237269020Y-105780840D02*
X237269020Y-102346760D01*
X234950000Y-107950000D02*
X239928400Y-107950000D01*
X239928400Y-107950000D02*
X241150140Y-109171740D01*
X234950000Y-109220000D02*
X240283998Y-109220000D01*
X238161690Y-94599760D02*
X243875560Y-94599760D01*
X230746300Y-100027740D02*
X230746300Y-96334698D01*
X231670000Y-95796000D02*
X231749001Y-95875001D01*
X236886449Y-95875001D02*
X238161690Y-94599760D01*
X231749001Y-95875001D02*
X236886449Y-95875001D01*
X243875560Y-94599760D02*
X244525800Y-95250000D01*
X230632000Y-100142040D02*
X230746300Y-100027740D01*
X231284998Y-95796000D02*
X231670000Y-95796000D01*
X230746300Y-96334698D02*
X231284998Y-95796000D01*
X238307879Y-95089981D02*
X242443001Y-95089981D01*
X231670000Y-97396000D02*
X231911000Y-97155000D01*
X236242860Y-97155000D02*
X238307879Y-95089981D01*
X242769858Y-95412560D02*
X243247378Y-95890080D01*
X243895880Y-95890080D02*
X244525800Y-96520000D01*
X231911000Y-97155000D02*
X236242860Y-97155000D01*
X243247378Y-95890080D02*
X243895880Y-95890080D01*
X242443001Y-95089981D02*
X242765580Y-95412560D01*
X242765580Y-95412560D02*
X242769858Y-95412560D01*
X242256601Y-95539991D02*
X242579179Y-95862569D01*
X244525800Y-97790000D02*
X243196300Y-97790000D01*
X231670000Y-101892000D02*
X232320000Y-101892000D01*
X236233502Y-98425000D02*
X239118511Y-95539991D01*
X232410000Y-98806000D02*
X232791000Y-98425000D01*
X232410000Y-101802000D02*
X232410000Y-98806000D01*
X242579179Y-95862569D02*
X242583457Y-95862569D01*
X232791000Y-98425000D02*
X236233502Y-98425000D01*
X243086051Y-97679751D02*
X243086051Y-96369441D01*
X232320000Y-101892000D02*
X232410000Y-101802000D01*
X239118511Y-95539991D02*
X242256601Y-95539991D01*
X243196300Y-97790000D02*
X243086051Y-97679751D01*
X243086051Y-96369441D02*
X242579179Y-95862569D01*
X239931742Y-95996760D02*
X236233502Y-99695000D01*
X230423720Y-106151680D02*
X230449120Y-106151680D01*
X232320000Y-103492000D02*
X231670000Y-103492000D01*
X241965480Y-95996760D02*
X239931742Y-95996760D01*
X233666498Y-99695000D02*
X233426000Y-99935498D01*
X236233502Y-99695000D02*
X233666498Y-99695000D01*
X243194840Y-98427540D02*
X242636040Y-97868740D01*
X244525800Y-98643440D02*
X244309900Y-98427540D01*
X242636040Y-96667320D02*
X241965480Y-95996760D01*
X242636040Y-97868740D02*
X242636040Y-96667320D01*
X244525800Y-99060000D02*
X244525800Y-98643440D01*
X233426000Y-99935498D02*
X233426000Y-102386000D01*
X244512298Y-99073502D02*
X244525800Y-99060000D01*
X233426000Y-102386000D02*
X232320000Y-103492000D01*
X244309900Y-98427540D02*
X243194840Y-98427540D01*
X227954840Y-103682800D02*
X230423720Y-106151680D01*
X233426000Y-109056000D02*
X233426000Y-109601000D01*
X242508879Y-109860241D02*
X243885559Y-109860241D01*
X233426000Y-109601000D02*
X233685241Y-109860241D01*
X232320000Y-107950000D02*
X233426000Y-109056000D01*
X231670000Y-107950000D02*
X232320000Y-107950000D01*
X243885559Y-109860241D02*
X244525800Y-109220000D01*
X233685241Y-109860241D02*
X242508879Y-109860241D01*
X232105002Y-109550000D02*
X232410000Y-109854998D01*
X233042460Y-111122460D02*
X236204760Y-111122460D01*
X236837220Y-110490000D02*
X244525800Y-110490000D01*
X231670000Y-109550000D02*
X232105002Y-109550000D01*
X232410000Y-109854998D02*
X232410000Y-110490000D01*
X236204760Y-111122460D02*
X236837220Y-110490000D01*
X232410000Y-110490000D02*
X233042460Y-111122460D01*
X237456980Y-111119920D02*
X243885720Y-111119920D01*
X231670000Y-113500000D02*
X232435300Y-113500000D01*
X233540300Y-112395000D02*
X236181900Y-112395000D01*
X232435300Y-113500000D02*
X233540300Y-112395000D01*
X243885720Y-111119920D02*
X244525800Y-111760000D01*
X236181900Y-112395000D02*
X237456980Y-111119920D01*
X202384660Y-116265960D02*
X202821540Y-115829080D01*
X201971000Y-120636940D02*
X202384660Y-120223280D01*
X208366360Y-104823260D02*
X208470619Y-104719001D01*
X208470619Y-104719001D02*
X214848321Y-104719001D01*
X202384660Y-120223280D02*
X202384660Y-116265960D01*
X214848321Y-104719001D02*
X214889080Y-104759760D01*
X201971000Y-123600000D02*
X201971000Y-120636940D01*
X203241000Y-116837100D02*
X204152500Y-115925600D01*
X203241000Y-123600000D02*
X203241000Y-116837100D01*
X204205840Y-123294840D02*
X204511000Y-123600000D01*
X156210000Y-114300000D02*
X156210000Y-114325400D01*
X128983740Y-114300000D02*
X130040380Y-115356640D01*
X128270000Y-114300000D02*
X128983740Y-114300000D01*
X156210000Y-114325400D02*
X157446980Y-115562380D01*
X209885280Y-114955320D02*
X206326740Y-114955320D01*
X204205840Y-117076220D02*
X204205840Y-123294840D01*
X157446980Y-115562380D02*
X182887620Y-115562380D01*
X130040380Y-115356640D02*
X155158440Y-115356640D01*
X155158440Y-115356640D02*
X156210000Y-114305080D01*
X156210000Y-114305080D02*
X156210000Y-114300000D01*
X206326740Y-114955320D02*
X204205840Y-117076220D01*
X212090000Y-114300000D02*
X210540600Y-114300000D01*
X184787379Y-114937379D02*
X206308799Y-114937379D01*
X206308799Y-114937379D02*
X206326740Y-114955320D01*
X210540600Y-114300000D02*
X209885280Y-114955320D01*
X182887620Y-115562380D02*
X184150000Y-114300000D01*
X184150000Y-114300000D02*
X184787379Y-114937379D01*
X118694200Y-109220000D02*
X125239780Y-109220000D01*
X130954780Y-116146580D02*
X197507860Y-116146580D01*
X125239780Y-109220000D02*
X125818781Y-108640999D01*
X130487539Y-108640999D02*
X131066540Y-109220000D01*
X131066540Y-109220000D02*
X132664200Y-109220000D01*
X130813810Y-116005610D02*
X130954780Y-116146580D01*
X125818781Y-108640999D02*
X130487539Y-108640999D01*
X197507860Y-116146580D02*
X200345040Y-118983760D01*
X161074100Y-116857780D02*
X197073522Y-116857780D01*
X158242000Y-108585000D02*
X158877000Y-109220000D01*
X197073522Y-116857780D02*
X199773540Y-119557798D01*
X158877000Y-109220000D02*
X160604200Y-109220000D01*
X149900640Y-109220000D02*
X150535640Y-108585000D01*
X146634200Y-109220000D02*
X149900640Y-109220000D01*
X150535640Y-108585000D02*
X158242000Y-108585000D01*
X214566500Y-109220000D02*
X213923880Y-108577380D01*
X213923880Y-108577380D02*
X205341220Y-108577380D01*
X200891140Y-117586590D02*
X200891140Y-115823174D01*
X205341220Y-108577380D02*
X204698600Y-109220000D01*
X216484200Y-109220000D02*
X214566500Y-109220000D01*
X204698600Y-109220000D02*
X202514200Y-109220000D01*
X200891140Y-115823174D02*
X200726542Y-115658576D01*
X217746580Y-108579920D02*
X218376500Y-107950000D01*
X218376500Y-107950000D02*
X226060000Y-107950000D01*
X212084920Y-107944920D02*
X212090000Y-107950000D01*
X208175860Y-107944920D02*
X212084920Y-107944920D01*
X212090000Y-107950000D02*
X213995000Y-107950000D01*
X213995000Y-107950000D02*
X214624920Y-108579920D01*
X214624920Y-108579920D02*
X217746580Y-108579920D01*
X200774300Y-107950000D02*
X200294240Y-107469940D01*
X206298800Y-107950000D02*
X202514200Y-107950000D01*
X214757000Y-107950000D02*
X214116920Y-107309920D01*
X206938880Y-107309920D02*
X206298800Y-107950000D01*
X202514200Y-107950000D02*
X200774300Y-107950000D01*
X216484200Y-107950000D02*
X214757000Y-107950000D01*
X214116920Y-107309920D02*
X206938880Y-107309920D01*
X217815160Y-107304840D02*
X218440000Y-106680000D01*
X212090000Y-106680000D02*
X206535022Y-106680000D01*
X212090000Y-106680000D02*
X214249000Y-106680000D01*
X218440000Y-106680000D02*
X226060000Y-106680000D01*
X214249000Y-106680000D02*
X214873840Y-107304840D01*
X214873840Y-107304840D02*
X217815160Y-107304840D01*
X206535022Y-106680000D02*
X206354682Y-106860340D01*
X215841859Y-106037659D02*
X206690239Y-106037659D01*
X202514200Y-106680000D02*
X205132940Y-106680000D01*
X205132940Y-106680000D02*
X206232760Y-105580180D01*
X206690239Y-106037659D02*
X206232760Y-105580180D01*
X216484200Y-106680000D02*
X215841859Y-106037659D01*
X212090000Y-102870000D02*
X214249000Y-102870000D01*
X214863680Y-103484680D02*
X218079320Y-103484680D01*
X218694000Y-102870000D02*
X226060000Y-102870000D01*
X205498700Y-102870000D02*
X205425040Y-102943660D01*
X218079320Y-103484680D02*
X218694000Y-102870000D01*
X212090000Y-102870000D02*
X205498700Y-102870000D01*
X214249000Y-102870000D02*
X214863680Y-103484680D01*
X202514200Y-102870000D02*
X204381100Y-102870000D01*
X204348080Y-102229920D02*
X214370920Y-102229920D01*
X203708000Y-102870000D02*
X204348080Y-102229920D01*
X214370920Y-102229920D02*
X215011000Y-102870000D01*
X215011000Y-102870000D02*
X216484200Y-102870000D01*
X202514200Y-102870000D02*
X203708000Y-102870000D01*
X204381100Y-102870000D02*
X204383640Y-102867460D01*
X212090000Y-101600000D02*
X214503000Y-101600000D01*
X212090000Y-101600000D02*
X205818740Y-101600000D01*
X218440000Y-101600000D02*
X226060000Y-101600000D01*
X217810080Y-102229920D02*
X218440000Y-101600000D01*
X214503000Y-101600000D02*
X215132920Y-102229920D01*
X215132920Y-102229920D02*
X217810080Y-102229920D01*
X204488699Y-100955001D02*
X215839201Y-100955001D01*
X215839201Y-100955001D02*
X216484200Y-101600000D01*
X202514200Y-101600000D02*
X203843700Y-101600000D01*
X203843700Y-101600000D02*
X204488699Y-100955001D01*
X184150000Y-107950000D02*
X186245500Y-107950000D01*
X190080900Y-108585000D02*
X190715900Y-107950000D01*
X190715900Y-107950000D02*
X198120000Y-107950000D01*
X186245500Y-107950000D02*
X186880500Y-108585000D01*
X186880500Y-108585000D02*
X190080900Y-108585000D01*
X182866498Y-107315000D02*
X186309000Y-107315000D01*
X186944000Y-107950000D02*
X188544200Y-107950000D01*
X182231498Y-107950000D02*
X182866498Y-107315000D01*
X174574200Y-107950000D02*
X182231498Y-107950000D01*
X186309000Y-107315000D02*
X186944000Y-107950000D01*
X178460400Y-106738420D02*
X184091580Y-106738420D01*
X189827702Y-107315000D02*
X190462702Y-106680000D01*
X190462702Y-106680000D02*
X198120000Y-106680000D01*
X186372500Y-106680000D02*
X187007500Y-107315000D01*
X187007500Y-107315000D02*
X189827702Y-107315000D01*
X184091580Y-106738420D02*
X184150000Y-106680000D01*
X184150000Y-106680000D02*
X186372500Y-106680000D01*
X174579280Y-106685080D02*
X174574200Y-106680000D01*
X174574200Y-106680000D02*
X175768000Y-106680000D01*
X187071000Y-106680000D02*
X188544200Y-106680000D01*
X176403000Y-106045000D02*
X186436000Y-106045000D01*
X175768000Y-106680000D02*
X176403000Y-106045000D01*
X177416460Y-106685080D02*
X174579280Y-106685080D01*
X186436000Y-106045000D02*
X187071000Y-106680000D01*
X177182780Y-104340660D02*
X177182780Y-105270300D01*
X184150000Y-102870000D02*
X178653440Y-102870000D01*
X184150000Y-102870000D02*
X186182000Y-102870000D01*
X190627000Y-102870000D02*
X198120000Y-102870000D01*
X178653440Y-102870000D02*
X177182780Y-104340660D01*
X190047999Y-103449001D02*
X190627000Y-102870000D01*
X186182000Y-102870000D02*
X186761001Y-103449001D01*
X186761001Y-103449001D02*
X190047999Y-103449001D01*
X186364999Y-102290999D02*
X186944000Y-102870000D01*
X174574200Y-102870000D02*
X173492160Y-102870000D01*
X178292641Y-102290999D02*
X186364999Y-102290999D01*
X186944000Y-102870000D02*
X188544200Y-102870000D01*
X172966972Y-108861268D02*
X172935900Y-108892340D01*
X174574200Y-102870000D02*
X177713640Y-102870000D01*
X172966972Y-103395188D02*
X172966972Y-108861268D01*
X173492160Y-102870000D02*
X172966972Y-103395188D01*
X177713640Y-102870000D02*
X178292641Y-102290999D01*
X184150000Y-101600000D02*
X186436000Y-101600000D01*
X186436000Y-101600000D02*
X187015001Y-102179001D01*
X187015001Y-102179001D02*
X189920999Y-102179001D01*
X190500000Y-101600000D02*
X198120000Y-101600000D01*
X189920999Y-102179001D02*
X190500000Y-101600000D01*
X176895760Y-102240080D02*
X173182280Y-102240080D01*
X172516961Y-102905399D02*
X172516961Y-108139362D01*
X173182280Y-102240080D02*
X172516961Y-102905399D01*
X172516961Y-108139362D02*
X172260324Y-108395999D01*
X184150000Y-101600000D02*
X177535840Y-101600000D01*
X177535840Y-101600000D02*
X176895760Y-102240080D01*
X176893220Y-100959920D02*
X186557920Y-100959920D01*
X176253140Y-101600000D02*
X176893220Y-100959920D01*
X186557920Y-100959920D02*
X187198000Y-101600000D01*
X174574200Y-101600000D02*
X173045120Y-101600000D01*
X187198000Y-101600000D02*
X188544200Y-101600000D01*
X171869100Y-102776020D02*
X171869100Y-107660442D01*
X174574200Y-101600000D02*
X176253140Y-101600000D01*
X173045120Y-101600000D02*
X171869100Y-102776020D01*
X156394989Y-108134989D02*
X158617489Y-108134989D01*
X165933120Y-107947460D02*
X170177460Y-107947460D01*
X158617489Y-108134989D02*
X159067500Y-108585000D01*
X170177460Y-107947460D02*
X170180000Y-107950000D01*
X156210000Y-107950000D02*
X156394989Y-108134989D01*
X169545000Y-108585000D02*
X170180000Y-107950000D01*
X159067500Y-108585000D02*
X169545000Y-108585000D01*
X158559500Y-107315000D02*
X149948900Y-107315000D01*
X164830760Y-107942380D02*
X160611820Y-107942380D01*
X160611820Y-107942380D02*
X160604200Y-107950000D01*
X149313900Y-107950000D02*
X146634200Y-107950000D01*
X160604200Y-107950000D02*
X159194500Y-107950000D01*
X159194500Y-107950000D02*
X158559500Y-107315000D01*
X149948900Y-107315000D02*
X149313900Y-107950000D01*
X170177460Y-106677460D02*
X170180000Y-106680000D01*
X169545000Y-107315000D02*
X170180000Y-106680000D01*
X159321500Y-107315000D02*
X169545000Y-107315000D01*
X158686500Y-106680000D02*
X159321500Y-107315000D01*
X163642040Y-106677460D02*
X170177460Y-106677460D01*
X156210000Y-106680000D02*
X158686500Y-106680000D01*
X160619440Y-106664760D02*
X160604200Y-106680000D01*
X158755080Y-106045000D02*
X159390080Y-106680000D01*
X162580320Y-106664760D02*
X160619440Y-106664760D01*
X146634200Y-106680000D02*
X148648420Y-106680000D01*
X149283420Y-106045000D02*
X158755080Y-106045000D01*
X159390080Y-106680000D02*
X160604200Y-106680000D01*
X148648420Y-106680000D02*
X149283420Y-106045000D01*
X162560000Y-102870000D02*
X170180000Y-102870000D01*
X157589220Y-102870000D02*
X158168221Y-103449001D01*
X156210000Y-102870000D02*
X152890509Y-102870000D01*
X161980999Y-103449001D02*
X162560000Y-102870000D01*
X152890509Y-102870000D02*
X152844500Y-102916009D01*
X156210000Y-102870000D02*
X157589220Y-102870000D01*
X158168221Y-103449001D02*
X161980999Y-103449001D01*
X145026380Y-102880160D02*
X146624040Y-102880160D01*
X146634200Y-102870000D02*
X148940520Y-102870000D01*
X146624040Y-102880160D02*
X146634200Y-102870000D01*
X149684740Y-102125780D02*
X153601182Y-102125780D01*
X153700242Y-102224840D02*
X157744160Y-102224840D01*
X158389320Y-102870000D02*
X160604200Y-102870000D01*
X157744160Y-102224840D02*
X158389320Y-102870000D01*
X148940520Y-102870000D02*
X149684740Y-102125780D01*
X153601182Y-102125780D02*
X153700242Y-102224840D01*
X156210000Y-101600000D02*
X158000700Y-101600000D01*
X149187329Y-101599571D02*
X148551906Y-102234994D01*
X156209571Y-101599571D02*
X149187329Y-101599571D01*
X158579701Y-102179001D02*
X161853999Y-102179001D01*
X148551906Y-102234994D02*
X144423381Y-102234994D01*
X158000700Y-101600000D02*
X158579701Y-102179001D01*
X156210000Y-101600000D02*
X156209571Y-101599571D01*
X161853999Y-102179001D02*
X162433000Y-101600000D01*
X162433000Y-101600000D02*
X170180000Y-101600000D01*
X144423381Y-102234994D02*
X144356875Y-102301500D01*
X149098000Y-100965000D02*
X158181040Y-100965000D01*
X158816040Y-101600000D02*
X160604200Y-101600000D01*
X158181040Y-100965000D02*
X158816040Y-101600000D01*
X146634200Y-101600000D02*
X143949590Y-101600000D01*
X143949590Y-101600000D02*
X143924020Y-101625570D01*
X148463000Y-101600000D02*
X149098000Y-100965000D01*
X146634200Y-101600000D02*
X148463000Y-101600000D01*
X124571760Y-108587540D02*
X125209300Y-107950000D01*
X131191000Y-108585000D02*
X130556000Y-107950000D01*
X125209300Y-107950000D02*
X128270000Y-107950000D01*
X121305320Y-108587540D02*
X124571760Y-108587540D01*
X130556000Y-107950000D02*
X130048000Y-107950000D01*
X133985000Y-108585000D02*
X131191000Y-108585000D01*
X142240000Y-107950000D02*
X134620000Y-107950000D01*
X130048000Y-107950000D02*
X128270000Y-107950000D01*
X134620000Y-107950000D02*
X133985000Y-108585000D01*
X130619500Y-107315000D02*
X131254500Y-107950000D01*
X123891040Y-107950000D02*
X124526040Y-107315000D01*
X118694200Y-107950000D02*
X123891040Y-107950000D01*
X124526040Y-107315000D02*
X130619500Y-107315000D01*
X131254500Y-107950000D02*
X132664200Y-107950000D01*
X119316500Y-108572300D02*
X118694200Y-107950000D01*
X120286780Y-108572300D02*
X119316500Y-108572300D01*
X129760980Y-115902740D02*
X130540760Y-116682520D01*
X117304820Y-115902740D02*
X129760980Y-115902740D01*
X117423398Y-107302300D02*
X116987320Y-107738378D01*
X154981000Y-120960240D02*
X154981000Y-123600000D01*
X130683000Y-106680000D02*
X131318000Y-107315000D01*
X128270000Y-106680000D02*
X130683000Y-106680000D01*
X133858000Y-107315000D02*
X134493000Y-106680000D01*
X116987320Y-115585240D02*
X117304820Y-115902740D01*
X116987320Y-107738378D02*
X116987320Y-115585240D01*
X130540760Y-116682520D02*
X150703280Y-116682520D01*
X123863100Y-106680000D02*
X123240800Y-107302300D01*
X131318000Y-107315000D02*
X133858000Y-107315000D01*
X150703280Y-116682520D02*
X154981000Y-120960240D01*
X123240800Y-107302300D02*
X117423398Y-107302300D01*
X128270000Y-106680000D02*
X123863100Y-106680000D01*
X134493000Y-106680000D02*
X142240000Y-106680000D01*
X153711000Y-120861000D02*
X149987180Y-117137180D01*
X129461691Y-116352751D02*
X117118420Y-116352751D01*
X118694200Y-106680000D02*
X122397520Y-106680000D01*
X117118420Y-116352751D02*
X116537309Y-115771640D01*
X149987180Y-117137180D02*
X130246120Y-117137180D01*
X131445000Y-106680000D02*
X132664200Y-106680000D01*
X153711000Y-123600000D02*
X153711000Y-120861000D01*
X130810000Y-106045000D02*
X131445000Y-106680000D01*
X117364700Y-106680000D02*
X118694200Y-106680000D01*
X130246120Y-117137180D02*
X129461691Y-116352751D01*
X122397520Y-106680000D02*
X123032520Y-106045000D01*
X123032520Y-106045000D02*
X130810000Y-106045000D01*
X116537309Y-107507391D02*
X117364700Y-106680000D01*
X116537309Y-115771640D02*
X116537309Y-107507391D01*
X116634260Y-103502460D02*
X121089420Y-103502460D01*
X149047200Y-117647720D02*
X129896870Y-117647720D01*
X129603500Y-102870000D02*
X130238500Y-103505000D01*
X129896870Y-117647720D02*
X129101421Y-116852271D01*
X128270000Y-102870000D02*
X129603500Y-102870000D01*
X152441000Y-121483480D02*
X152441000Y-123600000D01*
X129101421Y-116852271D02*
X116961491Y-116852271D01*
X152441000Y-123600000D02*
X152441000Y-121041520D01*
X116042440Y-104094280D02*
X116634260Y-103502460D01*
X152441000Y-121041520D02*
X149047200Y-117647720D01*
X134747000Y-102870000D02*
X142240000Y-102870000D01*
X116961491Y-116852271D02*
X116042440Y-115933220D01*
X134112000Y-103505000D02*
X134747000Y-102870000D01*
X116042440Y-115933220D02*
X116042440Y-104094280D01*
X130238500Y-103505000D02*
X134112000Y-103505000D01*
X121721880Y-102870000D02*
X128270000Y-102870000D01*
X121089420Y-103502460D02*
X121721880Y-102870000D01*
X129555240Y-118099840D02*
X128790700Y-117335300D01*
X115585240Y-103883460D02*
X116598700Y-102870000D01*
X116781580Y-117335300D02*
X115585240Y-116138960D01*
X120792240Y-102870000D02*
X121427240Y-102235000D01*
X148473160Y-118099840D02*
X129555240Y-118099840D01*
X115585240Y-116138960D02*
X115585240Y-103883460D01*
X151171000Y-120797680D02*
X148473160Y-118099840D01*
X118694200Y-102870000D02*
X120792240Y-102870000D01*
X128790700Y-117335300D02*
X116781580Y-117335300D01*
X151171000Y-123600000D02*
X151171000Y-120797680D01*
X130492500Y-102870000D02*
X132664200Y-102870000D01*
X151171000Y-123600000D02*
X151171000Y-121143120D01*
X121427240Y-102235000D02*
X129857500Y-102235000D01*
X116598700Y-102870000D02*
X118694200Y-102870000D01*
X129857500Y-102235000D02*
X130492500Y-102870000D01*
X121168160Y-101600000D02*
X128270000Y-101600000D01*
X130714750Y-102235000D02*
X134112000Y-102235000D01*
X128549400Y-117830600D02*
X116588540Y-117830600D01*
X116554390Y-102224840D02*
X120543320Y-102224840D01*
X130079750Y-101600000D02*
X130714750Y-102235000D01*
X149901000Y-120414140D02*
X148069300Y-118582440D01*
X116588540Y-117830600D02*
X115100021Y-116342081D01*
X148069300Y-118582440D02*
X129301240Y-118582440D01*
X120543320Y-102224840D02*
X121168160Y-101600000D01*
X128270000Y-101600000D02*
X130079750Y-101600000D01*
X115100021Y-116342081D02*
X115100021Y-103679209D01*
X115100021Y-103679209D02*
X116554390Y-102224840D01*
X149901000Y-123600000D02*
X149901000Y-120414140D01*
X134112000Y-102235000D02*
X134747000Y-101600000D01*
X129301240Y-118582440D02*
X128549400Y-117830600D01*
X134747000Y-101600000D02*
X142240000Y-101600000D01*
X128247140Y-118328440D02*
X116410740Y-118328440D01*
X120233440Y-101600000D02*
X120868440Y-100965000D01*
X130429000Y-100965000D02*
X131064000Y-101600000D01*
X116410740Y-118328440D02*
X114650010Y-116567710D01*
X114650010Y-103492809D02*
X116542820Y-101600000D01*
X114650010Y-116567710D02*
X114650010Y-103492809D01*
X131064000Y-101600000D02*
X132664200Y-101600000D01*
X148631000Y-120101720D02*
X147619720Y-119090440D01*
X148631000Y-123600000D02*
X148631000Y-120101720D01*
X129009140Y-119090440D02*
X128247140Y-118328440D01*
X120868440Y-100965000D02*
X130429000Y-100965000D01*
X116542820Y-101600000D02*
X118694200Y-101600000D01*
X147619720Y-119090440D02*
X129009140Y-119090440D01*
X118694200Y-101600000D02*
X120233440Y-101600000D01*
X247073420Y-117289580D02*
X247073420Y-102707440D01*
X229911000Y-123600000D02*
X229911000Y-120581060D01*
X229911000Y-120581060D02*
X232237280Y-118254780D01*
X247073420Y-102707440D02*
X245965980Y-101600000D01*
X245965980Y-101600000D02*
X244525800Y-101600000D01*
X246108220Y-118254780D02*
X247073420Y-117289580D01*
X232237280Y-118254780D02*
X246108220Y-118254780D01*
X228641000Y-120939200D02*
X231978200Y-117602000D01*
X246473980Y-103488680D02*
X245855300Y-102870000D01*
X231978200Y-117602000D02*
X245765320Y-117602000D01*
X245855300Y-102870000D02*
X244525800Y-102870000D01*
X228641000Y-123600000D02*
X228641000Y-120939200D01*
X245765320Y-117602000D02*
X246473980Y-116893340D01*
X246473980Y-116893340D02*
X246473980Y-103488680D01*
X245986300Y-115834160D02*
X245986300Y-106811000D01*
X245986300Y-106811000D02*
X245855300Y-106680000D01*
X227371000Y-121010320D02*
X231376310Y-117005010D01*
X231376310Y-117005010D02*
X244815450Y-117005010D01*
X244815450Y-117005010D02*
X245986300Y-115834160D01*
X245855300Y-106680000D02*
X244525800Y-106680000D01*
X227371000Y-123600000D02*
X227371000Y-121010320D01*
X244490240Y-107914440D02*
X244525800Y-107950000D01*
X242646200Y-108056680D02*
X244419120Y-108056680D01*
X244419120Y-108056680D02*
X244525800Y-107950000D01*
X226101000Y-120687740D02*
X226814380Y-119974360D01*
X226101000Y-123600000D02*
X226101000Y-120687740D01*
X221021000Y-123600000D02*
X221021000Y-120060360D01*
X232664000Y-94996000D02*
X232918000Y-95250000D01*
X231670000Y-94996000D02*
X232664000Y-94996000D01*
X232918000Y-95250000D02*
X234950000Y-95250000D01*
X221021000Y-120060360D02*
X221385722Y-119695638D01*
X221385722Y-119695638D02*
X224064238Y-119695638D01*
X224064238Y-119695638D02*
X224716340Y-120347740D01*
X234939840Y-95239840D02*
X234950000Y-95250000D01*
X234874000Y-96596000D02*
X234950000Y-96520000D01*
X219751000Y-123600000D02*
X219751000Y-120428660D01*
X220934033Y-119245627D02*
X224546407Y-119245627D01*
X219751000Y-120428660D02*
X220934033Y-119245627D01*
X231670000Y-96596000D02*
X234874000Y-96596000D01*
X224546407Y-119245627D02*
X224574100Y-119273320D01*
X218481000Y-123600000D02*
X218481000Y-120861000D01*
X231670000Y-98657000D02*
X232537000Y-97790000D01*
X232537000Y-97790000D02*
X234950000Y-97790000D01*
X218481000Y-120861000D02*
X220721374Y-118620626D01*
X220721374Y-118620626D02*
X223936614Y-118620626D01*
X231670000Y-101092000D02*
X231670000Y-98657000D01*
X231670000Y-102692000D02*
X232320000Y-102692000D01*
X233103420Y-99341940D02*
X233385360Y-99060000D01*
X233385360Y-99060000D02*
X234950000Y-99060000D01*
X214671000Y-120375320D02*
X215493600Y-119552720D01*
X214671000Y-123600000D02*
X214671000Y-120375320D01*
X230733600Y-102978400D02*
X231020000Y-102692000D01*
X232918000Y-102094000D02*
X232918000Y-99314000D01*
X233172000Y-99060000D02*
X234950000Y-99060000D01*
X220428650Y-117917130D02*
X223512380Y-117917130D01*
X218793060Y-119552720D02*
X220428650Y-117917130D01*
X230733600Y-105321100D02*
X230733600Y-102978400D01*
X234301498Y-99060000D02*
X234950000Y-99060000D01*
X233085640Y-107673140D02*
X230733600Y-105321100D01*
X232320000Y-102692000D02*
X232918000Y-102094000D01*
X231020000Y-102692000D02*
X231670000Y-102692000D01*
X215493600Y-119552720D02*
X218793060Y-119552720D01*
X232918000Y-99314000D02*
X233172000Y-99060000D01*
X220243400Y-117292120D02*
X224340420Y-117292120D01*
X224340420Y-117292120D02*
X225277680Y-116354860D01*
X213401000Y-123600000D02*
X213401000Y-120751240D01*
X231670000Y-108750000D02*
X232321000Y-108750000D01*
X232918000Y-109347000D02*
X232918000Y-110172500D01*
X233235500Y-110490000D02*
X234950000Y-110490000D01*
X213401000Y-120751240D02*
X215089740Y-119062500D01*
X215089740Y-119062500D02*
X218473020Y-119062500D01*
X232321000Y-108750000D02*
X232918000Y-109347000D01*
X232918000Y-110172500D02*
X233235500Y-110490000D01*
X218473020Y-119062500D02*
X220243400Y-117292120D01*
X212859620Y-118323360D02*
X218163140Y-118323360D01*
X231670000Y-111020000D02*
X232175050Y-111525050D01*
X232410000Y-111760000D02*
X234950000Y-111760000D01*
X220814900Y-115671600D02*
X222686880Y-115671600D01*
X231670000Y-110350000D02*
X231670000Y-111020000D01*
X210861000Y-120321980D02*
X212859620Y-118323360D01*
X210861000Y-123600000D02*
X210861000Y-120321980D01*
X232175050Y-111525050D02*
X232410000Y-111760000D01*
X218163140Y-118323360D02*
X220814900Y-115671600D01*
X212618158Y-117607242D02*
X217896278Y-117607242D01*
X217896278Y-117607242D02*
X219717620Y-115785900D01*
X232338880Y-114300000D02*
X231670000Y-114300000D01*
X236888020Y-113030000D02*
X234950000Y-113030000D01*
X234950000Y-113030000D02*
X233608880Y-113030000D01*
X237769400Y-112148620D02*
X236888020Y-113030000D01*
X209591000Y-123600000D02*
X209591000Y-120634400D01*
X209591000Y-120634400D02*
X212618158Y-117607242D01*
X233608880Y-113030000D02*
X232338880Y-114300000D01*
X233781156Y-114300000D02*
X234950000Y-114300000D01*
X230750320Y-116819680D02*
X231670000Y-115900000D01*
X208321000Y-123600000D02*
X208321000Y-120861000D01*
X231670000Y-115900000D02*
X232181156Y-115900000D01*
X212199760Y-116982240D02*
X217510360Y-116982240D01*
X208321000Y-120861000D02*
X212199760Y-116982240D01*
X224342960Y-115679220D02*
X228071680Y-115679220D01*
X232181156Y-115900000D02*
X233781156Y-114300000D01*
X228071680Y-115679220D02*
X229212140Y-116819680D01*
X229212140Y-116819680D02*
X230750320Y-116819680D01*
X231670000Y-115100000D02*
X232245000Y-115100000D01*
X233682540Y-113662460D02*
X237302040Y-113662460D01*
X232245000Y-115100000D02*
X233682540Y-113662460D01*
X205781000Y-123600000D02*
X205781000Y-120294040D01*
X237934500Y-113030000D02*
X239196880Y-113030000D01*
X205781000Y-120294040D02*
X209740500Y-116334540D01*
X218041220Y-116334540D02*
X218569540Y-115806220D01*
X239196880Y-113030000D02*
X244525800Y-113030000D01*
X237302040Y-113662460D02*
X237934500Y-113030000D01*
X209740500Y-116334540D02*
X218041220Y-116334540D01*
X225938080Y-100451920D02*
X226060000Y-100330000D01*
X206964280Y-116779040D02*
X206112698Y-117630622D01*
X142008860Y-100098860D02*
X142240000Y-100330000D01*
X198142860Y-100307140D02*
X198120000Y-100330000D01*
X199920860Y-100307140D02*
X198142860Y-100307140D01*
X206112698Y-117630622D02*
X204954006Y-117630622D01*
X140197840Y-100098860D02*
X142008860Y-100098860D01*
X218589860Y-100451920D02*
X225938080Y-100451920D01*
X168021000Y-100134420D02*
X169984420Y-100134420D01*
X169984420Y-100134420D02*
X170180000Y-100330000D01*
X138564620Y-100962460D02*
X137932160Y-100330000D01*
X213941660Y-100330000D02*
X213296500Y-99684840D01*
X157500320Y-99687380D02*
X154970480Y-99687380D01*
X163560760Y-100959920D02*
X162930840Y-100330000D01*
X216484200Y-100330000D02*
X213941660Y-100330000D01*
X162930840Y-100330000D02*
X160604200Y-100330000D01*
X158142940Y-100330000D02*
X157500320Y-99687380D01*
X185397140Y-99692460D02*
X180710840Y-99692460D01*
X191790320Y-100330000D02*
X188544200Y-100330000D01*
X209494120Y-99684840D02*
X208739740Y-100439220D01*
X206235298Y-118468142D02*
X206928720Y-117774720D01*
X186034680Y-100330000D02*
X185397140Y-99692460D01*
X208739740Y-100439220D02*
X204323482Y-100439220D01*
X204323482Y-100439220D02*
X203790082Y-100972620D01*
X179986940Y-100416360D02*
X176372520Y-100416360D01*
X154970480Y-99687380D02*
X154241500Y-100416360D01*
X192432940Y-100972620D02*
X191790320Y-100330000D01*
X176372520Y-100416360D02*
X175828960Y-100959920D01*
X137932160Y-100330000D02*
X132664200Y-100330000D01*
X213296500Y-99684840D02*
X209494120Y-99684840D01*
X160604200Y-100330000D02*
X158142940Y-100330000D01*
X154241500Y-100416360D02*
X148556980Y-100416360D01*
X180710840Y-99692460D02*
X179986940Y-100416360D01*
X205049120Y-118468142D02*
X206235298Y-118468142D01*
X175828960Y-100959920D02*
X163560760Y-100959920D01*
X148556980Y-100416360D02*
X148010880Y-100962460D01*
X188544200Y-100330000D02*
X186034680Y-100330000D01*
X148010880Y-100962460D02*
X138564620Y-100962460D01*
X203790082Y-100972620D02*
X192432940Y-100972620D01*
X140314680Y-114300000D02*
X140174980Y-114439700D01*
X226060000Y-114300000D02*
X225374200Y-114985800D01*
X158978600Y-114932460D02*
X166867840Y-114932460D01*
X170858180Y-114978180D02*
X181762400Y-114978180D01*
X167500300Y-114300000D02*
X170180000Y-114300000D01*
X166867840Y-114932460D02*
X167500300Y-114300000D01*
X213207600Y-115874800D02*
X206900780Y-115874800D01*
X181762400Y-114978180D02*
X182377080Y-114363500D01*
X170180000Y-114300000D02*
X170858180Y-114978180D01*
X225374200Y-114985800D02*
X214096600Y-114985800D01*
X142240000Y-114300000D02*
X140314680Y-114300000D01*
X214096600Y-114985800D02*
X213207600Y-115874800D01*
X190317120Y-109220000D02*
X188544200Y-109220000D01*
X176530000Y-108585000D02*
X186182000Y-108585000D01*
X200701000Y-120861000D02*
X201543921Y-120018079D01*
X201543921Y-120018079D02*
X201543921Y-115684300D01*
X174574200Y-109220000D02*
X175895000Y-109220000D01*
X175895000Y-109220000D02*
X176530000Y-108585000D01*
X190896121Y-108640999D02*
X190317120Y-109220000D01*
X200701000Y-123600000D02*
X200701000Y-120861000D01*
X186817000Y-109220000D02*
X188544200Y-109220000D01*
X200210301Y-108640999D02*
X190896121Y-108640999D01*
X200327260Y-108524040D02*
X200210301Y-108640999D01*
X186182000Y-108585000D02*
X186817000Y-109220000D01*
X200247250Y-96520000D02*
X198120000Y-96520000D01*
X158242000Y-96520000D02*
X156210000Y-96520000D01*
X226060000Y-96520000D02*
X225875011Y-96704989D01*
X186877960Y-97152460D02*
X186245500Y-96520000D01*
X205549500Y-97155000D02*
X200882250Y-97155000D01*
X226060000Y-96520000D02*
X219710000Y-96520000D01*
X212090000Y-96520000D02*
X206184500Y-96520000D01*
X172402500Y-96520000D02*
X170180000Y-96520000D01*
X228599700Y-97396000D02*
X227723700Y-96520000D01*
X229870000Y-97390000D02*
X229529500Y-97390000D01*
X219710000Y-96520000D02*
X219075000Y-97155000D01*
X177419000Y-96520000D02*
X176799240Y-97139760D01*
X151698960Y-96520000D02*
X151066500Y-97152460D01*
X144840960Y-97152460D02*
X144208500Y-96520000D01*
X214764620Y-97155000D02*
X214129620Y-96520000D01*
X131000500Y-97155000D02*
X130365500Y-96520000D01*
X206184500Y-96520000D02*
X205549500Y-97155000D01*
X158874460Y-97152460D02*
X158242000Y-96520000D01*
X144208500Y-96520000D02*
X142240000Y-96520000D01*
X135128000Y-97155000D02*
X131000500Y-97155000D01*
X184150000Y-96520000D02*
X177419000Y-96520000D01*
X198120000Y-96520000D02*
X193040000Y-96520000D01*
X186245500Y-96520000D02*
X184150000Y-96520000D01*
X176799240Y-97139760D02*
X173022260Y-97139760D01*
X163451540Y-97152460D02*
X158874460Y-97152460D01*
X193040000Y-96520000D02*
X192407540Y-97152460D01*
X229870000Y-97396000D02*
X228599700Y-97396000D01*
X219075000Y-97155000D02*
X214764620Y-97155000D01*
X151066500Y-97152460D02*
X144840960Y-97152460D01*
X170180000Y-96520000D02*
X164084000Y-96520000D01*
X192407540Y-97152460D02*
X186877960Y-97152460D01*
X227723700Y-96520000D02*
X226060000Y-96520000D01*
X164084000Y-96520000D02*
X163451540Y-97152460D01*
X142240000Y-96520000D02*
X135763000Y-96520000D01*
X130365500Y-96520000D02*
X128270000Y-96520000D01*
X173022260Y-97139760D02*
X172402500Y-96520000D01*
X214129620Y-96520000D02*
X212090000Y-96520000D01*
X135763000Y-96520000D02*
X135128000Y-97155000D01*
X156210000Y-96520000D02*
X151698960Y-96520000D01*
X200882250Y-97155000D02*
X200247250Y-96520000D01*
X205066900Y-96520000D02*
X202514200Y-96520000D01*
X150881080Y-95882460D02*
X150243540Y-96520000D01*
X200393300Y-95872300D02*
X192290700Y-95872300D01*
X160604200Y-96520000D02*
X159067500Y-96520000D01*
X202514200Y-96520000D02*
X201041000Y-96520000D01*
X177038000Y-95885000D02*
X176403000Y-96520000D01*
X145097500Y-96520000D02*
X144459960Y-95882460D01*
X130556000Y-95885000D02*
X127031750Y-95885000D01*
X186404250Y-95885000D02*
X177038000Y-95885000D01*
X228589640Y-96596000D02*
X227878640Y-95885000D01*
X214932260Y-96520000D02*
X214297260Y-95885000D01*
X191643000Y-96520000D02*
X188544200Y-96520000D01*
X132664200Y-96520000D02*
X131191000Y-96520000D01*
X146634200Y-96520000D02*
X145097500Y-96520000D01*
X172585499Y-95940999D02*
X163456501Y-95940999D01*
X173164500Y-96520000D02*
X172585499Y-95940999D01*
X205701900Y-95885000D02*
X205066900Y-96520000D01*
X150243540Y-96520000D02*
X146634200Y-96520000D01*
X218694000Y-96520000D02*
X216484200Y-96520000D01*
X174574200Y-96520000D02*
X173164500Y-96520000D01*
X216484200Y-96520000D02*
X214932260Y-96520000D01*
X163456501Y-95940999D02*
X162877500Y-96520000D01*
X134747000Y-96520000D02*
X132664200Y-96520000D01*
X188544200Y-96520000D02*
X187039250Y-96520000D01*
X187039250Y-96520000D02*
X186404250Y-95885000D01*
X135384540Y-95882460D02*
X134747000Y-96520000D01*
X144459960Y-95882460D02*
X135384540Y-95882460D01*
X229870000Y-96596000D02*
X228589640Y-96596000D01*
X126396750Y-96520000D02*
X118694200Y-96520000D01*
X229870000Y-96590000D02*
X229870000Y-96520000D01*
X201041000Y-96520000D02*
X200393300Y-95872300D01*
X192290700Y-95872300D02*
X191643000Y-96520000D01*
X214297260Y-95885000D02*
X205701900Y-95885000D01*
X131191000Y-96520000D02*
X130556000Y-95885000D01*
X158429960Y-95882460D02*
X150881080Y-95882460D01*
X162877500Y-96520000D02*
X160604200Y-96520000D01*
X127031750Y-95885000D02*
X126396750Y-96520000D01*
X176403000Y-96520000D02*
X174574200Y-96520000D01*
X227878640Y-95885000D02*
X219329000Y-95885000D01*
X159067500Y-96520000D02*
X158429960Y-95882460D01*
X219329000Y-95885000D02*
X218694000Y-96520000D01*
X147281900Y-94602300D02*
X146634200Y-95250000D01*
X187886340Y-94592140D02*
X175232060Y-94592140D01*
X188544200Y-95250000D02*
X187886340Y-94592140D01*
X174574200Y-95250000D02*
X173939200Y-94615000D01*
X229870000Y-94996000D02*
X229859840Y-94985840D01*
X228328220Y-94574360D02*
X217159840Y-94574360D01*
X132029200Y-94615000D02*
X127063500Y-94615000D01*
X132664200Y-95250000D02*
X132029200Y-94615000D01*
X216497702Y-95236498D02*
X216484200Y-95250000D01*
X228739700Y-94985840D02*
X228328220Y-94574360D01*
X175232060Y-94592140D02*
X174574200Y-95250000D01*
X133299200Y-94615000D02*
X132664200Y-95250000D01*
X127063500Y-94615000D02*
X126428500Y-95250000D01*
X216484200Y-95250000D02*
X215841580Y-94607380D01*
X173939200Y-94615000D02*
X161239200Y-94615000D01*
X146634200Y-95250000D02*
X145999200Y-94615000D01*
X159956500Y-94602300D02*
X147281900Y-94602300D01*
X161239200Y-94615000D02*
X160604200Y-95250000D01*
X189202060Y-94592140D02*
X188544200Y-95250000D01*
X145999200Y-94615000D02*
X133299200Y-94615000D01*
X216484200Y-95250000D02*
X215900000Y-95250000D01*
X229859840Y-94985840D02*
X228739700Y-94985840D01*
X217159840Y-94574360D02*
X216484200Y-95250000D01*
X202514200Y-95250000D02*
X201856340Y-94592140D01*
X215841580Y-94607380D02*
X203156820Y-94607380D01*
X229870000Y-94996000D02*
X229870000Y-94869000D01*
X203156820Y-94607380D02*
X202514200Y-95250000D01*
X126428500Y-95250000D02*
X118694200Y-95250000D01*
X201856340Y-94592140D02*
X189202060Y-94592140D01*
X160604200Y-95250000D02*
X159956500Y-94602300D01*
X173290698Y-95885000D02*
X175857702Y-95885000D01*
X215092280Y-95877380D02*
X214464900Y-95250000D01*
X170180000Y-95250000D02*
X163068000Y-95250000D01*
X228638000Y-95796000D02*
X228092000Y-95250000D01*
X162435540Y-95882460D02*
X159382460Y-95882460D01*
X144780000Y-95250000D02*
X142240000Y-95250000D01*
X134366000Y-95885000D02*
X131381500Y-95885000D01*
X201230698Y-95885000D02*
X204457300Y-95885000D01*
X130746500Y-95250000D02*
X128270000Y-95250000D01*
X176492702Y-95250000D02*
X184150000Y-95250000D01*
X228092000Y-95250000D02*
X226060000Y-95250000D01*
X142240000Y-95250000D02*
X135001000Y-95250000D01*
X135001000Y-95250000D02*
X134366000Y-95885000D01*
X170180000Y-95250000D02*
X172655698Y-95250000D01*
X229870000Y-95796000D02*
X228638000Y-95796000D01*
X131381500Y-95885000D02*
X130746500Y-95250000D01*
X191579500Y-95250000D02*
X198120000Y-95250000D01*
X149301200Y-95872300D02*
X145402300Y-95872300D01*
X156210000Y-95250000D02*
X149923500Y-95250000D01*
X163068000Y-95250000D02*
X162435540Y-95882460D01*
X204457300Y-95885000D02*
X205092300Y-95250000D01*
X159382460Y-95882460D02*
X158750000Y-95250000D01*
X205092300Y-95250000D02*
X212090000Y-95250000D01*
X175857702Y-95885000D02*
X176492702Y-95250000D01*
X218320620Y-95877380D02*
X215092280Y-95877380D01*
X190944500Y-95885000D02*
X191579500Y-95250000D01*
X172655698Y-95250000D02*
X173290698Y-95885000D01*
X186625698Y-95250000D02*
X187260698Y-95885000D01*
X198120000Y-95250000D02*
X200595698Y-95250000D01*
X149923500Y-95250000D02*
X149301200Y-95872300D01*
X158750000Y-95250000D02*
X156210000Y-95250000D01*
X145402300Y-95872300D02*
X144780000Y-95250000D01*
X184150000Y-95250000D02*
X186625698Y-95250000D01*
X218948000Y-95250000D02*
X218320620Y-95877380D01*
X214464900Y-95250000D02*
X212090000Y-95250000D01*
X187260698Y-95885000D02*
X190944500Y-95885000D01*
X200595698Y-95250000D02*
X201230698Y-95885000D01*
X226060000Y-95250000D02*
X218948000Y-95250000D01*
X229251322Y-114300000D02*
X227348862Y-112397540D01*
X178181000Y-113030000D02*
X174574200Y-113030000D01*
X144145000Y-112395000D02*
X137160000Y-112395000D01*
X132664200Y-113030000D02*
X130302000Y-113030000D01*
X144780000Y-113030000D02*
X144145000Y-112395000D01*
X164719000Y-113030000D02*
X160604200Y-113030000D01*
X216484200Y-113030000D02*
X214122000Y-113030000D01*
X126263400Y-113030000D02*
X118694200Y-113030000D01*
X160604200Y-113030000D02*
X158188660Y-113030000D01*
X157553660Y-112395000D02*
X153860500Y-112395000D01*
X188544200Y-113030000D02*
X186182000Y-113030000D01*
X186182000Y-113030000D02*
X185547000Y-112395000D01*
X146634200Y-113030000D02*
X144780000Y-113030000D01*
X208706720Y-112400080D02*
X208076800Y-113030000D01*
X223136460Y-112397540D02*
X222504000Y-113030000D01*
X158188660Y-113030000D02*
X157553660Y-112395000D01*
X222504000Y-113030000D02*
X216484200Y-113030000D01*
X136525000Y-113030000D02*
X132664200Y-113030000D01*
X202514200Y-113030000D02*
X200533000Y-113030000D01*
X192913000Y-113030000D02*
X188544200Y-113030000D01*
X200533000Y-113030000D02*
X199885300Y-112382300D01*
X153225500Y-113030000D02*
X146634200Y-113030000D01*
X153860500Y-112395000D02*
X153225500Y-113030000D01*
X193560700Y-112382300D02*
X192913000Y-113030000D01*
X214122000Y-113030000D02*
X213492080Y-112400080D01*
X199885300Y-112382300D02*
X193560700Y-112382300D01*
X171780200Y-112395000D02*
X165354000Y-112395000D01*
X213492080Y-112400080D02*
X208706720Y-112400080D01*
X165354000Y-112395000D02*
X164719000Y-113030000D01*
X208076800Y-113030000D02*
X202514200Y-113030000D01*
X229870000Y-114300000D02*
X229251322Y-114300000D01*
X227348862Y-112397540D02*
X223136460Y-112397540D01*
X129667000Y-112395000D02*
X126898400Y-112395000D01*
X178816000Y-112395000D02*
X178181000Y-113030000D01*
X185547000Y-112395000D02*
X178816000Y-112395000D01*
X126898400Y-112395000D02*
X126263400Y-113030000D01*
X172415200Y-113030000D02*
X171780200Y-112395000D01*
X174574200Y-113030000D02*
X172415200Y-113030000D01*
X130302000Y-113030000D02*
X129667000Y-112395000D01*
X137160000Y-112395000D02*
X136525000Y-113030000D01*
X146634200Y-111760000D02*
X145034000Y-111760000D01*
X177419000Y-111760000D02*
X174574200Y-111760000D01*
X145034000Y-111760000D02*
X144399000Y-111125000D01*
X164211000Y-111125000D02*
X163576000Y-111760000D01*
X126791720Y-111125000D02*
X126156720Y-111760000D01*
X188544200Y-111760000D02*
X186372500Y-111760000D01*
X160604200Y-111760000D02*
X158452820Y-111760000D01*
X130556000Y-111760000D02*
X129921000Y-111125000D01*
X126156720Y-111760000D02*
X118694200Y-111760000D01*
X200144380Y-111117380D02*
X192539620Y-111117380D01*
X229870000Y-110350000D02*
X228613000Y-110350000D01*
X163576000Y-111760000D02*
X160604200Y-111760000D01*
X152953720Y-111125000D02*
X152318720Y-111760000D01*
X202514200Y-111760000D02*
X200787000Y-111760000D01*
X171975780Y-111125000D02*
X164211000Y-111125000D01*
X129921000Y-111125000D02*
X126791720Y-111125000D01*
X172610780Y-111760000D02*
X171975780Y-111125000D01*
X174574200Y-111760000D02*
X172610780Y-111760000D01*
X191897000Y-111760000D02*
X188544200Y-111760000D01*
X186372500Y-111760000D02*
X185737500Y-111125000D01*
X178054000Y-111125000D02*
X177419000Y-111760000D01*
X213674960Y-111122460D02*
X207609440Y-111122460D01*
X144399000Y-111125000D02*
X136144000Y-111125000D01*
X192539620Y-111117380D02*
X191897000Y-111760000D01*
X158452820Y-111760000D02*
X157817820Y-111125000D01*
X185737500Y-111125000D02*
X178054000Y-111125000D01*
X136144000Y-111125000D02*
X135509000Y-111760000D01*
X200787000Y-111760000D02*
X200144380Y-111117380D01*
X227835460Y-111127540D02*
X221802960Y-111127540D01*
X214312500Y-111760000D02*
X213674960Y-111122460D01*
X216484200Y-111760000D02*
X214312500Y-111760000D01*
X135509000Y-111760000D02*
X132664200Y-111760000D01*
X221802960Y-111127540D02*
X221170500Y-111760000D01*
X221170500Y-111760000D02*
X216484200Y-111760000D01*
X132664200Y-111760000D02*
X130556000Y-111760000D01*
X207609440Y-111122460D02*
X206971900Y-111760000D01*
X152318720Y-111760000D02*
X146634200Y-111760000D01*
X206971900Y-111760000D02*
X202514200Y-111760000D01*
X157817820Y-111125000D02*
X152953720Y-111125000D01*
X228613000Y-110350000D02*
X227835460Y-111127540D01*
X190754000Y-110490000D02*
X188544200Y-110490000D01*
X200408540Y-109857540D02*
X191386460Y-109857540D01*
X213796880Y-109847380D02*
X206458820Y-109847380D01*
X191386460Y-109857540D02*
X190754000Y-110490000D01*
X214439500Y-110490000D02*
X213796880Y-109847380D01*
X201041000Y-110490000D02*
X200408540Y-109857540D01*
X158686500Y-110490000D02*
X158051500Y-109855000D01*
X205816200Y-110490000D02*
X202514200Y-110490000D01*
X163195000Y-109855000D02*
X162560000Y-110490000D01*
X130810000Y-110490000D02*
X130175000Y-109855000D01*
X132664200Y-110490000D02*
X130810000Y-110490000D01*
X130175000Y-109855000D02*
X126502160Y-109855000D01*
X219646500Y-110490000D02*
X216484200Y-110490000D01*
X186690000Y-110490000D02*
X188544200Y-110490000D01*
X202514200Y-110490000D02*
X201041000Y-110490000D01*
X177165000Y-109855000D02*
X186055000Y-109855000D01*
X220289120Y-109847380D02*
X219646500Y-110490000D01*
X162560000Y-110490000D02*
X160604200Y-110490000D01*
X146634200Y-110490000D02*
X145288000Y-110490000D01*
X172839380Y-110490000D02*
X172204380Y-109855000D01*
X151221440Y-110490000D02*
X146634200Y-110490000D01*
X125867160Y-110490000D02*
X118694200Y-110490000D01*
X176530000Y-110490000D02*
X177165000Y-109855000D01*
X144653000Y-109855000D02*
X135382000Y-109855000D01*
X216497702Y-110476498D02*
X216484200Y-110490000D01*
X172204380Y-109855000D02*
X163195000Y-109855000D01*
X145288000Y-110490000D02*
X144653000Y-109855000D01*
X229870000Y-108750000D02*
X228562000Y-108750000D01*
X134747000Y-110490000D02*
X132664200Y-110490000D01*
X158051500Y-109855000D02*
X151856440Y-109855000D01*
X227464620Y-109847380D02*
X220289120Y-109847380D01*
X228562000Y-108750000D02*
X227464620Y-109847380D01*
X151856440Y-109855000D02*
X151221440Y-110490000D01*
X216484200Y-110490000D02*
X214439500Y-110490000D01*
X135382000Y-109855000D02*
X134747000Y-110490000D01*
X174574200Y-110490000D02*
X176530000Y-110490000D01*
X186055000Y-109855000D02*
X186690000Y-110490000D01*
X174574200Y-110490000D02*
X172839380Y-110490000D01*
X126502160Y-109855000D02*
X125867160Y-110490000D01*
X206458820Y-109847380D02*
X205816200Y-110490000D01*
X160604200Y-110490000D02*
X158686500Y-110490000D01*
X219583000Y-109220000D02*
X218948000Y-109855000D01*
X229870000Y-107950000D02*
X228473000Y-107950000D01*
X170180000Y-109220000D02*
X163068000Y-109220000D01*
X151236680Y-109220000D02*
X150601680Y-109855000D01*
X205943200Y-109220000D02*
X205308200Y-109855000D01*
X172958760Y-109855000D02*
X172323760Y-109220000D01*
X184150000Y-109220000D02*
X176911000Y-109220000D01*
X176276000Y-109855000D02*
X172958760Y-109855000D01*
X145415000Y-109855000D02*
X144780000Y-109220000D01*
X163068000Y-109220000D02*
X162433000Y-109855000D01*
X227203000Y-109220000D02*
X226060000Y-109220000D01*
X156210000Y-109220000D02*
X151236680Y-109220000D01*
X190500000Y-109855000D02*
X186753500Y-109855000D01*
X213868000Y-109220000D02*
X212090000Y-109220000D01*
X201168000Y-109855000D02*
X200533000Y-109220000D01*
X144780000Y-109220000D02*
X142240000Y-109220000D01*
X158178500Y-109220000D02*
X156210000Y-109220000D01*
X142240000Y-109220000D02*
X135128000Y-109220000D01*
X214503000Y-109855000D02*
X213868000Y-109220000D01*
X150601680Y-109855000D02*
X145415000Y-109855000D01*
X191135000Y-109220000D02*
X190500000Y-109855000D01*
X134493000Y-109855000D02*
X130910190Y-109855000D01*
X158813500Y-109855000D02*
X158178500Y-109220000D01*
X212090000Y-109220000D02*
X205943200Y-109220000D01*
X198120000Y-109220000D02*
X191135000Y-109220000D01*
X176911000Y-109220000D02*
X176276000Y-109855000D01*
X130910190Y-109855000D02*
X130275190Y-109220000D01*
X205308200Y-109855000D02*
X201168000Y-109855000D01*
X228473000Y-107950000D02*
X227203000Y-109220000D01*
X186118500Y-109220000D02*
X184150000Y-109220000D01*
X200533000Y-109220000D02*
X198120000Y-109220000D01*
X226060000Y-109220000D02*
X219583000Y-109220000D01*
X218948000Y-109855000D02*
X214503000Y-109855000D01*
X130275190Y-109220000D02*
X128270000Y-109220000D01*
X162433000Y-109855000D02*
X158813500Y-109855000D01*
X172323760Y-109220000D02*
X170180000Y-109220000D01*
X226708502Y-109220000D02*
X226060000Y-109220000D01*
X135128000Y-109220000D02*
X134493000Y-109855000D01*
X186753500Y-109855000D02*
X186118500Y-109220000D01*
X227965000Y-102237000D02*
X227965000Y-100139500D01*
X179075080Y-99689920D02*
X172524420Y-99689920D01*
X185479500Y-99060000D02*
X184150000Y-99060000D01*
X208838800Y-99060000D02*
X208203800Y-99695000D01*
X200088500Y-99695000D02*
X199453500Y-99060000D01*
X172524420Y-99689920D02*
X171894500Y-99060000D01*
X226885500Y-99060000D02*
X226060000Y-99060000D01*
X222567500Y-99060000D02*
X221932500Y-99695000D01*
X157607000Y-99060000D02*
X156210000Y-99060000D01*
X158247080Y-99700080D02*
X157607000Y-99060000D01*
X229870000Y-103492000D02*
X229220000Y-103492000D01*
X154543760Y-99060000D02*
X153913840Y-99689920D01*
X221932500Y-99695000D02*
X214144860Y-99695000D01*
X144393920Y-99689920D02*
X143764000Y-99060000D01*
X156210000Y-99060000D02*
X154543760Y-99060000D01*
X130365500Y-99695000D02*
X129730500Y-99060000D01*
X214144860Y-99695000D02*
X213509860Y-99060000D01*
X186098831Y-99679331D02*
X185479500Y-99060000D01*
X198120000Y-99060000D02*
X197500669Y-99679331D01*
X179705000Y-99060000D02*
X179075080Y-99689920D01*
X184150000Y-99060000D02*
X179705000Y-99060000D01*
X226060000Y-99060000D02*
X222567500Y-99060000D01*
X199453500Y-99060000D02*
X198120000Y-99060000D01*
X143764000Y-99060000D02*
X142240000Y-99060000D01*
X229220000Y-103492000D02*
X227965000Y-102237000D01*
X164967920Y-99700080D02*
X158247080Y-99700080D01*
X137287000Y-99060000D02*
X136652000Y-99695000D01*
X170180000Y-99060000D02*
X165608000Y-99060000D01*
X208203800Y-99695000D02*
X200088500Y-99695000D01*
X212090000Y-99060000D02*
X208838800Y-99060000D01*
X165608000Y-99060000D02*
X164967920Y-99700080D01*
X136652000Y-99695000D02*
X130365500Y-99695000D01*
X227965000Y-100139500D02*
X226885500Y-99060000D01*
X142240000Y-99060000D02*
X137287000Y-99060000D01*
X213509860Y-99060000D02*
X212090000Y-99060000D01*
X197500669Y-99679331D02*
X186098831Y-99679331D01*
X153913840Y-99689920D02*
X144393920Y-99689920D01*
X129730500Y-99060000D02*
X128270000Y-99060000D01*
X171894500Y-99060000D02*
X170180000Y-99060000D01*
X144526000Y-99060000D02*
X143885920Y-98419920D01*
X164719000Y-99060000D02*
X160604200Y-99060000D01*
X143885920Y-98419920D02*
X137038080Y-98419920D01*
X126428500Y-99060000D02*
X118694200Y-99060000D01*
X127063500Y-98425000D02*
X126428500Y-99060000D01*
X165298001Y-98480999D02*
X164719000Y-99060000D01*
X136398000Y-99060000D02*
X132664200Y-99060000D01*
X174574200Y-99060000D02*
X172593000Y-99060000D01*
X153126440Y-99060000D02*
X146634200Y-99060000D01*
X207467200Y-99060000D02*
X202514200Y-99060000D01*
X195135500Y-98425000D02*
X194500500Y-99060000D01*
X172593000Y-99060000D02*
X172013999Y-98480999D01*
X137038080Y-98419920D02*
X136398000Y-99060000D01*
X129921000Y-98425000D02*
X127063500Y-98425000D01*
X221996000Y-98425000D02*
X221361000Y-99060000D01*
X229870000Y-102692000D02*
X229311000Y-102692000D01*
X186277250Y-99060000D02*
X185637170Y-98419920D01*
X221361000Y-99060000D02*
X216484200Y-99060000D01*
X132664200Y-99060000D02*
X130556000Y-99060000D01*
X229311000Y-102692000D02*
X228473000Y-101854000D01*
X216484200Y-99060000D02*
X214312500Y-99060000D01*
X194500500Y-99060000D02*
X188544200Y-99060000D01*
X172013999Y-98480999D02*
X165298001Y-98480999D01*
X214312500Y-99060000D02*
X213677500Y-98425000D01*
X228473000Y-99554498D02*
X227343502Y-98425000D01*
X199707500Y-98425000D02*
X195135500Y-98425000D01*
X208102200Y-98425000D02*
X207467200Y-99060000D01*
X157722570Y-98409760D02*
X153776680Y-98409760D01*
X153776680Y-98409760D02*
X153126440Y-99060000D01*
X179202080Y-98419920D02*
X178562000Y-99060000D01*
X202514200Y-99060000D02*
X200342500Y-99060000D01*
X185637170Y-98419920D02*
X179202080Y-98419920D01*
X227343502Y-98425000D02*
X221996000Y-98425000D01*
X228473000Y-101854000D02*
X228473000Y-99554498D01*
X178562000Y-99060000D02*
X174574200Y-99060000D01*
X200342500Y-99060000D02*
X199707500Y-98425000D01*
X130556000Y-99060000D02*
X129921000Y-98425000D01*
X188544200Y-99060000D02*
X186277250Y-99060000D01*
X158372810Y-99060000D02*
X157722570Y-98409760D01*
X146634200Y-99060000D02*
X144526000Y-99060000D01*
X213677500Y-98425000D02*
X208102200Y-98425000D01*
X160604200Y-99060000D02*
X158372810Y-99060000D01*
X144145000Y-97155000D02*
X136271000Y-97155000D01*
X206794100Y-97155000D02*
X206159100Y-97790000D01*
X152524460Y-97162620D02*
X151897080Y-97790000D01*
X220472000Y-97155000D02*
X219837000Y-97790000D01*
X219837000Y-97790000D02*
X216484200Y-97790000D01*
X144780000Y-97790000D02*
X144145000Y-97155000D01*
X164536001Y-97210999D02*
X163957000Y-97790000D01*
X193690240Y-97139760D02*
X193040000Y-97790000D01*
X186658250Y-97790000D02*
X186020710Y-97152460D01*
X132664200Y-97790000D02*
X130810000Y-97790000D01*
X206159100Y-97790000D02*
X202514200Y-97790000D01*
X202514200Y-97790000D02*
X200660000Y-97790000D01*
X193040000Y-97790000D02*
X188544200Y-97790000D01*
X216484200Y-97790000D02*
X214599520Y-97790000D01*
X163957000Y-97790000D02*
X160604200Y-97790000D01*
X172267999Y-97210999D02*
X164536001Y-97210999D01*
X136271000Y-97155000D02*
X135636000Y-97790000D01*
X151897080Y-97790000D02*
X146634200Y-97790000D01*
X227589080Y-97155000D02*
X220472000Y-97155000D01*
X135636000Y-97790000D02*
X132664200Y-97790000D01*
X158059120Y-97162620D02*
X152524460Y-97162620D01*
X178056540Y-97152460D02*
X177419000Y-97790000D01*
X177419000Y-97790000D02*
X174574200Y-97790000D01*
X158686500Y-97790000D02*
X158059120Y-97162620D01*
X172847000Y-97790000D02*
X172267999Y-97210999D01*
X160604200Y-97790000D02*
X158686500Y-97790000D01*
X213964520Y-97155000D02*
X206794100Y-97155000D01*
X174574200Y-97790000D02*
X172847000Y-97790000D01*
X126428500Y-97790000D02*
X118694200Y-97790000D01*
X200660000Y-97790000D02*
X200009760Y-97139760D01*
X214599520Y-97790000D02*
X213964520Y-97155000D01*
X229870000Y-99435920D02*
X227589080Y-97155000D01*
X200009760Y-97139760D02*
X193690240Y-97139760D01*
X186020710Y-97152460D02*
X178056540Y-97152460D01*
X127063500Y-97155000D02*
X126428500Y-97790000D01*
X130175000Y-97155000D02*
X127063500Y-97155000D01*
X229870000Y-101092000D02*
X229870000Y-99435920D01*
X146634200Y-97790000D02*
X144780000Y-97790000D01*
X130810000Y-97790000D02*
X130175000Y-97155000D01*
X188544200Y-97790000D02*
X186658250Y-97790000D01*
X194373500Y-97790000D02*
X193738500Y-98425000D01*
X228981000Y-101598590D02*
X228981000Y-99250500D01*
X206816960Y-98427540D02*
X200535540Y-98427540D01*
X220472000Y-98425000D02*
X214431880Y-98425000D01*
X136017000Y-98425000D02*
X130683000Y-98425000D01*
X214431880Y-98425000D02*
X213796880Y-97790000D01*
X157924500Y-97790000D02*
X156210000Y-97790000D01*
X200535540Y-98427540D02*
X199898000Y-97790000D01*
X226822000Y-97790000D02*
X226060000Y-97790000D01*
X212090000Y-97790000D02*
X207454500Y-97790000D01*
X130048000Y-97790000D02*
X128270000Y-97790000D01*
X184150000Y-97790000D02*
X178689000Y-97790000D01*
X185928000Y-97790000D02*
X184150000Y-97790000D01*
X178046380Y-98432620D02*
X172727620Y-98432620D01*
X207454500Y-97790000D02*
X206816960Y-98427540D01*
X221107000Y-97790000D02*
X220472000Y-98425000D01*
X142240000Y-97790000D02*
X136652000Y-97790000D01*
X144647920Y-98419920D02*
X144018000Y-97790000D01*
X152643840Y-98419920D02*
X144647920Y-98419920D01*
X178689000Y-97790000D02*
X178046380Y-98432620D01*
X170180000Y-97790000D02*
X164973000Y-97790000D01*
X198120000Y-97790000D02*
X194373500Y-97790000D01*
X153273760Y-97790000D02*
X152643840Y-98419920D01*
X228981000Y-99250500D02*
X227520500Y-97790000D01*
X193738500Y-98425000D02*
X186563000Y-98425000D01*
X229274410Y-101892000D02*
X228981000Y-101598590D01*
X136652000Y-97790000D02*
X136017000Y-98425000D01*
X213796880Y-97790000D02*
X212090000Y-97790000D01*
X199898000Y-97790000D02*
X198120000Y-97790000D01*
X172085000Y-97790000D02*
X170180000Y-97790000D01*
X164973000Y-97790000D02*
X164353240Y-98409760D01*
X186563000Y-98425000D02*
X185928000Y-97790000D01*
X227520500Y-97790000D02*
X226060000Y-97790000D01*
X229870000Y-101892000D02*
X229274410Y-101892000D01*
X226060000Y-97790000D02*
X221107000Y-97790000D01*
X172727620Y-98432620D02*
X172085000Y-97790000D01*
X164353240Y-98409760D02*
X158544260Y-98409760D01*
X158544260Y-98409760D02*
X157924500Y-97790000D01*
X156210000Y-97790000D02*
X153273760Y-97790000D01*
X130683000Y-98425000D02*
X130048000Y-97790000D01*
X144018000Y-97790000D02*
X142240000Y-97790000D01*
X154317700Y-113030000D02*
X153682700Y-113665000D01*
X227344912Y-113030000D02*
X226060000Y-113030000D01*
X144018000Y-113030000D02*
X142240000Y-113030000D01*
X178562000Y-113665000D02*
X172234860Y-113665000D01*
X158061660Y-113665000D02*
X157426660Y-113030000D01*
X142240000Y-113030000D02*
X137668000Y-113030000D01*
X184150000Y-113030000D02*
X179197000Y-113030000D01*
X170180000Y-113030000D02*
X165862000Y-113030000D01*
X137668000Y-113030000D02*
X137033000Y-113665000D01*
X171599860Y-113030000D02*
X170180000Y-113030000D01*
X165227000Y-113665000D02*
X158061660Y-113665000D01*
X179197000Y-113030000D02*
X178562000Y-113665000D01*
X208648300Y-113665000D02*
X200279000Y-113665000D01*
X193421000Y-113665000D02*
X186118500Y-113665000D01*
X198120000Y-113030000D02*
X194056000Y-113030000D01*
X144653000Y-113665000D02*
X144018000Y-113030000D01*
X209283300Y-113030000D02*
X208648300Y-113665000D01*
X200279000Y-113665000D02*
X199644000Y-113030000D01*
X226060000Y-113030000D02*
X223837500Y-113030000D01*
X199644000Y-113030000D02*
X198120000Y-113030000D01*
X186118500Y-113665000D02*
X185483500Y-113030000D01*
X229414912Y-115100000D02*
X227344912Y-113030000D01*
X172234860Y-113665000D02*
X171599860Y-113030000D01*
X157426660Y-113030000D02*
X156210000Y-113030000D01*
X212090000Y-113030000D02*
X209283300Y-113030000D01*
X137033000Y-113665000D02*
X130238500Y-113665000D01*
X129603500Y-113030000D02*
X128270000Y-113030000D01*
X214054500Y-113665000D02*
X213419500Y-113030000D01*
X156210000Y-113030000D02*
X154317700Y-113030000D01*
X213419500Y-113030000D02*
X212090000Y-113030000D01*
X185483500Y-113030000D02*
X184150000Y-113030000D01*
X223837500Y-113030000D02*
X223202500Y-113665000D01*
X223202500Y-113665000D02*
X214054500Y-113665000D01*
X229870000Y-115100000D02*
X229414912Y-115100000D01*
X194056000Y-113030000D02*
X193421000Y-113665000D01*
X130238500Y-113665000D02*
X129603500Y-113030000D01*
X153682700Y-113665000D02*
X144653000Y-113665000D01*
X165862000Y-113030000D02*
X165227000Y-113665000D01*
X152831800Y-112395000D02*
X144907000Y-112395000D01*
X214249000Y-112395000D02*
X213614000Y-111760000D01*
X208216500Y-111760000D02*
X207581500Y-112395000D01*
X207581500Y-112395000D02*
X200660000Y-112395000D01*
X171861480Y-111760000D02*
X170180000Y-111760000D01*
X156210000Y-111760000D02*
X153466800Y-111760000D01*
X200025000Y-111760000D02*
X198120000Y-111760000D01*
X185610500Y-111760000D02*
X184150000Y-111760000D01*
X184150000Y-111760000D02*
X178308000Y-111760000D01*
X227398580Y-111760000D02*
X226060000Y-111760000D01*
X170180000Y-111760000D02*
X164846000Y-111760000D01*
X229870000Y-113500000D02*
X229138580Y-113500000D01*
X136017000Y-112395000D02*
X130429000Y-112395000D01*
X172496480Y-112395000D02*
X171861480Y-111760000D01*
X212090000Y-111760000D02*
X208216500Y-111760000D01*
X221932500Y-112395000D02*
X214249000Y-112395000D01*
X229138580Y-113500000D02*
X227398580Y-111760000D01*
X142240000Y-111760000D02*
X136652000Y-111760000D01*
X192405000Y-112395000D02*
X186245500Y-112395000D01*
X136652000Y-111760000D02*
X136017000Y-112395000D01*
X164211000Y-112395000D02*
X158282640Y-112395000D01*
X157647640Y-111760000D02*
X156210000Y-111760000D01*
X153466800Y-111760000D02*
X152831800Y-112395000D01*
X144907000Y-112395000D02*
X144272000Y-111760000D01*
X222567500Y-111760000D02*
X221932500Y-112395000D01*
X213614000Y-111760000D02*
X212090000Y-111760000D01*
X186245500Y-112395000D02*
X185610500Y-111760000D01*
X193040000Y-111760000D02*
X192405000Y-112395000D01*
X158282640Y-112395000D02*
X157647640Y-111760000D01*
X200660000Y-112395000D02*
X200025000Y-111760000D01*
X144272000Y-111760000D02*
X142240000Y-111760000D01*
X130429000Y-112395000D02*
X129794000Y-111760000D01*
X198120000Y-111760000D02*
X193040000Y-111760000D01*
X129794000Y-111760000D02*
X128270000Y-111760000D01*
X178308000Y-111760000D02*
X177673000Y-112395000D01*
X177673000Y-112395000D02*
X172496480Y-112395000D01*
X226060000Y-111760000D02*
X222567500Y-111760000D01*
X164846000Y-111760000D02*
X164211000Y-112395000D01*
X229870000Y-109550000D02*
X228524000Y-109550000D01*
X156210000Y-110490000D02*
X152425400Y-110490000D01*
X144526000Y-110490000D02*
X142240000Y-110490000D01*
X170180000Y-110490000D02*
X163703000Y-110490000D01*
X135255000Y-111125000D02*
X130746500Y-111125000D01*
X207073500Y-110490000D02*
X206438500Y-111125000D01*
X163068000Y-111125000D02*
X158551880Y-111125000D01*
X135890000Y-110490000D02*
X135255000Y-111125000D01*
X200279000Y-110490000D02*
X198120000Y-110490000D01*
X128350033Y-110570033D02*
X128270000Y-110490000D01*
X213821033Y-110570033D02*
X212170033Y-110570033D01*
X221107000Y-110490000D02*
X220472000Y-111125000D01*
X172148500Y-110490000D02*
X170180000Y-110490000D01*
X157916880Y-110490000D02*
X156210000Y-110490000D01*
X191389000Y-111125000D02*
X186563000Y-111125000D01*
X212170033Y-110570033D02*
X212090000Y-110490000D01*
X177673000Y-110490000D02*
X177038000Y-111125000D01*
X172783500Y-111125000D02*
X172148500Y-110490000D01*
X212090000Y-110490000D02*
X207073500Y-110490000D01*
X186563000Y-111125000D02*
X186008031Y-110570031D01*
X198120000Y-110490000D02*
X192024000Y-110490000D01*
X130746500Y-111125000D02*
X130191533Y-110570033D01*
X130191533Y-110570033D02*
X128350033Y-110570033D01*
X152425400Y-110490000D02*
X151790400Y-111125000D01*
X200914000Y-111125000D02*
X200279000Y-110490000D01*
X186008031Y-110570031D02*
X184230031Y-110570031D01*
X142240000Y-110490000D02*
X135890000Y-110490000D01*
X145161000Y-111125000D02*
X144526000Y-110490000D01*
X163703000Y-110490000D02*
X163068000Y-111125000D01*
X228524000Y-109550000D02*
X227584000Y-110490000D01*
X214376000Y-111125000D02*
X213821033Y-110570033D01*
X184230031Y-110570031D02*
X184150000Y-110490000D01*
X184150000Y-110490000D02*
X177673000Y-110490000D01*
X206438500Y-111125000D02*
X200914000Y-111125000D01*
X220472000Y-111125000D02*
X214376000Y-111125000D01*
X226060000Y-110490000D02*
X221107000Y-110490000D01*
X192024000Y-110490000D02*
X191389000Y-111125000D01*
X151790400Y-111125000D02*
X145161000Y-111125000D01*
X158551880Y-111125000D02*
X157916880Y-110490000D01*
X177038000Y-111125000D02*
X172783500Y-111125000D01*
X227584000Y-110490000D02*
X226060000Y-110490000D01*
X223902270Y-114300000D02*
X216484200Y-114300000D01*
X126243080Y-114300000D02*
X118694200Y-114300000D01*
X200025000Y-114300000D02*
X199390000Y-113665000D01*
X229870000Y-115900000D02*
X229578502Y-115900000D01*
X214503000Y-114300000D02*
X216484200Y-114300000D01*
X144526000Y-114300000D02*
X143891000Y-113665000D01*
X216497702Y-114286498D02*
X216484200Y-114300000D01*
X174574200Y-114300000D02*
X171975780Y-114300000D01*
X185388250Y-113665000D02*
X179451000Y-113665000D01*
X157378400Y-113665000D02*
X154952700Y-113665000D01*
X165862000Y-114300000D02*
X160604200Y-114300000D01*
X130111500Y-114300000D02*
X129476500Y-113665000D01*
X129476500Y-113665000D02*
X126878080Y-113665000D01*
X143891000Y-113665000D02*
X138176000Y-113665000D01*
X210007200Y-113665000D02*
X213296500Y-113665000D01*
X202514200Y-114300000D02*
X209372200Y-114300000D01*
X186023250Y-114300000D02*
X185388250Y-113665000D01*
X154317700Y-114300000D02*
X146634200Y-114300000D01*
X224537270Y-113665000D02*
X223902270Y-114300000D01*
X166497000Y-113665000D02*
X165862000Y-114300000D01*
X229578502Y-115900000D02*
X227343502Y-113665000D01*
X171975780Y-114300000D02*
X171340780Y-113665000D01*
X132664200Y-114300000D02*
X130111500Y-114300000D01*
X137541000Y-114300000D02*
X132664200Y-114300000D01*
X178816000Y-114300000D02*
X174574200Y-114300000D01*
X209372200Y-114300000D02*
X210007200Y-113665000D01*
X160604200Y-114300000D02*
X158013400Y-114300000D01*
X179451000Y-113665000D02*
X178816000Y-114300000D01*
X138176000Y-113665000D02*
X137541000Y-114300000D01*
X199390000Y-113665000D02*
X194691000Y-113665000D01*
X171340780Y-113665000D02*
X166497000Y-113665000D01*
X146634200Y-114300000D02*
X144526000Y-114300000D01*
X213931500Y-114300000D02*
X214503000Y-114300000D01*
X158013400Y-114300000D02*
X157378400Y-113665000D01*
X202514200Y-114300000D02*
X200025000Y-114300000D01*
X188544200Y-114300000D02*
X186023250Y-114300000D01*
X194056000Y-114300000D02*
X188544200Y-114300000D01*
X213296500Y-113665000D02*
X213931500Y-114300000D01*
X126878080Y-113665000D02*
X126243080Y-114300000D01*
X227343502Y-113665000D02*
X224537270Y-113665000D01*
X194691000Y-113665000D02*
X194056000Y-114300000D01*
X154952700Y-113665000D02*
X154317700Y-114300000D01*
M02*
