G04 #@! TF.GenerationSoftware,KiCad,Pcbnew,(6.0.0)*
G04 #@! TF.CreationDate,2022-01-26T20:37:23-08:00*
G04 #@! TF.ProjectId,M919_cache,4d393139-5f63-4616-9368-652e6b696361,rev?*
G04 #@! TF.SameCoordinates,Original*
G04 #@! TF.FileFunction,Copper,L4,Bot*
G04 #@! TF.FilePolarity,Positive*
%FSLAX46Y46*%
G04 Gerber Fmt 4.6, Leading zero omitted, Abs format (unit mm)*
G04 Created by KiCad (PCBNEW (6.0.0)) date 2022-01-26 20:37:23*
%MOMM*%
%LPD*%
G01*
G04 APERTURE LIST*
G04 Aperture macros list*
%AMRoundRect*
0 Rectangle with rounded corners*
0 $1 Rounding radius*
0 $2 $3 $4 $5 $6 $7 $8 $9 X,Y pos of 4 corners*
0 Add a 4 corners polygon primitive as box body*
4,1,4,$2,$3,$4,$5,$6,$7,$8,$9,$2,$3,0*
0 Add four circle primitives for the rounded corners*
1,1,$1+$1,$2,$3*
1,1,$1+$1,$4,$5*
1,1,$1+$1,$6,$7*
1,1,$1+$1,$8,$9*
0 Add four rect primitives between the rounded corners*
20,1,$1+$1,$2,$3,$4,$5,0*
20,1,$1+$1,$4,$5,$6,$7,0*
20,1,$1+$1,$6,$7,$8,$9,0*
20,1,$1+$1,$8,$9,$2,$3,0*%
G04 Aperture macros list end*
G04 #@! TA.AperFunction,ConnectorPad*
%ADD10R,0.914000X4.978000*%
G04 #@! TD*
G04 #@! TA.AperFunction,SMDPad,CuDef*
%ADD11RoundRect,0.218750X-0.256250X0.218750X-0.256250X-0.218750X0.256250X-0.218750X0.256250X0.218750X0*%
G04 #@! TD*
G04 #@! TA.AperFunction,SMDPad,CuDef*
%ADD12RoundRect,0.218750X0.256250X-0.218750X0.256250X0.218750X-0.256250X0.218750X-0.256250X-0.218750X0*%
G04 #@! TD*
G04 #@! TA.AperFunction,ViaPad*
%ADD13C,0.600000*%
G04 #@! TD*
G04 #@! TA.AperFunction,Conductor*
%ADD14C,0.750000*%
G04 #@! TD*
G04 #@! TA.AperFunction,Conductor*
%ADD15C,0.500000*%
G04 #@! TD*
G04 #@! TA.AperFunction,Conductor*
%ADD16C,0.250000*%
G04 #@! TD*
G04 APERTURE END LIST*
D10*
X129581000Y-123600000D03*
X130851000Y-123600000D03*
X132121000Y-123600000D03*
X133391000Y-123600000D03*
X134661000Y-123600000D03*
X135931000Y-123600000D03*
X137201000Y-123600000D03*
X138471000Y-123600000D03*
X139741000Y-123600000D03*
X141011000Y-123600000D03*
X142281000Y-123600000D03*
X143551000Y-123600000D03*
X144821000Y-123600000D03*
X146091000Y-123600000D03*
X147361000Y-123600000D03*
X148631000Y-123600000D03*
X149901000Y-123600000D03*
X151171000Y-123600000D03*
X152441000Y-123600000D03*
X153711000Y-123600000D03*
X154981000Y-123600000D03*
X156251000Y-123600000D03*
X157521000Y-123600000D03*
X158791000Y-123600000D03*
X160061000Y-123600000D03*
X161331000Y-123600000D03*
X162601000Y-123600000D03*
X163871000Y-123600000D03*
X165141000Y-123600000D03*
X166411000Y-123600000D03*
X167681000Y-123600000D03*
X168951000Y-123600000D03*
X170221000Y-123600000D03*
X171491000Y-123600000D03*
X172761000Y-123600000D03*
X174031000Y-123600000D03*
X175301000Y-123600000D03*
X176571000Y-123600000D03*
X177841000Y-123600000D03*
X179111000Y-123600000D03*
X180381000Y-123600000D03*
X181651000Y-123600000D03*
X185461000Y-123600000D03*
X186731000Y-123600000D03*
X188001000Y-123600000D03*
X189271000Y-123600000D03*
X190541000Y-123600000D03*
X191811000Y-123600000D03*
X193081000Y-123600000D03*
X194351000Y-123600000D03*
X195621000Y-123600000D03*
X196891000Y-123600000D03*
X198161000Y-123600000D03*
X199431000Y-123600000D03*
X200701000Y-123600000D03*
X201971000Y-123600000D03*
X203241000Y-123600000D03*
X204511000Y-123600000D03*
X205781000Y-123600000D03*
X207051000Y-123600000D03*
X208321000Y-123600000D03*
X209591000Y-123600000D03*
X210861000Y-123600000D03*
X212131000Y-123600000D03*
X213401000Y-123600000D03*
X214671000Y-123600000D03*
X215941000Y-123600000D03*
X217211000Y-123600000D03*
X218481000Y-123600000D03*
X219751000Y-123600000D03*
X221021000Y-123600000D03*
X222291000Y-123600000D03*
X223561000Y-123600000D03*
X224831000Y-123600000D03*
X226101000Y-123600000D03*
X227371000Y-123600000D03*
X228641000Y-123600000D03*
X229911000Y-123600000D03*
X231181000Y-123600000D03*
X232451000Y-123600000D03*
D11*
X118745000Y-103987500D03*
X118745000Y-105562500D03*
D12*
X128270000Y-105562500D03*
X128270000Y-103987500D03*
D11*
X132651500Y-103987500D03*
X132651500Y-105562500D03*
D12*
X142240000Y-105562500D03*
X142240000Y-103987500D03*
D11*
X146621500Y-103987500D03*
X146621500Y-105562500D03*
D12*
X156210000Y-105562500D03*
X156210000Y-103987500D03*
D11*
X160655000Y-103962000D03*
X160655000Y-105537000D03*
D12*
X170180000Y-105562500D03*
X170180000Y-103987500D03*
D11*
X174625000Y-103962000D03*
X174625000Y-105537000D03*
X184213500Y-103924000D03*
X184213500Y-105499000D03*
D12*
X188531500Y-105562500D03*
X188531500Y-103987500D03*
X202501500Y-105524500D03*
X202501500Y-103949500D03*
D11*
X212090000Y-103987500D03*
X212090000Y-105562500D03*
D12*
X216471500Y-105562500D03*
X216471500Y-103987500D03*
D11*
X226060000Y-103962000D03*
X226060000Y-105537000D03*
D12*
X234950000Y-105524500D03*
X234950000Y-103949500D03*
D11*
X244475000Y-103949500D03*
X244475000Y-105524500D03*
X198120000Y-103962000D03*
X198120000Y-105537000D03*
D13*
X142240000Y-119888000D03*
X144780000Y-119888000D03*
X182626000Y-104140000D03*
X168656000Y-104140000D03*
X231394000Y-120396000D03*
X207010000Y-120396000D03*
X132080000Y-119888000D03*
X222250000Y-120396000D03*
X236474000Y-105410000D03*
X237037880Y-99865180D03*
X126492000Y-104140000D03*
X139700000Y-119888000D03*
X244525807Y-100329993D03*
X189992000Y-105410000D03*
X129540000Y-119888000D03*
X162052000Y-105410000D03*
X176022000Y-105410000D03*
X217932000Y-105410000D03*
X210566000Y-104093991D03*
X148336000Y-105410000D03*
X134366000Y-105410000D03*
X196596000Y-104140000D03*
X215900000Y-120396000D03*
X143510000Y-119888000D03*
X133350000Y-119888000D03*
X170180000Y-120142000D03*
X195580000Y-120396000D03*
X140970000Y-119888000D03*
X130810000Y-119888000D03*
X120396000Y-105410000D03*
X242824000Y-104140000D03*
X203962000Y-105410000D03*
X224536000Y-104140000D03*
X140462000Y-104140000D03*
X154686000Y-104140000D03*
X217424000Y-120396000D03*
X138430000Y-119888000D03*
X147320000Y-119888000D03*
X146050000Y-119888000D03*
X182626014Y-105410000D03*
X176022000Y-104140000D03*
X217932000Y-104140000D03*
X203962000Y-104140000D03*
X148336000Y-104140000D03*
X196596000Y-105410000D03*
X126492000Y-105410000D03*
X196850000Y-120396000D03*
X168656000Y-105410000D03*
X223520000Y-120396000D03*
X162052000Y-104140000D03*
X236474000Y-104140000D03*
X158750000Y-120142000D03*
X242824000Y-105410000D03*
X137160000Y-119888000D03*
X244602000Y-114300000D03*
X135890000Y-119888000D03*
X134620000Y-119888000D03*
X120396000Y-104140000D03*
X134366000Y-104394000D03*
X154686000Y-105410000D03*
X232664000Y-120396000D03*
X181864000Y-120396000D03*
X210566000Y-105410000D03*
X224536000Y-105410000D03*
X189992000Y-104140000D03*
X212090000Y-120396000D03*
X140462000Y-105410000D03*
X242628420Y-98943160D03*
X242757960Y-99788980D03*
X242669060Y-100995480D03*
X241150140Y-109171740D03*
X240283998Y-109220000D03*
X230632000Y-100142040D03*
X231670000Y-97396000D03*
X232791000Y-98425000D03*
X231670000Y-103492000D03*
X230449120Y-106151680D03*
X227954840Y-103682800D03*
X242508879Y-109860241D03*
X244525800Y-110490000D03*
X244525800Y-111760000D03*
X214889080Y-104759760D03*
X208366360Y-104823260D03*
X128270000Y-100330000D03*
X202821540Y-115829080D03*
X212090000Y-100330000D03*
X184150000Y-100330000D03*
X156210000Y-100330000D03*
X146634200Y-100330000D03*
X202514200Y-100330000D03*
X174574200Y-100330000D03*
X204152500Y-115925600D03*
X118694200Y-100330000D03*
X132664200Y-109220000D03*
X130813810Y-116005610D03*
X200345040Y-118983760D03*
X161074100Y-116857780D03*
X199773540Y-119557798D03*
X160604200Y-109220000D03*
X202514200Y-109220000D03*
X200726542Y-115658576D03*
X200891140Y-117586590D03*
X208175860Y-107944920D03*
X200294240Y-107469940D03*
X206354682Y-106860340D03*
X206232760Y-105580180D03*
X205425040Y-102943660D03*
X204383640Y-102867460D03*
X205818740Y-101600000D03*
X202514200Y-101600000D03*
X184150000Y-107950000D03*
X178927760Y-107950000D03*
X178460400Y-106738420D03*
X177416460Y-106685080D03*
X177182780Y-105270300D03*
X172935900Y-108892340D03*
X172260324Y-108395999D03*
X171869100Y-107660442D03*
X165933120Y-107947460D03*
X164830760Y-107942380D03*
X163642040Y-106677460D03*
X162580320Y-106664760D03*
X152844500Y-102916009D03*
X145026380Y-102880160D03*
X144356875Y-102301500D03*
X143924020Y-101625570D03*
X121305320Y-108587540D03*
X120286780Y-108572300D03*
X226814380Y-119974360D03*
X242646200Y-108056680D03*
X224716340Y-120347740D03*
X234950000Y-95250000D03*
X234950000Y-96520000D03*
X224574100Y-119273320D03*
X223936614Y-118620626D03*
X231670000Y-98657000D03*
X223512380Y-117917130D03*
X233085640Y-107673140D03*
X234950000Y-110490000D03*
X225277680Y-116354860D03*
X222686880Y-115671600D03*
X232175050Y-111525050D03*
X237769400Y-112148620D03*
X219717620Y-115785900D03*
X224342960Y-115679220D03*
X217510360Y-116982240D03*
X239196880Y-113030000D03*
X218569540Y-115806220D03*
X204954006Y-117630622D03*
X140197840Y-100098860D03*
X218589860Y-100451920D03*
X206964280Y-116779040D03*
X199920860Y-100307140D03*
X168021000Y-100134420D03*
X206928720Y-117774720D03*
X205049120Y-118468142D03*
X216484200Y-100330000D03*
X140174980Y-114439700D03*
X158978600Y-114932460D03*
X206900780Y-115874800D03*
X182377080Y-114363500D03*
X198120000Y-114300000D03*
X200327260Y-108524040D03*
X201543921Y-115684300D03*
D14*
X170221000Y-123600000D02*
X170221000Y-120183000D01*
D15*
X170180000Y-103987500D02*
X168808500Y-103987500D01*
X224714000Y-103962000D02*
X224536000Y-104140000D01*
X226060000Y-103962000D02*
X224714000Y-103962000D01*
D14*
X139741000Y-119929000D02*
X139700000Y-119888000D01*
X140970000Y-119888000D02*
X140970000Y-123559000D01*
D15*
X128270000Y-103987500D02*
X126644500Y-103987500D01*
D14*
X144821000Y-119929000D02*
X144780000Y-119888000D01*
X129581000Y-119929000D02*
X129540000Y-119888000D01*
X207051000Y-120437000D02*
X207010000Y-120396000D01*
D15*
X236359500Y-105524500D02*
X236474000Y-105410000D01*
D14*
X222291000Y-120437000D02*
X222250000Y-120396000D01*
D15*
X175895000Y-105537000D02*
X176022000Y-105410000D01*
X126644500Y-103987500D02*
X126492000Y-104140000D01*
X182842000Y-103924000D02*
X182626000Y-104140000D01*
D14*
X132121000Y-123600000D02*
X132121000Y-119929000D01*
X143510000Y-119888000D02*
X143510000Y-123559000D01*
X142281000Y-123600000D02*
X142281000Y-119929000D01*
X129581000Y-123600000D02*
X129581000Y-119929000D01*
X231181000Y-123600000D02*
X231181000Y-120609000D01*
D15*
X188531500Y-105562500D02*
X189839500Y-105562500D01*
X203847500Y-105524500D02*
X203962000Y-105410000D01*
D14*
X140970000Y-123559000D02*
X141011000Y-123600000D01*
X130851000Y-123600000D02*
X130851000Y-119929000D01*
D15*
X118745000Y-105562500D02*
X120243500Y-105562500D01*
X212090000Y-103987500D02*
X210672491Y-103987500D01*
D14*
X142281000Y-119929000D02*
X142240000Y-119888000D01*
D15*
X120243500Y-105562500D02*
X120396000Y-105410000D01*
X140614500Y-103987500D02*
X140462000Y-104140000D01*
X243014500Y-103949500D02*
X242824000Y-104140000D01*
X196774000Y-103962000D02*
X196596000Y-104140000D01*
X244475000Y-103949500D02*
X243014500Y-103949500D01*
X234950000Y-105524500D02*
X236359500Y-105524500D01*
X132651500Y-105562500D02*
X134213500Y-105562500D01*
D14*
X215941000Y-123600000D02*
X215941000Y-120437000D01*
D15*
X210672491Y-103987500D02*
X210566000Y-104093991D01*
X148183500Y-105562500D02*
X148336000Y-105410000D01*
X142240000Y-103987500D02*
X140614500Y-103987500D01*
X217779500Y-105562500D02*
X217932000Y-105410000D01*
D14*
X144821000Y-123600000D02*
X144821000Y-119929000D01*
D15*
X146621500Y-105562500D02*
X148183500Y-105562500D01*
X184213500Y-103924000D02*
X182842000Y-103924000D01*
X216471500Y-105562500D02*
X217779500Y-105562500D01*
X202501500Y-105524500D02*
X203847500Y-105524500D01*
D14*
X195621000Y-120437000D02*
X195580000Y-120396000D01*
X195621000Y-123600000D02*
X195621000Y-120437000D01*
D15*
X189839500Y-105562500D02*
X189992000Y-105410000D01*
D14*
X207051000Y-123600000D02*
X207051000Y-120437000D01*
D15*
X198120000Y-103962000D02*
X196774000Y-103962000D01*
X156210000Y-103987500D02*
X154838500Y-103987500D01*
D14*
X133391000Y-119929000D02*
X133350000Y-119888000D01*
X133391000Y-123600000D02*
X133391000Y-119929000D01*
D15*
X134213500Y-105562500D02*
X134366000Y-105410000D01*
X174625000Y-105537000D02*
X175895000Y-105537000D01*
X161925000Y-105537000D02*
X162052000Y-105410000D01*
X168808500Y-103987500D02*
X168656000Y-104140000D01*
D14*
X139741000Y-123600000D02*
X139741000Y-119929000D01*
X170221000Y-120183000D02*
X170180000Y-120142000D01*
D15*
X160655000Y-105537000D02*
X161925000Y-105537000D01*
D14*
X231181000Y-120609000D02*
X231394000Y-120396000D01*
X215941000Y-120437000D02*
X215900000Y-120396000D01*
D15*
X154838500Y-103987500D02*
X154686000Y-104140000D01*
D14*
X222291000Y-123600000D02*
X222291000Y-120437000D01*
X132121000Y-119929000D02*
X132080000Y-119888000D01*
X143510000Y-123559000D02*
X143551000Y-123600000D01*
X130851000Y-119929000D02*
X130810000Y-119888000D01*
D15*
X142240000Y-105562500D02*
X140614500Y-105562500D01*
X128270000Y-105562500D02*
X126644500Y-105562500D01*
X210718500Y-105562500D02*
X210566000Y-105410000D01*
X224663000Y-105537000D02*
X224536000Y-105410000D01*
X212090000Y-105562500D02*
X210718500Y-105562500D01*
X175844000Y-103962000D02*
X176022000Y-104140000D01*
X188531500Y-103987500D02*
X189839500Y-103987500D01*
X168808500Y-105562500D02*
X168656000Y-105410000D01*
X234950000Y-103949500D02*
X236283500Y-103949500D01*
X244475000Y-105524500D02*
X242938500Y-105524500D01*
X216471500Y-103987500D02*
X217779500Y-103987500D01*
X120243500Y-103987500D02*
X120396000Y-104140000D01*
X132651500Y-103987500D02*
X133959500Y-103987500D01*
X236283500Y-103949500D02*
X236474000Y-104140000D01*
X203771500Y-103949500D02*
X203962000Y-104140000D01*
X174625000Y-103962000D02*
X175844000Y-103962000D01*
X202501500Y-103949500D02*
X203771500Y-103949500D01*
X170180000Y-105562500D02*
X168808500Y-105562500D01*
X154838500Y-105562500D02*
X154686000Y-105410000D01*
X160655000Y-103962000D02*
X161874000Y-103962000D01*
X126644500Y-105562500D02*
X126492000Y-105410000D01*
X182715014Y-105499000D02*
X182626014Y-105410000D01*
X146621500Y-103987500D02*
X148183500Y-103987500D01*
X198120000Y-105537000D02*
X196723000Y-105537000D01*
X156210000Y-105562500D02*
X154838500Y-105562500D01*
X148183500Y-103987500D02*
X148336000Y-104140000D01*
X242938500Y-105524500D02*
X242824000Y-105410000D01*
X196723000Y-105537000D02*
X196596000Y-105410000D01*
X189839500Y-103987500D02*
X189992000Y-104140000D01*
X217779500Y-103987500D02*
X217932000Y-104140000D01*
X118745000Y-103987500D02*
X120243500Y-103987500D01*
X184213500Y-105499000D02*
X182715014Y-105499000D01*
X226060000Y-105537000D02*
X224663000Y-105537000D01*
X140614500Y-105562500D02*
X140462000Y-105410000D01*
X133959500Y-103987500D02*
X134366000Y-104394000D01*
X161874000Y-103962000D02*
X162052000Y-104140000D01*
D16*
X247063260Y-100505260D02*
X247063260Y-100101400D01*
X229911000Y-123600000D02*
X229911000Y-120037500D01*
X231521000Y-118427500D02*
X245930420Y-118427500D01*
X245905020Y-98943160D02*
X242628420Y-98943160D01*
X247063260Y-100101400D02*
X245905020Y-98943160D01*
X229911000Y-120037500D02*
X231521000Y-118427500D01*
X247063260Y-117294660D02*
X247063260Y-100505260D01*
X245930420Y-118427500D02*
X247063260Y-117294660D01*
X228641000Y-120151800D02*
X230870760Y-117922040D01*
X245734840Y-117922040D02*
X246496840Y-117160040D01*
X230870760Y-117922040D02*
X245734840Y-117922040D01*
X246496840Y-100335080D02*
X245821200Y-99659440D01*
X246496840Y-117160040D02*
X246496840Y-101229160D01*
X246496840Y-101229160D02*
X246496840Y-100335080D01*
X245821200Y-99659440D02*
X242887500Y-99659440D01*
X228641000Y-123600000D02*
X228641000Y-120151800D01*
X242887500Y-99659440D02*
X242757960Y-99788980D01*
X227371000Y-123600000D02*
X227371000Y-120339760D01*
X245493540Y-117439440D02*
X246037100Y-116895880D01*
X245745000Y-100995480D02*
X242669060Y-100995480D01*
X246037100Y-101287580D02*
X245745000Y-100995480D01*
X227371000Y-120339760D02*
X230271320Y-117439440D01*
X230271320Y-117439440D02*
X245493540Y-117439440D01*
X246037100Y-116895880D02*
X246037100Y-101551740D01*
X246037100Y-101551740D02*
X246037100Y-101287580D01*
X241886417Y-114823563D02*
X241886417Y-110162783D01*
X226101000Y-123600000D02*
X226101000Y-119793660D01*
X241886417Y-110162783D02*
X241150140Y-109426506D01*
X229402640Y-116492020D02*
X240217960Y-116492020D01*
X240217960Y-116492020D02*
X241886417Y-114823563D01*
X241150140Y-109426506D02*
X241150140Y-109171740D01*
X226101000Y-119793660D02*
X229402640Y-116492020D01*
X229997442Y-115214400D02*
X240558320Y-115214400D01*
X224831000Y-123600000D02*
X224831000Y-121170782D01*
X225649112Y-119562730D02*
X229997442Y-115214400D01*
X240558320Y-115214400D02*
X241434899Y-114337821D01*
X224831000Y-121170782D02*
X225649112Y-120352670D01*
X241434899Y-110370901D02*
X240283998Y-109220000D01*
X225649112Y-120352670D02*
X225649112Y-119562730D01*
X241434899Y-114337821D02*
X241434899Y-110370901D01*
X216611200Y-116507260D02*
X219395040Y-113723420D01*
X221021000Y-120861000D02*
X217960120Y-117800120D01*
X221021000Y-123600000D02*
X221021000Y-120861000D01*
X217167460Y-117800120D02*
X216611200Y-117243860D01*
X219395040Y-113723420D02*
X221421960Y-113723420D01*
X217960120Y-117800120D02*
X217167460Y-117800120D01*
X230632000Y-104513380D02*
X230632000Y-100142040D01*
X216611200Y-117243860D02*
X216611200Y-116507260D01*
X221421960Y-113723420D02*
X230632000Y-104513380D01*
X229844600Y-99221400D02*
X231670000Y-97396000D01*
X217807540Y-118397020D02*
X216976960Y-118397020D01*
X219751000Y-123600000D02*
X219751000Y-120340480D01*
X219176600Y-113093500D02*
X221002860Y-113093500D01*
X229844600Y-104251760D02*
X229844600Y-99221400D01*
X216976960Y-118397020D02*
X216070180Y-117490240D01*
X219751000Y-120340480D02*
X217807540Y-118397020D01*
X216070180Y-116199920D02*
X219176600Y-113093500D01*
X216070180Y-117490240D02*
X216070180Y-116199920D01*
X221002860Y-113093500D02*
X229844600Y-104251760D01*
X232791000Y-97429320D02*
X232791000Y-98425000D01*
X232069640Y-96707960D02*
X232791000Y-97429320D01*
X218481000Y-120022980D02*
X217566240Y-119108220D01*
X215414860Y-115661440D02*
X218739720Y-112336580D01*
X218739720Y-112336580D02*
X220941900Y-112336580D01*
X217566240Y-119108220D02*
X216783920Y-119108220D01*
X218481000Y-123600000D02*
X218481000Y-120022980D01*
X216783920Y-119108220D02*
X215414860Y-117739160D01*
X229306120Y-98821240D02*
X231419400Y-96707960D01*
X229306120Y-103972360D02*
X229306120Y-98821240D01*
X220941900Y-112336580D02*
X229306120Y-103972360D01*
X215414860Y-117739160D02*
X215414860Y-115661440D01*
X231419400Y-96707960D02*
X232069640Y-96707960D01*
X223965210Y-103199490D02*
X227471530Y-103199490D01*
X227471530Y-103199490D02*
X227954840Y-103682800D01*
X231940100Y-103762100D02*
X231670000Y-103492000D01*
X218396820Y-111701580D02*
X219938600Y-111701580D01*
X223580960Y-103583740D02*
X223965210Y-103199490D01*
X223580960Y-108059220D02*
X223580960Y-103583740D01*
X230449120Y-106151680D02*
X231940100Y-104660700D01*
X219938600Y-111701580D02*
X223580960Y-108059220D01*
X214671000Y-115427400D02*
X218396820Y-111701580D01*
X231940100Y-104660700D02*
X231940100Y-103762100D01*
X214671000Y-123600000D02*
X214671000Y-115427400D01*
X235247180Y-94579440D02*
X238871760Y-98204020D01*
X219466160Y-111137700D02*
X222973900Y-107629960D01*
X238871760Y-106840020D02*
X239196880Y-107165140D01*
X238871760Y-98204020D02*
X238871760Y-106840020D01*
X239400080Y-107370880D02*
X240507520Y-107370880D01*
X242508879Y-109372239D02*
X242508879Y-109860241D01*
X213401000Y-123600000D02*
X213401000Y-115851580D01*
X213401000Y-115851580D02*
X218114880Y-111137700D01*
X218114880Y-111137700D02*
X219466160Y-111137700D01*
X239194340Y-107165140D02*
X239400080Y-107370880D01*
X231927400Y-94579440D02*
X235247180Y-94579440D01*
X222973900Y-103532940D02*
X231927400Y-94579440D01*
X222973900Y-107629960D02*
X222973900Y-103532940D01*
X240507520Y-107370880D02*
X242508879Y-109372239D01*
X242735100Y-106829860D02*
X244525800Y-108620560D01*
X212598000Y-115481100D02*
X217678000Y-110401100D01*
X239570260Y-97944940D02*
X239570260Y-106420920D01*
X217678000Y-110401100D02*
X218963240Y-110401100D01*
X209591000Y-123600000D02*
X209591000Y-120365160D01*
X244525800Y-108620560D02*
X244525800Y-110490000D01*
X209591000Y-120365160D02*
X212598000Y-117358160D01*
X239570260Y-106420920D02*
X239979200Y-106829860D01*
X235297980Y-93672660D02*
X239570260Y-97944940D01*
X212598000Y-117358160D02*
X212598000Y-115481100D01*
X222227140Y-102946200D02*
X231500680Y-93672660D01*
X231500680Y-93672660D02*
X235297980Y-93672660D01*
X222227140Y-107137200D02*
X222227140Y-102946200D01*
X239979200Y-106829860D02*
X242735100Y-106829860D01*
X218963240Y-110401100D02*
X222227140Y-107137200D01*
X240380520Y-105653840D02*
X240949480Y-106222800D01*
X208321000Y-120443900D02*
X211861400Y-116903500D01*
X221294960Y-102519480D02*
X230754430Y-93060010D01*
X236224570Y-93060010D02*
X240380520Y-97215960D01*
X245221760Y-111064040D02*
X244525800Y-111760000D01*
X217164920Y-109567980D02*
X218554300Y-109567980D01*
X245221760Y-108287820D02*
X245221760Y-111064040D01*
X218554300Y-109567980D02*
X221294960Y-106827320D01*
X208321000Y-123600000D02*
X208321000Y-120443900D01*
X230754430Y-93060010D02*
X236224570Y-93060010D01*
X211861400Y-114871500D02*
X217164920Y-109567980D01*
X240949480Y-106222800D02*
X243156740Y-106222800D01*
X243156740Y-106222800D02*
X245221760Y-108287820D01*
X221294960Y-106827320D02*
X221294960Y-102519480D01*
X240380520Y-97215960D02*
X240380520Y-105653840D01*
X211861400Y-116903500D02*
X211861400Y-114871500D01*
X158452820Y-98087180D02*
X156210000Y-100330000D01*
X186265820Y-98214180D02*
X184150000Y-100330000D01*
X177027840Y-100330000D02*
X174785020Y-98087180D01*
X202821540Y-115829080D02*
X209491580Y-109159040D01*
X184150000Y-100330000D02*
X177027840Y-100330000D01*
X219890340Y-103698040D02*
X219890340Y-99882960D01*
X218495880Y-98488500D02*
X213931500Y-98488500D01*
X155795980Y-100330000D02*
X153644600Y-98178620D01*
X156210000Y-100330000D02*
X155795980Y-100330000D01*
X174785020Y-98087180D02*
X158452820Y-98087180D01*
X216912754Y-104759760D02*
X216935614Y-104782620D01*
X209491580Y-105948480D02*
X208366360Y-104823260D01*
X214889080Y-104759760D02*
X216912754Y-104759760D01*
X218805760Y-104782620D02*
X219890340Y-103698040D01*
X212090000Y-100330000D02*
X211617560Y-100330000D01*
X130421380Y-98178620D02*
X128270000Y-100330000D01*
X213931500Y-98488500D02*
X212090000Y-100330000D01*
X153644600Y-98178620D02*
X130421380Y-98178620D01*
X209501740Y-98214180D02*
X186265820Y-98214180D01*
X211617560Y-100330000D02*
X209501740Y-98214180D01*
X216935614Y-104782620D02*
X218805760Y-104782620D01*
X219890340Y-99882960D02*
X218495880Y-98488500D01*
X209491580Y-109159040D02*
X209491580Y-105948480D01*
X185417460Y-102903020D02*
X177147220Y-102903020D01*
X140126720Y-101760020D02*
X120124220Y-101760020D01*
X201058780Y-100330000D02*
X200304400Y-101084380D01*
X187236100Y-101084380D02*
X185417460Y-102903020D01*
X202514200Y-100330000D02*
X201058780Y-100330000D01*
X166641780Y-102923340D02*
X155747720Y-102923340D01*
X169235120Y-100330000D02*
X166641780Y-102923340D01*
X146634200Y-100330000D02*
X141556740Y-100330000D01*
X141556740Y-100330000D02*
X140126720Y-101760020D01*
X204152500Y-115925600D02*
X209941591Y-110136509D01*
X209941591Y-105762080D02*
X209921271Y-105741760D01*
X209921271Y-105741760D02*
X209921271Y-101559791D01*
X155747720Y-102923340D02*
X153022300Y-100197920D01*
X153022300Y-100197920D02*
X146766280Y-100197920D01*
X209941591Y-110136509D02*
X209941591Y-105762080D01*
X174574200Y-100330000D02*
X169235120Y-100330000D01*
X209921271Y-101559791D02*
X208691480Y-100330000D01*
X120124220Y-101760020D02*
X118694200Y-100330000D01*
X177147220Y-102903020D02*
X174574200Y-100330000D01*
X146766280Y-100197920D02*
X146634200Y-100330000D01*
X200304400Y-101084380D02*
X187236100Y-101084380D01*
X208691480Y-100330000D02*
X202514200Y-100330000D01*
X132664200Y-109220000D02*
X132664200Y-114155220D01*
X201971000Y-123600000D02*
X201971000Y-120609720D01*
X201971000Y-120609720D02*
X200345040Y-118983760D01*
X132664200Y-114155220D02*
X130813810Y-116005610D01*
X160604200Y-116387880D02*
X160604200Y-109220000D01*
X161074100Y-116857780D02*
X160604200Y-116387880D01*
X200701000Y-123600000D02*
X200701000Y-120485258D01*
X200701000Y-120485258D02*
X199773540Y-119557798D01*
X199148538Y-123317538D02*
X199148538Y-118904928D01*
X200466876Y-117586590D02*
X200891140Y-117586590D01*
X200726542Y-111007658D02*
X200726542Y-115658576D01*
X199431000Y-123600000D02*
X199148538Y-123317538D01*
X199148538Y-118904928D02*
X200466876Y-117586590D01*
X202514200Y-109220000D02*
X200726542Y-111007658D01*
X186182000Y-113294160D02*
X189979300Y-109496860D01*
X194351000Y-121077080D02*
X188348620Y-115074700D01*
X181284880Y-113294160D02*
X186182000Y-113294160D01*
X200601580Y-109496860D02*
X200726040Y-109496860D01*
X201820780Y-108402120D02*
X207718660Y-108402120D01*
X188348620Y-115074700D02*
X181343300Y-115074700D01*
X194351000Y-123600000D02*
X194351000Y-121077080D01*
X181343300Y-115074700D02*
X180751480Y-114482880D01*
X189979300Y-109496860D02*
X200601580Y-109496860D01*
X180751480Y-113827560D02*
X181284880Y-113294160D01*
X207718660Y-108402120D02*
X208175860Y-107944920D01*
X200726040Y-109496860D02*
X201820780Y-108402120D01*
X180751480Y-114482880D02*
X180751480Y-113827560D01*
X190014581Y-108145859D02*
X199618321Y-108145859D01*
X179242720Y-113433860D02*
X180025040Y-112651540D01*
X187861120Y-115641120D02*
X180487320Y-115641120D01*
X185508900Y-112651540D02*
X190014581Y-108145859D01*
X193081000Y-123600000D02*
X193081000Y-120861000D01*
X199618321Y-108145859D02*
X200294240Y-107469940D01*
X180487320Y-115641120D02*
X179242720Y-114396520D01*
X179242720Y-114396520D02*
X179242720Y-113433860D01*
X180025040Y-112651540D02*
X185508900Y-112651540D01*
X193081000Y-120861000D02*
X187861120Y-115641120D01*
X180164740Y-116164360D02*
X178615340Y-114614960D01*
X200919242Y-107195458D02*
X206019564Y-107195458D01*
X206019564Y-107195458D02*
X206354682Y-106860340D01*
X187114360Y-116164360D02*
X180164740Y-116164360D01*
X191811000Y-123600000D02*
X191811000Y-120861000D01*
X199161118Y-107678058D02*
X199994238Y-106844938D01*
X191811000Y-120861000D02*
X187114360Y-116164360D01*
X199994238Y-106844938D02*
X200568722Y-106844938D01*
X189501942Y-107678058D02*
X199161118Y-107678058D01*
X200568722Y-106844938D02*
X200919242Y-107195458D01*
X185272680Y-111907320D02*
X189501942Y-107678058D01*
X178615340Y-114614960D02*
X178615340Y-112994440D01*
X178615340Y-112994440D02*
X179702460Y-111907320D01*
X179702460Y-111907320D02*
X185272680Y-111907320D01*
X178145440Y-114929920D02*
X178145440Y-112778540D01*
X186365060Y-116685060D02*
X179900580Y-116685060D01*
X190541000Y-120861000D02*
X186365060Y-116685060D01*
X201131162Y-106745447D02*
X205067493Y-106745447D01*
X179900580Y-116685060D02*
X178145440Y-114929920D01*
X205067493Y-106745447D02*
X206232760Y-105580180D01*
X190541000Y-123600000D02*
X190541000Y-120861000D01*
X178145440Y-112778540D02*
X179478940Y-111445040D01*
X179478940Y-111445040D02*
X185018680Y-111445040D01*
X199807838Y-106394927D02*
X200780642Y-106394927D01*
X185018680Y-111445040D02*
X189235673Y-107228047D01*
X198974718Y-107228047D02*
X199807838Y-106394927D01*
X189235673Y-107228047D02*
X198974718Y-107228047D01*
X200780642Y-106394927D02*
X201131162Y-106745447D01*
X177601880Y-115150900D02*
X177601880Y-112483900D01*
X205425040Y-105727500D02*
X205425040Y-102943660D01*
X204857104Y-106295436D02*
X205425040Y-105727500D01*
X198788318Y-106778036D02*
X199621438Y-105944916D01*
X179682140Y-117231160D02*
X177601880Y-115150900D01*
X201317561Y-106295436D02*
X204857104Y-106295436D01*
X199621438Y-105944916D02*
X200967042Y-105944916D01*
X188796684Y-106778036D02*
X198788318Y-106778036D01*
X177601880Y-112483900D02*
X179110640Y-110975140D01*
X189271000Y-120861000D02*
X185641160Y-117231160D01*
X185641160Y-117231160D02*
X179682140Y-117231160D01*
X184599580Y-110975140D02*
X188796684Y-106778036D01*
X189271000Y-123600000D02*
X189271000Y-120861000D01*
X200967042Y-105944916D02*
X201317561Y-106295436D01*
X179110640Y-110975140D02*
X184599580Y-110975140D01*
X178838860Y-110505240D02*
X184254140Y-110505240D01*
X177131980Y-112212120D02*
X178838860Y-110505240D01*
X185191400Y-117698520D02*
X179478940Y-117698520D01*
X202062484Y-102867460D02*
X204383640Y-102867460D01*
X198601919Y-106328025D02*
X202062484Y-102867460D01*
X188001000Y-123600000D02*
X188001000Y-120508120D01*
X177131980Y-115351560D02*
X177131980Y-112212120D01*
X188431355Y-106328025D02*
X198601919Y-106328025D01*
X179478940Y-117698520D02*
X177131980Y-115351560D01*
X184254140Y-110505240D02*
X188431355Y-106328025D01*
X188001000Y-120508120D02*
X185191400Y-117698520D01*
X186731000Y-120053460D02*
X184826071Y-118148531D01*
X184795160Y-109095540D02*
X186255660Y-107635040D01*
X186731000Y-123600000D02*
X186731000Y-120053460D01*
X176588420Y-115796060D02*
X176588420Y-111965740D01*
X205176281Y-102242459D02*
X205818740Y-101600000D01*
X187594401Y-102242459D02*
X205176281Y-102242459D01*
X181038500Y-109095540D02*
X184795160Y-109095540D01*
X178569620Y-109984540D02*
X180149500Y-109984540D01*
X176588420Y-111965740D02*
X178569620Y-109984540D01*
X186255660Y-103581200D02*
X187594401Y-102242459D01*
X186255660Y-107635040D02*
X186255660Y-103581200D01*
X178940891Y-118148531D02*
X176588420Y-115796060D01*
X184826071Y-118148531D02*
X178940891Y-118148531D01*
X180149500Y-109984540D02*
X181038500Y-109095540D01*
X175895000Y-115943380D02*
X175895000Y-111815880D01*
X175895000Y-111815880D02*
X178244500Y-109466380D01*
X187454540Y-101600000D02*
X202514200Y-101600000D01*
X185461000Y-119549570D02*
X184575150Y-118663720D01*
X185740040Y-103314500D02*
X187454540Y-101600000D01*
X180677820Y-108625640D02*
X184500520Y-108625640D01*
X178615340Y-118663720D02*
X175895000Y-115943380D01*
X185461000Y-123600000D02*
X185461000Y-119549570D01*
X178244500Y-109466380D02*
X179837080Y-109466380D01*
X179837080Y-109466380D02*
X180677820Y-108625640D01*
X185740040Y-107386120D02*
X185740040Y-103314500D01*
X184500520Y-108625640D02*
X185740040Y-107386120D01*
X184575150Y-118663720D02*
X178615340Y-118663720D01*
X175229520Y-111582200D02*
X178059080Y-108752640D01*
X180381000Y-121419980D02*
X175229520Y-116268500D01*
X175229520Y-116268500D02*
X175229520Y-111582200D01*
X180381000Y-123600000D02*
X180381000Y-121419980D01*
X180223160Y-107950000D02*
X184150000Y-107950000D01*
X178059080Y-108752640D02*
X179420520Y-108752640D01*
X179420520Y-108752640D02*
X180223160Y-107950000D01*
X177802540Y-107950000D02*
X178927760Y-107950000D01*
X174635160Y-116908580D02*
X174635160Y-111117380D01*
X174635160Y-111117380D02*
X177802540Y-107950000D01*
X179111000Y-123600000D02*
X179111000Y-121384420D01*
X179111000Y-121384420D02*
X174635160Y-116908580D01*
X177256800Y-107357820D02*
X177841000Y-107357820D01*
X174017940Y-110596680D02*
X177256800Y-107357820D01*
X177841000Y-107357820D02*
X178460400Y-106738420D01*
X177841000Y-123600000D02*
X177841000Y-121376800D01*
X177841000Y-121376800D02*
X174017940Y-117553740D01*
X174017940Y-117553740D02*
X174017940Y-110596680D01*
X176992196Y-106685080D02*
X177416460Y-106685080D01*
X173423580Y-118099840D02*
X173423580Y-110253696D01*
X176571000Y-123600000D02*
X176571000Y-121247260D01*
X173423580Y-110253696D02*
X176992196Y-106685080D01*
X176571000Y-121247260D02*
X173423580Y-118099840D01*
X175301000Y-123600000D02*
X175301000Y-120947540D01*
X172780960Y-118427500D02*
X172780960Y-110009940D01*
X173730920Y-109059980D02*
X173730920Y-108722160D01*
X175757840Y-106695240D02*
X177182780Y-105270300D01*
X173730920Y-108722160D02*
X175757840Y-106695240D01*
X175301000Y-120947540D02*
X172780960Y-118427500D01*
X172780960Y-110009940D02*
X173730920Y-109059980D01*
X174031000Y-120673220D02*
X174031000Y-123600000D01*
X172189140Y-118831360D02*
X174031000Y-120673220D01*
X172935900Y-108892340D02*
X172189140Y-109639100D01*
X172189140Y-109639100D02*
X172189140Y-118831360D01*
X171668440Y-108987883D02*
X172260324Y-108395999D01*
X172761000Y-123600000D02*
X172761000Y-120861000D01*
X171668440Y-119768440D02*
X171668440Y-108987883D01*
X172761000Y-120861000D02*
X171668440Y-119768440D01*
X171099480Y-123208480D02*
X171099480Y-108430062D01*
X171491000Y-123600000D02*
X171099480Y-123208480D01*
X171099480Y-108430062D02*
X171869100Y-107660442D01*
X168951000Y-120325240D02*
X165933120Y-117307360D01*
X165933120Y-117307360D02*
X165933120Y-107947460D01*
X168951000Y-123600000D02*
X168951000Y-120325240D01*
X167681000Y-120434460D02*
X164830760Y-117584220D01*
X167681000Y-123600000D02*
X167681000Y-120434460D01*
X164830760Y-117584220D02*
X164830760Y-107942380D01*
X166411000Y-123600000D02*
X166411000Y-120495420D01*
X163642040Y-117726460D02*
X163642040Y-106677460D01*
X166411000Y-120495420D02*
X163642040Y-117726460D01*
X165141000Y-120876420D02*
X162580320Y-118315740D01*
X165141000Y-123600000D02*
X165141000Y-120876420D01*
X162580320Y-118315740D02*
X162580320Y-106664760D01*
X163871000Y-123600000D02*
X163871000Y-120861000D01*
X152844500Y-112560100D02*
X152844500Y-102916009D01*
X157797680Y-114787680D02*
X155072080Y-114787680D01*
X163871000Y-120861000D02*
X157797680Y-114787680D01*
X155072080Y-114787680D02*
X152844500Y-112560100D01*
X144553940Y-103352600D02*
X145026380Y-102880160D01*
X144553940Y-113985040D02*
X144553940Y-103352600D01*
X156961840Y-115270280D02*
X145839180Y-115270280D01*
X162601000Y-123600000D02*
X162601000Y-120909440D01*
X145839180Y-115270280D02*
X144553940Y-113985040D01*
X162601000Y-120909440D02*
X156961840Y-115270280D01*
X144056876Y-114351576D02*
X144056876Y-102601499D01*
X161331000Y-120381120D02*
X156692600Y-115742720D01*
X144056876Y-102601499D02*
X144356875Y-102301500D01*
X145448020Y-115742720D02*
X144056876Y-114351576D01*
X161331000Y-123600000D02*
X161331000Y-120381120D01*
X156692600Y-115742720D02*
X145448020Y-115742720D01*
X160061000Y-123600000D02*
X160061000Y-119934080D01*
X156380180Y-116253260D02*
X145041620Y-116253260D01*
X143339820Y-114551460D02*
X143339820Y-102209770D01*
X145041620Y-116253260D02*
X143339820Y-114551460D01*
X143339820Y-102209770D02*
X143924020Y-101625570D01*
X160061000Y-119934080D02*
X156380180Y-116253260D01*
X157521000Y-120609720D02*
X154800300Y-117889020D01*
X157521000Y-123600000D02*
X157521000Y-120609720D01*
X115163600Y-110543340D02*
X116448840Y-109258100D01*
X154800300Y-117889020D02*
X116672360Y-117889020D01*
X120634760Y-109258100D02*
X121305320Y-108587540D01*
X116672360Y-117889020D02*
X115163600Y-116380260D01*
X116448840Y-109258100D02*
X120634760Y-109258100D01*
X115163600Y-116380260D02*
X115163600Y-110543340D01*
X156251000Y-123600000D02*
X156251000Y-120861000D01*
X114708940Y-116588540D02*
X114708940Y-110070900D01*
X116459431Y-118339031D02*
X114708940Y-116588540D01*
X156251000Y-120861000D02*
X153729031Y-118339031D01*
X116207540Y-108572300D02*
X120286780Y-108572300D01*
X153729031Y-118339031D02*
X116459431Y-118339031D01*
X114708940Y-110070900D02*
X116207540Y-108572300D01*
X243149121Y-108559601D02*
X242646200Y-108056680D01*
X229811580Y-116977160D02*
X240774220Y-116977160D01*
X243149121Y-114602259D02*
X243149121Y-108559601D01*
X240774220Y-116977160D02*
X243149121Y-114602259D01*
X226814380Y-119974360D02*
X229811580Y-116977160D01*
X238302800Y-98602800D02*
X238302800Y-108199362D01*
X225199101Y-119864979D02*
X224716340Y-120347740D01*
X225199101Y-119369595D02*
X225199101Y-119864979D01*
X240210340Y-114691160D02*
X229877536Y-114691160D01*
X240951858Y-110848420D02*
X240951858Y-113949642D01*
X240951858Y-113949642D02*
X240210340Y-114691160D01*
X229877536Y-114691160D02*
X225199101Y-119369595D01*
X238302800Y-108199362D02*
X240951858Y-110848420D01*
X234950000Y-95250000D02*
X238302800Y-98602800D01*
X239834420Y-114226340D02*
X229621080Y-114226340D01*
X240501847Y-111034820D02*
X240501847Y-113558913D01*
X234950000Y-96520000D02*
X237754160Y-99324160D01*
X237754160Y-99324160D02*
X237754160Y-108287133D01*
X229621080Y-114226340D02*
X224574100Y-119273320D01*
X240501847Y-113558913D02*
X239834420Y-114226340D01*
X237754160Y-108287133D02*
X240501847Y-111034820D01*
X224561398Y-118620626D02*
X223936614Y-118620626D01*
X231670000Y-98657000D02*
X232007000Y-98657000D01*
X239831880Y-111114840D02*
X239831880Y-113329720D01*
X239831880Y-113329720D02*
X239483900Y-113677700D01*
X237187740Y-103837740D02*
X237187740Y-108470700D01*
X232007000Y-98657000D02*
X237187740Y-103837740D01*
X239483900Y-113677700D02*
X229504324Y-113677700D01*
X229504324Y-113677700D02*
X224561398Y-118620626D01*
X237187740Y-108470700D02*
X239831880Y-111114840D01*
X233085640Y-107673140D02*
X234287060Y-107673140D01*
X238480600Y-112473740D02*
X237741460Y-113212880D01*
X234287060Y-107673140D02*
X238480600Y-111866680D01*
X229310151Y-113212880D02*
X224605901Y-117917130D01*
X224605901Y-117917130D02*
X223512380Y-117917130D01*
X237741460Y-113212880D02*
X229310151Y-113212880D01*
X238480600Y-111866680D02*
X238480600Y-112473740D01*
X234950000Y-110490000D02*
X232719880Y-112720120D01*
X228912420Y-112720120D02*
X225277680Y-116354860D01*
X232719880Y-112720120D02*
X228912420Y-112720120D01*
X222686880Y-115671600D02*
X226677220Y-111681260D01*
X232018840Y-111681260D02*
X232175050Y-111525050D01*
X226677220Y-111681260D02*
X232018840Y-111681260D01*
X220418660Y-115084860D02*
X221795340Y-115084860D01*
X235186220Y-109565440D02*
X237769400Y-112148620D01*
X219717620Y-115785900D02*
X220418660Y-115084860D01*
X222303340Y-115084860D02*
X227822760Y-109565440D01*
X222130620Y-115084860D02*
X222303340Y-115084860D01*
X227822760Y-109565440D02*
X235186220Y-109565440D01*
X221795340Y-115084860D02*
X222130620Y-115084860D01*
X223039940Y-116982240D02*
X217510360Y-116982240D01*
X224342960Y-115679220D02*
X223039940Y-116982240D01*
X219948760Y-114427000D02*
X221828360Y-114427000D01*
X239196880Y-111297720D02*
X239196880Y-113030000D01*
X218569540Y-115806220D02*
X219948760Y-114427000D01*
X221828360Y-114427000D02*
X229306120Y-106949240D01*
X229306120Y-106949240D02*
X234848400Y-106949240D01*
X234848400Y-106949240D02*
X239196880Y-111297720D01*
X185333640Y-102298500D02*
X177581560Y-102298500D01*
X203241000Y-123600000D02*
X203241000Y-119343628D01*
X217398600Y-99260660D02*
X218589860Y-100451920D01*
X187002420Y-100629720D02*
X185333640Y-102298500D01*
X215752680Y-99260660D02*
X217398600Y-99260660D01*
X166347140Y-102443280D02*
X156880560Y-102443280D01*
X200957180Y-99270820D02*
X199920860Y-100307140D01*
X168021000Y-100134420D02*
X168021000Y-100769420D01*
X207264279Y-116479041D02*
X206964280Y-116779040D01*
X209364580Y-99270820D02*
X200957180Y-99270820D01*
X213387940Y-101625400D02*
X211719160Y-101625400D01*
X199920860Y-100307140D02*
X199598280Y-100629720D01*
X199598280Y-100629720D02*
X187002420Y-100629720D01*
X174162720Y-98879660D02*
X169275760Y-98879660D01*
X141325600Y-98971100D02*
X140197840Y-100098860D01*
X177581560Y-102298500D02*
X174162720Y-98879660D01*
X213387940Y-110355380D02*
X207264279Y-116479041D01*
X168021000Y-100769420D02*
X166347140Y-102443280D01*
X213387940Y-101625400D02*
X213387940Y-110355380D01*
X203241000Y-119343628D02*
X204954006Y-117630622D01*
X213387940Y-101625400D02*
X215752680Y-99260660D01*
X153408380Y-98971100D02*
X141325600Y-98971100D01*
X156880560Y-102443280D02*
X153408380Y-98971100D01*
X169275760Y-98879660D02*
X168021000Y-100134420D01*
X211719160Y-101625400D02*
X209364580Y-99270820D01*
X216484200Y-100330000D02*
X213995000Y-102819200D01*
X204511000Y-123600000D02*
X204511000Y-119006262D01*
X213995000Y-102819200D02*
X213995000Y-110708440D01*
X204511000Y-119006262D02*
X205049120Y-118468142D01*
X213995000Y-110708440D02*
X206928720Y-117774720D01*
X153763980Y-112306100D02*
X155486100Y-114028220D01*
X205781000Y-116994580D02*
X206900780Y-115874800D01*
X206900780Y-115874800D02*
X205854300Y-116921280D01*
X198120000Y-114300000D02*
X182440580Y-114300000D01*
X205854300Y-116921280D02*
X199331580Y-116921280D01*
X139316460Y-113581180D02*
X139316460Y-103809800D01*
X155486100Y-114028220D02*
X158074360Y-114028220D01*
X158074360Y-114028220D02*
X158978600Y-114932460D01*
X142125700Y-101000560D02*
X152435560Y-101000560D01*
X205781000Y-123600000D02*
X205781000Y-116994580D01*
X198120000Y-115709700D02*
X198120000Y-114300000D01*
X153763980Y-102328980D02*
X153763980Y-112306100D01*
X152435560Y-101000560D02*
X153763980Y-102328980D01*
X182440580Y-114300000D02*
X182377080Y-114363500D01*
X140174980Y-114439700D02*
X139316460Y-113581180D01*
X199331580Y-116921280D02*
X198120000Y-115709700D01*
X139316460Y-103809800D02*
X142125700Y-101000560D01*
X208546700Y-106959400D02*
X208871820Y-107284520D01*
X200327260Y-108524040D02*
X201091800Y-107759500D01*
X208871820Y-108356401D02*
X201543921Y-115684300D01*
X206946500Y-107759500D02*
X207746600Y-106959400D01*
X208871820Y-107284520D02*
X208871820Y-108356401D01*
X207746600Y-106959400D02*
X208546700Y-106959400D01*
X201091800Y-107759500D02*
X206946500Y-107759500D01*
M02*
