G04 #@! TF.GenerationSoftware,KiCad,Pcbnew,(6.0.0)*
G04 #@! TF.CreationDate,2022-01-26T20:37:23-08:00*
G04 #@! TF.ProjectId,M919_cache,4d393139-5f63-4616-9368-652e6b696361,rev?*
G04 #@! TF.SameCoordinates,Original*
G04 #@! TF.FileFunction,Soldermask,Top*
G04 #@! TF.FilePolarity,Negative*
%FSLAX46Y46*%
G04 Gerber Fmt 4.6, Leading zero omitted, Abs format (unit mm)*
G04 Created by KiCad (PCBNEW (6.0.0)) date 2022-01-26 20:37:23*
%MOMM*%
%LPD*%
G01*
G04 APERTURE LIST*
G04 Aperture macros list*
%AMRoundRect*
0 Rectangle with rounded corners*
0 $1 Rounding radius*
0 $2 $3 $4 $5 $6 $7 $8 $9 X,Y pos of 4 corners*
0 Add a 4 corners polygon primitive as box body*
4,1,4,$2,$3,$4,$5,$6,$7,$8,$9,$2,$3,0*
0 Add four circle primitives for the rounded corners*
1,1,$1+$1,$2,$3*
1,1,$1+$1,$4,$5*
1,1,$1+$1,$6,$7*
1,1,$1+$1,$8,$9*
0 Add four rect primitives between the rounded corners*
20,1,$1+$1,$2,$3,$4,$5,0*
20,1,$1+$1,$4,$5,$6,$7,0*
20,1,$1+$1,$6,$7,$8,$9,0*
20,1,$1+$1,$8,$9,$2,$3,0*%
G04 Aperture macros list end*
%ADD10C,0.100000*%
%ADD11RoundRect,0.050000X0.400000X0.250000X-0.400000X0.250000X-0.400000X-0.250000X0.400000X-0.250000X0*%
%ADD12RoundRect,0.050000X0.400000X0.200000X-0.400000X0.200000X-0.400000X-0.200000X0.400000X-0.200000X0*%
%ADD13RoundRect,0.050000X-1.079500X-0.254000X1.079500X-0.254000X1.079500X0.254000X-1.079500X0.254000X0*%
G04 APERTURE END LIST*
D10*
X233521000Y-126140000D02*
X128521000Y-126140000D01*
X128521000Y-126140000D02*
X128521000Y-121060000D01*
X128521000Y-121060000D02*
X233521000Y-121060000D01*
X233521000Y-121060000D02*
X233521000Y-126140000D01*
G36*
X233521000Y-126140000D02*
G01*
X128521000Y-126140000D01*
X128521000Y-121060000D01*
X233521000Y-121060000D01*
X233521000Y-126140000D01*
G37*
X233521000Y-126140000D02*
X128521000Y-126140000D01*
X128521000Y-121060000D01*
X233521000Y-121060000D01*
X233521000Y-126140000D01*
D11*
X231670000Y-110350000D03*
D12*
X231670000Y-109550000D03*
X231670000Y-108750000D03*
D11*
X231670000Y-107950000D03*
X229870000Y-107950000D03*
D12*
X229870000Y-108750000D03*
X229870000Y-109550000D03*
D11*
X229870000Y-110350000D03*
D13*
X118694200Y-95250000D03*
X118694200Y-96520000D03*
X118694200Y-97790000D03*
X118694200Y-99060000D03*
X118694200Y-100330000D03*
X118694200Y-101600000D03*
X118694200Y-102870000D03*
X118694200Y-104140000D03*
X118694200Y-105410000D03*
X118694200Y-106680000D03*
X118694200Y-107950000D03*
X118694200Y-109220000D03*
X118694200Y-110490000D03*
X118694200Y-111760000D03*
X118694200Y-113030000D03*
X118694200Y-114300000D03*
X128270000Y-114300000D03*
X128270000Y-113030000D03*
X128270000Y-111760000D03*
X128270000Y-110490000D03*
X128270000Y-109220000D03*
X128270000Y-107950000D03*
X128270000Y-106680000D03*
X128270000Y-105410000D03*
X128270000Y-104140000D03*
X128270000Y-102870000D03*
X128270000Y-101600000D03*
X128270000Y-100330000D03*
X128270000Y-99060000D03*
X128270000Y-97790000D03*
X128270000Y-96520000D03*
X128270000Y-95250000D03*
X132664200Y-95250000D03*
X132664200Y-96520000D03*
X132664200Y-97790000D03*
X132664200Y-99060000D03*
X132664200Y-100330000D03*
X132664200Y-101600000D03*
X132664200Y-102870000D03*
X132664200Y-104140000D03*
X132664200Y-105410000D03*
X132664200Y-106680000D03*
X132664200Y-107950000D03*
X132664200Y-109220000D03*
X132664200Y-110490000D03*
X132664200Y-111760000D03*
X132664200Y-113030000D03*
X132664200Y-114300000D03*
X142240000Y-114300000D03*
X142240000Y-113030000D03*
X142240000Y-111760000D03*
X142240000Y-110490000D03*
X142240000Y-109220000D03*
X142240000Y-107950000D03*
X142240000Y-106680000D03*
X142240000Y-105410000D03*
X142240000Y-104140000D03*
X142240000Y-102870000D03*
X142240000Y-101600000D03*
X142240000Y-100330000D03*
X142240000Y-99060000D03*
X142240000Y-97790000D03*
X142240000Y-96520000D03*
X142240000Y-95250000D03*
X146634200Y-95250000D03*
X146634200Y-96520000D03*
X146634200Y-97790000D03*
X146634200Y-99060000D03*
X146634200Y-100330000D03*
X146634200Y-101600000D03*
X146634200Y-102870000D03*
X146634200Y-104140000D03*
X146634200Y-105410000D03*
X146634200Y-106680000D03*
X146634200Y-107950000D03*
X146634200Y-109220000D03*
X146634200Y-110490000D03*
X146634200Y-111760000D03*
X146634200Y-113030000D03*
X146634200Y-114300000D03*
X156210000Y-114300000D03*
X156210000Y-113030000D03*
X156210000Y-111760000D03*
X156210000Y-110490000D03*
X156210000Y-109220000D03*
X156210000Y-107950000D03*
X156210000Y-106680000D03*
X156210000Y-105410000D03*
X156210000Y-104140000D03*
X156210000Y-102870000D03*
X156210000Y-101600000D03*
X156210000Y-100330000D03*
X156210000Y-99060000D03*
X156210000Y-97790000D03*
X156210000Y-96520000D03*
X156210000Y-95250000D03*
X160604200Y-95250000D03*
X160604200Y-96520000D03*
X160604200Y-97790000D03*
X160604200Y-99060000D03*
X160604200Y-100330000D03*
X160604200Y-101600000D03*
X160604200Y-102870000D03*
X160604200Y-104140000D03*
X160604200Y-105410000D03*
X160604200Y-106680000D03*
X160604200Y-107950000D03*
X160604200Y-109220000D03*
X160604200Y-110490000D03*
X160604200Y-111760000D03*
X160604200Y-113030000D03*
X160604200Y-114300000D03*
X170180000Y-114300000D03*
X170180000Y-113030000D03*
X170180000Y-111760000D03*
X170180000Y-110490000D03*
X170180000Y-109220000D03*
X170180000Y-107950000D03*
X170180000Y-106680000D03*
X170180000Y-105410000D03*
X170180000Y-104140000D03*
X170180000Y-102870000D03*
X170180000Y-101600000D03*
X170180000Y-100330000D03*
X170180000Y-99060000D03*
X170180000Y-97790000D03*
X170180000Y-96520000D03*
X170180000Y-95250000D03*
X174574200Y-95250000D03*
X174574200Y-96520000D03*
X174574200Y-97790000D03*
X174574200Y-99060000D03*
X174574200Y-100330000D03*
X174574200Y-101600000D03*
X174574200Y-102870000D03*
X174574200Y-104140000D03*
X174574200Y-105410000D03*
X174574200Y-106680000D03*
X174574200Y-107950000D03*
X174574200Y-109220000D03*
X174574200Y-110490000D03*
X174574200Y-111760000D03*
X174574200Y-113030000D03*
X174574200Y-114300000D03*
X184150000Y-114300000D03*
X184150000Y-113030000D03*
X184150000Y-111760000D03*
X184150000Y-110490000D03*
X184150000Y-109220000D03*
X184150000Y-107950000D03*
X184150000Y-106680000D03*
X184150000Y-105410000D03*
X184150000Y-104140000D03*
X184150000Y-102870000D03*
X184150000Y-101600000D03*
X184150000Y-100330000D03*
X184150000Y-99060000D03*
X184150000Y-97790000D03*
X184150000Y-96520000D03*
X184150000Y-95250000D03*
X202514200Y-95250000D03*
X202514200Y-96520000D03*
X202514200Y-97790000D03*
X202514200Y-99060000D03*
X202514200Y-100330000D03*
X202514200Y-101600000D03*
X202514200Y-102870000D03*
X202514200Y-104140000D03*
X202514200Y-105410000D03*
X202514200Y-106680000D03*
X202514200Y-107950000D03*
X202514200Y-109220000D03*
X202514200Y-110490000D03*
X202514200Y-111760000D03*
X202514200Y-113030000D03*
X202514200Y-114300000D03*
X212090000Y-114300000D03*
X212090000Y-113030000D03*
X212090000Y-111760000D03*
X212090000Y-110490000D03*
X212090000Y-109220000D03*
X212090000Y-107950000D03*
X212090000Y-106680000D03*
X212090000Y-105410000D03*
X212090000Y-104140000D03*
X212090000Y-102870000D03*
X212090000Y-101600000D03*
X212090000Y-100330000D03*
X212090000Y-99060000D03*
X212090000Y-97790000D03*
X212090000Y-96520000D03*
X212090000Y-95250000D03*
X216484200Y-95250000D03*
X216484200Y-96520000D03*
X216484200Y-97790000D03*
X216484200Y-99060000D03*
X216484200Y-100330000D03*
X216484200Y-101600000D03*
X216484200Y-102870000D03*
X216484200Y-104140000D03*
X216484200Y-105410000D03*
X216484200Y-106680000D03*
X216484200Y-107950000D03*
X216484200Y-109220000D03*
X216484200Y-110490000D03*
X216484200Y-111760000D03*
X216484200Y-113030000D03*
X216484200Y-114300000D03*
X226060000Y-114300000D03*
X226060000Y-113030000D03*
X226060000Y-111760000D03*
X226060000Y-110490000D03*
X226060000Y-109220000D03*
X226060000Y-107950000D03*
X226060000Y-106680000D03*
X226060000Y-105410000D03*
X226060000Y-104140000D03*
X226060000Y-102870000D03*
X226060000Y-101600000D03*
X226060000Y-100330000D03*
X226060000Y-99060000D03*
X226060000Y-97790000D03*
X226060000Y-96520000D03*
X226060000Y-95250000D03*
X234950000Y-95250000D03*
X234950000Y-96520000D03*
X234950000Y-97790000D03*
X234950000Y-99060000D03*
X234950000Y-100330000D03*
X234950000Y-101600000D03*
X234950000Y-102870000D03*
X234950000Y-104140000D03*
X234950000Y-105410000D03*
X234950000Y-106680000D03*
X234950000Y-107950000D03*
X234950000Y-109220000D03*
X234950000Y-110490000D03*
X234950000Y-111760000D03*
X234950000Y-113030000D03*
X234950000Y-114300000D03*
X244525800Y-114300000D03*
X244525800Y-113030000D03*
X244525800Y-111760000D03*
X244525800Y-110490000D03*
X244525800Y-109220000D03*
X244525800Y-107950000D03*
X244525800Y-106680000D03*
X244525800Y-105410000D03*
X244525800Y-104140000D03*
X244525800Y-102870000D03*
X244525800Y-101600000D03*
X244525800Y-100330000D03*
X244525800Y-99060000D03*
X244525800Y-97790000D03*
X244525800Y-96520000D03*
X244525800Y-95250000D03*
X188544200Y-95250000D03*
X188544200Y-96520000D03*
X188544200Y-97790000D03*
X188544200Y-99060000D03*
X188544200Y-100330000D03*
X188544200Y-101600000D03*
X188544200Y-102870000D03*
X188544200Y-104140000D03*
X188544200Y-105410000D03*
X188544200Y-106680000D03*
X188544200Y-107950000D03*
X188544200Y-109220000D03*
X188544200Y-110490000D03*
X188544200Y-111760000D03*
X188544200Y-113030000D03*
X188544200Y-114300000D03*
X198120000Y-114300000D03*
X198120000Y-113030000D03*
X198120000Y-111760000D03*
X198120000Y-110490000D03*
X198120000Y-109220000D03*
X198120000Y-107950000D03*
X198120000Y-106680000D03*
X198120000Y-105410000D03*
X198120000Y-104140000D03*
X198120000Y-102870000D03*
X198120000Y-101600000D03*
X198120000Y-100330000D03*
X198120000Y-99060000D03*
X198120000Y-97790000D03*
X198120000Y-96520000D03*
X198120000Y-95250000D03*
D11*
X231670000Y-103492000D03*
D12*
X231670000Y-102692000D03*
X231670000Y-101892000D03*
D11*
X231670000Y-101092000D03*
X229870000Y-101092000D03*
D12*
X229870000Y-101892000D03*
X229870000Y-102692000D03*
D11*
X229870000Y-103492000D03*
X231670000Y-115900000D03*
D12*
X231670000Y-115100000D03*
X231670000Y-114300000D03*
D11*
X231670000Y-113500000D03*
X229870000Y-113500000D03*
D12*
X229870000Y-114300000D03*
X229870000Y-115100000D03*
D11*
X229870000Y-115900000D03*
X231670000Y-97396000D03*
D12*
X231670000Y-96596000D03*
X231670000Y-95796000D03*
D11*
X231670000Y-94996000D03*
X229870000Y-94996000D03*
D12*
X229870000Y-95796000D03*
X229870000Y-96596000D03*
D11*
X229870000Y-97396000D03*
M02*
